<?xml version="1.0" encoding="utf-8"?>
<!-- Generator: Adobe Illustrator 27.5.0, SVG Export Plug-In . SVG Version: 6.00 Build 0)  -->
<svg version="1.1" xmlns="http://www.w3.org/2000/svg" xmlns:xlink="http://www.w3.org/1999/xlink" x="0px" y="0px"
	 viewBox="0 0 750 500" style="enable-background:new 0 0 750 500;" xml:space="preserve">

<g id="OBJECTS">
	<g>
		<path style="fill:#59B7B7;" d="M637.155,325.758c-1.001,4.099-90.246,8.494-195.728,12.264
			c-108.188,3.864-233.444,7.055-298.066,8.619c-27.141,0.657-43.582,1.017-43.582,1.017c3.41-4.865,13.563-45.287,18.725-59.21
			c10.888-29.362,19.804-59.867,33.101-88.274c20.555-43.926,47.305-102.353,101.211-112.162
			c12.311-2.237,23.637-1.299,34.008,1.971c27.36,8.588,48.228,33.289,63.918,58.412c11.982,19.147,21.916,39.452,32.491,59.382
			c9.98,18.803,19.617,41.971,41.955,48.431c6.054,1.752,11.529,0.814,16.441-1.799c12.39-6.523,21.306-23.527,27.564-34.212
			c12.78-21.869,26.64-41.345,52.405-47.79C577.289,158.486,638.673,319.438,637.155,325.758z"/>
		<path style="fill:#59ADAB;" d="M441.427,338.023c-3.019,11.122-10.794,18.959-29.753,21.759
			c-11.607,1.705-24.935-1.048-36.511-2.487c-14.064-1.736-27.313-2.628-41.533-2.597c-13.907,0.031-27.548-2.331-41.283-2.253
			c-19.1,0.125-37.919,0.61-57.051-0.313c-21.666-1.048-43.41-0.61-65.091-0.547c-9.668,0.031-20.367,1.251-29.472-2.519
			c0.767-0.86,1.658-1.658,2.628-2.424c5.757-4.458,14.517-7.274,20.727-10.637c11.435-6.164,22.62-12.796,33.821-19.366
			c32.178-18.881,59.945-41.188,79.327-73.82c21.916-36.871,32.069-78.576,24.654-121.297c-1.955-11.279-7.196-22.901-15.065-31.537
			c27.36,8.588,48.228,33.289,63.918,58.412c11.982,19.147,21.916,39.452,32.491,59.382c9.98,18.803,19.617,41.971,41.955,48.431
			c6.054,1.752,11.529,0.814,16.441-1.799c0.673,15.737,0.626,31.521,1.033,47.587C443.023,315.793,444.087,328.199,441.427,338.023
			z"/>
		<path style="fill:#7FC5C2;" d="M618.102,323.678H236.016c37.888-11.044,71.521-62.839,91.935-87.43
			c26.531-31.959,46.57-77.465,95.768-71.052c1.361,0.172,2.707,0.391,4.02,0.657c42.409,8.432,63.793,59.632,86.319,91.153
			c12.17,17.02,27.282,32.397,44.536,43.691c9.746,6.383,19.898,11.482,31.146,14.658
			C596.608,317.295,615.896,318.656,618.102,323.678z"/>
		<path style="fill:#79BFBA;" d="M618.102,323.678h-99.052c-14.877-7.337-26.781-17.552-34.181-35.854
			c-11.732-28.987-14.892-59.96-29.19-88.478c-6.304-12.561-15.815-25.639-27.939-33.492c42.409,8.432,63.793,59.632,86.319,91.153
			c12.17,17.02,27.282,32.397,44.536,43.691c9.746,6.383,19.898,11.482,31.146,14.658
			C596.608,317.295,615.896,318.656,618.102,323.678z"/>
	</g>
	<g>
		<polygon style="fill:#FFFFFF;" points="723.428,447.256 33.562,447.256 106.693,313.183 635.853,313.183 		"/>
		<polygon style="fill:#BFE2DE;" points="679.627,427.439 77.363,427.439 91.239,397.717 92.694,394.588 107.946,361.909 
			108.024,361.738 109.479,358.609 121.164,333.58 621.747,333.58 637.171,358.609 639.111,361.738 643.178,368.339 
			659.369,394.588 661.293,397.717 		"/>
		<path style="fill:#9FD3CC;" d="M279.27,427.439H77.363l30.583-65.53c0.234-0.078,0.469-0.156,0.704-0.219
			c11.279-3.176,17.27,0.672,22.292,10.215c5.553,10.559,11.842,20.853,24.482,23.496c10.935,2.3,18.725-3.708,28.314-7.853
			c14.329-6.21,19.929-1.674,31.443,6.257c13.61,9.386,21.541-0.532,35.432-3.942c13.062-3.207,25.42-2.378,28.001,12.812
			c0.986,5.804-1.158,9.699-1.642,15.362C276.626,422.23,277.784,424.936,279.27,427.439z"/>
		<path style="fill:#9FD3CC;" d="M581.669,333.58c-2.08,2.393-4.427,4.474-6.977,6.132c-7.321,4.771-21.071,8.401-25.013,17.661
			c-2.909,6.805,0.954,15.346-1.22,22.417c-2.862,9.386-15.862,18.302-25.529,18.052c-22.761-0.595-23.981-25.921-34.134-40.031
			c-12.233-17.004-28.408-2.456-39.906,7.665c-12.702,11.185-26.234,12.233-33.633-4.287c-8.557-19.116-24.857-10.715-42.362-6.476
			c-16.957,4.114-52.28,12.608-53.906-14.11c-0.157-2.44-0.094-4.787,0.157-7.024H581.669z"/>
		<path style="fill:#9FD3CC;" d="M679.627,427.439H571.125c-0.798-1.392-1.439-2.706-1.909-3.926
			c-4.959-12.968,3.27-23.559,16.957-22.745c11.404,0.673,20.649,10.074,32.084,11.091c14.47,1.267,13.656-11.701,16.16-22.87
			c1.376-6.179,3.973-15.127,8.76-20.649L679.627,427.439z"/>
		<path style="fill:#FFFFFF;" d="M661.293,397.717l-1.924-3.129H517.51c-2.083-10.95-4.166-21.901-6.247-32.851h127.847l-1.94-3.129
			H510.668c-1.586-8.343-3.174-16.686-4.76-25.029h-3.176c1.585,8.343,3.17,16.686,4.756,25.029H372.047
			c-0.01-8.343-0.021-16.686-0.029-25.029h-3.129c0.008,8.343,0.019,16.686,0.029,25.029H241.363
			c1.587-8.343,3.174-16.686,4.76-25.029h-3.191c-1.585,8.343-3.17,16.686-4.756,25.029H109.479l-1.455,3.129h129.557
			c-2.08,10.95-4.161,21.9-6.242,32.851H92.694l-1.455,3.129h139.506c-1.883,9.907-3.765,19.815-5.647,29.722h3.176
			c1.882-9.907,3.768-19.815,5.652-29.722h135.039c0.012,9.907,0.025,19.815,0.035,29.722h3.129
			c-0.01-9.907-0.022-19.815-0.035-29.722h142.826c1.883,9.907,3.765,19.815,5.647,29.722h3.191
			c-1.887-9.907-3.767-19.815-5.652-29.722H661.293z M234.52,394.588c2.083-10.95,4.164-21.901,6.247-32.851h128.155
			c0.013,10.95,0.025,21.9,0.038,32.851H234.52z M372.089,394.588c-0.013-10.95-0.025-21.901-0.038-32.851h136.032
			c2.081,10.95,4.161,21.9,6.242,32.851H372.089z"/>
	</g>
	<g>
		<g>
			<path style="fill:#0C776F;" d="M220.035,293.803c-18.875-8.287-25.327-30.974-18.832-50.001
				c5.257-15.398,9.165-24.033,7.552-40.95c-1.191-12.489-2.869-31.433,5.823-42.106c6.743-8.279,18.34-6.688,26.119-1.458
				c12.081,8.122,12.784,22.147,13.557,35.614c0.939,16.372,0.819,26.046,9.306,40.021c5.924,9.755,9.018,19.662,7.311,31.33
				c-3.084,21.064-26.736,35.165-46.867,29.018C222.626,294.851,221.303,294.359,220.035,293.803z"/>
			<path style="fill:#BFE2DE;" d="M221.148,257.942c3.339,4.55,4.885,9.706,8.863,13.802c0.027,2.935-0.909,30.949-1.004,41.5h9.827
				c-0.346-10.552-4.46-66.952-4.46-66.952c-0.041-1.802-0.064-3.609-0.092-5.414c5.595-8.363,11.675-17.221,15.951-26.314
				c0.336-0.715-0.61-1.638-1.189-0.917c-5.56,6.93-10.308,14.946-14.83,22.728c-0.227-19.978,0.015-40.113-1.613-59.969
				c-0.089-1.088-1.653-1.109-1.708,0c-0.436,8.671-0.512,17.384-0.427,26.109c-3.569-5.37-7.171-11.053-11.668-15.511
				c-0.596-0.591-1.47,0.154-1.121,0.865c3.229,6.574,8.447,12.574,12.845,18.432c0.196,13.349,0.696,26.715,0.819,39.992
				c0.066,7.177,0.133,14.355,0.199,21.532c-3.051-4.761-6.991-9.219-10.299-13.666c-2.585-3.474-5.878-10.172-10.097-11.971
				c-0.422-0.18-0.973,0.212-0.684,0.663C213.775,248.038,217.501,252.972,221.148,257.942z"/>
		</g>
		<g>
			<path style="fill:#159B9A;" d="M302.321,300.088c-12.774-5.608-17.14-20.961-12.744-33.837
				c3.557-10.42,6.202-16.264,5.111-27.712c-0.806-8.452-1.942-21.272,3.941-28.495c4.563-5.603,12.411-4.526,17.676-0.987
				c8.176,5.496,8.651,14.987,9.174,24.101c0.635,11.079,0.555,17.626,6.298,27.084c4.009,6.602,6.103,13.306,4.948,21.202
				c-2.087,14.255-18.093,23.798-31.717,19.638C304.074,300.797,303.179,300.464,302.321,300.088z"/>
			<path style="fill:#BFE2DE;" d="M303.074,275.819c2.26,3.079,3.306,6.568,5.998,9.34c0.019,1.986-0.615,20.944-0.679,28.085h6.65
				c-0.234-7.141-3.018-45.309-3.018-45.309c-0.027-1.219-0.043-2.442-0.063-3.664c3.786-5.66,7.901-11.654,10.795-17.808
				c0.227-0.484-0.413-1.108-0.805-0.62c-3.763,4.689-6.976,10.114-10.036,15.381c-0.154-13.52,0.01-27.146-1.092-40.583
				c-0.061-0.736-1.119-0.751-1.156,0c-0.295,5.868-0.347,11.765-0.289,17.669c-2.415-3.634-4.853-7.48-7.896-10.497
				c-0.403-0.4-0.995,0.104-0.758,0.585c2.185,4.449,5.716,8.509,8.693,12.474c0.133,9.034,0.471,18.079,0.554,27.064
				c0.045,4.857,0.09,9.714,0.135,14.572c-2.065-3.222-4.731-6.239-6.97-9.248c-1.749-2.351-3.978-6.883-6.833-8.101
				c-0.285-0.122-0.658,0.143-0.463,0.449C298.085,269.116,300.606,272.456,303.074,275.819z"/>
		</g>
		<g>
			<path style="fill:#02625E;" d="M575.543,335.939c-22.011-9.663-29.535-36.12-21.96-58.308
				c6.13-17.956,10.688-28.025,8.807-47.753c-1.389-14.564-3.346-36.655,6.79-49.101c7.863-9.654,21.387-7.799,30.459-1.7
				c14.088,9.471,14.908,25.826,15.809,41.531c1.095,19.092,0.956,30.373,10.852,46.67c6.908,11.376,10.517,22.929,8.526,36.535
				c-3.596,24.564-31.178,41.007-54.654,33.839C578.564,337.161,577.021,336.587,575.543,335.939z"/>
			<path style="fill:#DFF4F1;" d="M576.841,294.12c3.894,5.306,5.697,11.318,10.336,16.094c0.032,3.423-1.06,36.091-1.171,48.395
				h11.459c-0.403-12.305-5.201-78.075-5.201-78.075c-0.047-2.101-0.075-4.208-0.108-6.314c6.524-9.753,13.614-20.082,18.602-30.686
				c0.392-0.833-0.712-1.91-1.386-1.069c-6.484,8.081-12.021,17.429-17.294,26.504c-0.265-23.297,0.018-46.777-1.881-69.932
				c-0.104-1.268-1.927-1.294-1.992,0c-0.508,10.112-0.598,20.272-0.498,30.447c-4.162-6.263-8.362-12.889-13.606-18.088
				c-0.695-0.689-1.714,0.18-1.307,1.008c3.765,7.665,9.851,14.663,14.979,21.494c0.228,15.567,0.811,31.154,0.954,46.636
				c0.078,8.37,0.155,16.74,0.232,25.109c-3.558-5.551-8.152-10.751-12.01-15.936c-3.014-4.051-6.854-11.861-11.774-13.959
				c-0.492-0.21-1.134,0.247-0.798,0.774C568.243,282.57,572.587,288.324,576.841,294.12z"/>
		</g>
	</g>
	<g>
		<g>
			<path style="fill:#159B9A;" d="M123.292,459.758c-0.422,0.063-0.892,0.125-1.392,0.188c-1.064,0.125-2.299,0.25-3.676,0.344
				c-2.659,0.203-5.882,0.344-9.48,0.407c-0.923,0.016-1.862,0.031-2.831,0.031c-2.299,0-4.709-0.031-7.212-0.094
				c-0.798-0.016-1.611-0.047-2.44-0.094c-3.238-0.109-6.617-0.313-10.028-0.61c-0.907-0.078-1.83-0.157-2.753-0.251
				c-2.065-0.219-4.145-0.453-6.21-0.735c-2.988-0.407-5.96-0.892-8.838-1.471c-1.173-0.219-2.315-0.469-3.457-0.735
				c-17.489-4.02-31.193-11.701-28.361-25.639c2.268-11.107,22.276-1.158,30.864,5.71c-4.818-5.647-7.884-13.875-10.465-20.555
				c-2.534-6.555-11.858-27.955-5.929-34.587c13.516-15.08,29.628,41.72,31.85,48.697c-0.141-9.355-7.478-57.333,11.263-55.784
				c13.954,1.142,7.415,42.018,7.415,52.311c0.266-11.028,22.01-46.1,36.668-36.933c12.89,8.056-10.653,36.198-14.532,45.083
				c11.451-5.021,27.954-18.381,40.579-5.225C182.345,448.573,133.694,458.209,123.292,459.758z"/>
			<path style="fill:#BFE2DE;" d="M86.233,459.93c-0.907-0.078-1.83-0.157-2.753-0.251c-2.675-6.82-5.021-13.781-7.712-20.524
				c-4.271-10.7-9.496-21.306-12.953-32.287c-0.125-0.422,0.485-0.657,0.704-0.298c5.506,9.59,9.386,20.43,13.547,30.661
				C80.101,444.678,83.495,452.234,86.233,459.93z"/>
			<path style="fill:#BFE2DE;" d="M98.701,460.634c-0.798-0.016-1.611-0.047-2.44-0.094c-0.767-8.197-1.127-16.456-1.784-24.622
				c-0.485-5.975-0.938-11.951-1.408-17.927c-0.454-5.929-1.283-11.998-0.97-17.927c0.016-0.516,0.798-0.657,0.907-0.125
				c2.409,11.107,2.393,23.105,3.332,34.415C97.058,443.067,98.122,451.858,98.701,460.634z"/>
			<path style="fill:#BFE2DE;" d="M126.905,406.024c-3.316,11.247-8.056,22.135-11.779,33.273c-2.346,7.008-4.239,14.251-6.382,21.4
				c-0.923,0.016-1.862,0.031-2.831,0.031c2.19-7.681,5.037-15.284,7.587-22.667c3.739-10.825,7.368-22.166,12.749-32.319
				C126.436,405.367,127.015,405.633,126.905,406.024z"/>
			<path style="fill:#BFE2DE;" d="M152.967,436.747c-7.931,5.882-16.238,11.185-24.012,17.317c-2.409,1.893-4.756,3.879-7.055,5.882
				c-1.064,0.125-2.299,0.25-3.676,0.344c3.301-2.784,6.695-5.444,10.059-8.041c7.634-5.897,15.643-11.842,24.278-16.222
				C153.029,435.793,153.389,436.434,152.967,436.747z"/>
			<path style="fill:#BFE2DE;" d="M68.431,457.474c-1.173-0.219-2.315-0.469-3.457-0.735c-1.048-1.079-2.096-2.143-3.144-3.207
				c-5.882-5.944-12.108-11.701-17.567-18.021c-0.469-0.547,0.25-1.267,0.798-0.798c6.32,5.46,12.077,11.686,18.021,17.567
				C64.849,454.017,66.632,455.738,68.431,457.474z"/>
		</g>
		<g>
			<path style="fill:#159B9A;" d="M148.61,338.156c-0.242,0.036-0.51,0.072-0.796,0.107c-0.608,0.071-1.315,0.143-2.103,0.197
				c-1.521,0.116-3.365,0.197-5.423,0.233c-0.528,0.009-1.065,0.018-1.62,0.018c-1.315,0-2.693-0.018-4.125-0.054
				c-0.456-0.009-0.922-0.027-1.396-0.054c-1.852-0.063-3.785-0.179-5.736-0.349c-0.519-0.045-1.047-0.09-1.575-0.143
				c-1.181-0.125-2.371-0.259-3.553-0.42c-1.709-0.233-3.409-0.51-5.056-0.841c-0.671-0.125-1.324-0.268-1.978-0.421
				c-10.005-2.3-17.844-6.693-16.224-14.667c1.298-6.354,12.743-0.662,17.656,3.266c-2.756-3.23-4.51-7.937-5.987-11.758
				c-1.45-3.75-6.783-15.991-3.392-19.785c7.732-8.626,16.949,23.866,18.22,27.857c-0.081-5.351-4.278-32.797,6.443-31.911
				c7.982,0.653,4.242,24.036,4.242,29.924c0.152-6.309,12.591-26.371,20.975-21.128c7.374,4.608-6.094,20.707-8.313,25.79
				c6.55-2.872,15.991-10.515,23.213-2.989C182.391,331.758,154.561,337.27,148.61,338.156z"/>
			<path style="fill:#BFE2DE;" d="M127.411,338.254c-0.519-0.045-1.047-0.09-1.575-0.143c-1.53-3.902-2.872-7.884-4.412-11.741
				c-2.443-6.121-5.432-12.188-7.41-18.47c-0.072-0.242,0.277-0.376,0.403-0.17c3.15,5.486,5.369,11.687,7.75,17.539
				C123.903,329.53,125.845,333.852,127.411,338.254z"/>
			<path style="fill:#BFE2DE;" d="M134.543,338.657c-0.456-0.009-0.922-0.027-1.396-0.054c-0.438-4.689-0.644-9.414-1.02-14.085
				c-0.277-3.418-0.537-6.837-0.805-10.255c-0.26-3.392-0.734-6.864-0.555-10.255c0.009-0.295,0.456-0.376,0.519-0.072
				c1.378,6.354,1.369,13.217,1.906,19.687C133.604,328.608,134.212,333.637,134.543,338.657z"/>
			<path style="fill:#BFE2DE;" d="M150.678,307.418c-1.897,6.434-4.608,12.662-6.738,19.034c-1.342,4.009-2.425,8.152-3.651,12.242
				c-0.528,0.009-1.065,0.018-1.62,0.018c1.253-4.394,2.882-8.743,4.34-12.967c2.139-6.192,4.215-12.68,7.293-18.488
				C150.409,307.042,150.74,307.194,150.678,307.418z"/>
			<path style="fill:#BFE2DE;" d="M165.586,324.993c-4.537,3.365-9.289,6.398-13.736,9.906c-1.378,1.083-2.72,2.219-4.036,3.365
				c-0.608,0.071-1.315,0.143-2.103,0.197c1.888-1.593,3.83-3.114,5.754-4.6c4.367-3.373,8.949-6.774,13.888-9.28
				C165.622,324.447,165.827,324.814,165.586,324.993z"/>
			<path style="fill:#BFE2DE;" d="M117.228,336.849c-0.671-0.125-1.324-0.268-1.978-0.421c-0.6-0.617-1.199-1.226-1.799-1.835
				c-3.365-3.4-6.926-6.693-10.049-10.309c-0.269-0.313,0.143-0.725,0.456-0.456c3.615,3.123,6.908,6.685,10.309,10.049
				C115.178,334.872,116.199,335.856,117.228,336.849z"/>
		</g>
		<g>
			<path style="fill:#159B9A;" d="M547.512,375.7c-0.242,0.036-0.51,0.072-0.797,0.107c-0.608,0.072-1.315,0.143-2.103,0.197
				c-1.521,0.116-3.365,0.197-5.423,0.233c-0.528,0.009-1.065,0.018-1.62,0.018c-1.315,0-2.694-0.018-4.125-0.054
				c-0.456-0.009-0.922-0.027-1.396-0.054c-1.852-0.063-3.785-0.179-5.736-0.349c-0.519-0.045-1.047-0.09-1.575-0.143
				c-1.181-0.125-2.371-0.259-3.553-0.42c-1.709-0.233-3.409-0.51-5.056-0.841c-0.671-0.125-1.324-0.268-1.978-0.421
				c-10.005-2.3-17.844-6.693-16.224-14.667c1.298-6.354,12.743-0.662,17.656,3.266c-2.756-3.23-4.51-7.937-5.987-11.758
				c-1.45-3.75-6.783-15.991-3.392-19.785c7.732-8.626,16.949,23.866,18.219,27.857c-0.081-5.351-4.277-32.797,6.443-31.911
				c7.982,0.653,4.242,24.036,4.242,29.924c0.152-6.309,12.591-26.371,20.976-21.128c7.374,4.608-6.094,20.707-8.313,25.79
				c6.55-2.872,15.991-10.515,23.213-2.989C581.293,369.302,553.463,374.814,547.512,375.7z"/>
			<path style="fill:#BFE2DE;" d="M526.313,375.798c-0.519-0.045-1.047-0.09-1.575-0.143c-1.53-3.902-2.872-7.884-4.412-11.741
				c-2.443-6.121-5.432-12.188-7.409-18.47c-0.072-0.242,0.277-0.376,0.403-0.17c3.15,5.486,5.369,11.687,7.75,17.539
				C522.805,367.073,524.747,371.396,526.313,375.798z"/>
			<path style="fill:#BFE2DE;" d="M533.445,376.201c-0.456-0.009-0.922-0.027-1.396-0.054c-0.438-4.689-0.644-9.414-1.02-14.085
				c-0.277-3.418-0.537-6.837-0.805-10.255c-0.26-3.391-0.734-6.863-0.555-10.255c0.009-0.295,0.456-0.376,0.519-0.072
				c1.378,6.354,1.369,13.217,1.906,19.687C532.505,366.152,533.114,371.181,533.445,376.201z"/>
			<path style="fill:#BFE2DE;" d="M549.579,344.961c-1.897,6.434-4.609,12.662-6.738,19.034c-1.342,4.009-2.425,8.152-3.651,12.242
				c-0.528,0.009-1.065,0.018-1.62,0.018c1.253-4.394,2.881-8.743,4.34-12.967c2.139-6.192,4.215-12.68,7.293-18.488
				C549.311,344.586,549.642,344.738,549.579,344.961z"/>
			<path style="fill:#BFE2DE;" d="M564.488,362.536c-4.537,3.365-9.289,6.398-13.736,9.906c-1.378,1.083-2.72,2.219-4.036,3.365
				c-0.608,0.072-1.315,0.143-2.103,0.197c1.888-1.593,3.83-3.114,5.754-4.6c4.367-3.373,8.949-6.774,13.888-9.28
				C564.523,361.991,564.729,362.357,564.488,362.536z"/>
			<path style="fill:#BFE2DE;" d="M516.13,374.393c-0.671-0.125-1.324-0.268-1.978-0.421c-0.6-0.617-1.199-1.226-1.799-1.835
				c-3.365-3.4-6.926-6.693-10.049-10.309c-0.268-0.313,0.143-0.725,0.456-0.456c3.615,3.123,6.908,6.685,10.309,10.049
				C514.08,372.416,515.1,373.4,516.13,374.393z"/>
		</g>
		<g>
			<path style="fill:#159B9A;" d="M485.114,316.428c-0.166,0.025-0.352,0.049-0.549,0.074c-0.419,0.049-0.907,0.099-1.45,0.136
				c-1.049,0.08-2.319,0.136-3.738,0.16c-0.364,0.006-0.734,0.012-1.117,0.012c-0.907,0-1.857-0.012-2.844-0.037
				c-0.315-0.006-0.635-0.018-0.962-0.037c-1.277-0.043-2.609-0.123-3.954-0.241c-0.358-0.031-0.722-0.062-1.086-0.099
				c-0.814-0.086-1.635-0.179-2.449-0.29c-1.178-0.161-2.35-0.352-3.485-0.58c-0.463-0.086-0.913-0.185-1.363-0.29
				c-6.897-1.585-12.301-4.614-11.184-10.111c0.895-4.38,8.784-0.456,12.171,2.252c-1.9-2.227-3.109-5.472-4.127-8.106
				c-0.999-2.585-4.676-11.024-2.338-13.639c5.33-5.947,11.684,16.452,12.56,19.204c-0.056-3.689-2.949-22.609,4.441-21.998
				c5.503,0.45,2.924,16.57,2.924,20.629c0.105-4.349,8.68-18.18,14.46-14.565c5.083,3.177-4.201,14.275-5.731,17.779
				c4.516-1.98,11.024-7.248,16.002-2.06C508.401,312.017,489.216,315.817,485.114,316.428z"/>
			<path style="fill:#BFE2DE;" d="M470.5,316.496c-0.358-0.031-0.722-0.062-1.086-0.099c-1.055-2.69-1.98-5.435-3.041-8.094
				c-1.684-4.219-3.745-8.402-5.108-12.732c-0.049-0.167,0.191-0.259,0.278-0.117c2.171,3.782,3.701,8.057,5.342,12.091
				C468.082,310.481,469.42,313.461,470.5,316.496z"/>
			<path style="fill:#BFE2DE;" d="M475.416,316.773c-0.315-0.006-0.635-0.018-0.962-0.037c-0.302-3.232-0.444-6.49-0.703-9.71
				c-0.191-2.356-0.37-4.713-0.555-7.069c-0.179-2.338-0.506-4.732-0.383-7.069c0.006-0.204,0.315-0.259,0.358-0.049
				c0.95,4.38,0.944,9.111,1.314,13.572C474.769,309.846,475.188,313.313,475.416,316.773z"/>
			<path style="fill:#BFE2DE;" d="M486.539,295.238c-1.308,4.435-3.177,8.729-4.645,13.121c-0.925,2.764-1.672,5.62-2.517,8.439
				c-0.364,0.006-0.734,0.012-1.117,0.012c0.864-3.029,1.986-6.027,2.992-8.939c1.474-4.269,2.906-8.741,5.028-12.745
				C486.354,294.979,486.582,295.084,486.539,295.238z"/>
			<path style="fill:#BFE2DE;" d="M496.816,307.353c-3.128,2.32-6.403,4.411-9.469,6.829c-0.95,0.746-1.875,1.53-2.782,2.32
				c-0.419,0.049-0.907,0.099-1.45,0.136c1.302-1.098,2.64-2.147,3.967-3.171c3.01-2.326,6.169-4.67,9.574-6.397
				C496.841,306.977,496.983,307.23,496.816,307.353z"/>
			<path style="fill:#BFE2DE;" d="M463.48,315.527c-0.463-0.086-0.913-0.185-1.363-0.29c-0.414-0.426-0.827-0.845-1.24-1.265
				c-2.32-2.344-4.775-4.614-6.928-7.106c-0.185-0.216,0.099-0.5,0.315-0.315c2.492,2.153,4.762,4.608,7.107,6.928
				C462.067,314.164,462.77,314.843,463.48,315.527z"/>
		</g>
		<g>
			<path style="fill:#59B7B7;" d="M723.224,426.829c-7.353,10.731-17.646,18.24-29.926,22.432c-3.551,1.205-7.196,2.143-10.856,2.91
				c-1.189,0.234-2.393,0.454-3.582,0.641c-4.302,0.735-8.635,1.236-13,1.596c-0.735,0.063-1.486,0.125-2.221,0.172
				c-0.845,0.063-1.69,0.125-2.55,0.172c-0.86,0.063-1.705,0.125-2.565,0.172c-0.281,0.016-0.548,0.031-0.829,0.047
				c-1.267,0.078-2.706,0.156-4.286,0.234c-0.86,0.047-1.752,0.078-2.691,0.125c-0.782,0.031-1.611,0.063-2.456,0.094
				c-4.427,0.156-9.527,0.266-14.892,0.156c-1.314-0.031-2.644-0.078-3.973-0.141c-24.56-1.017-52.483-7.008-46.836-31.177
				c3.16-13.563,45.709,8.713,53.828,12.452c-10.575-6.46-20.211-14.407-27.25-24.732c-4.302-6.351-16.081-24.701-8.26-32.147
				c5.538-5.272,12.968,1.173,17.192,4.974c11.779,10.559,23.574,26.891,29.535,41.642c-0.657-9.057-19.273-78.685,1.502-74.853
				c11.013,2.034,12.405,25.42,13.344,32.851c1.83,14.236,1.643,28.502,1.517,42.816c3.254-13.25,13.594-66.922,35.072-62.495
				c18.975,3.926-10.356,50.137-13.015,59.46c10.809-6.711,20.242-21.744,35.76-18.756
				C734.159,407.854,727.839,420.071,723.224,426.829z"/>
			<path style="fill:#BFE2DE;" d="M633.37,455.581c-1.314-0.031-2.644-0.078-3.973-0.141c-2.863-1.987-5.757-3.926-8.713-5.819
				c-9.089-5.819-18.975-10.45-27.986-16.316c-0.594-0.391-0.219-1.47,0.501-1.205c9.996,3.739,19.554,10.059,28.518,15.753
				C625.642,450.341,629.553,452.906,633.37,455.581z"/>
			<path style="fill:#BFE2DE;" d="M653.409,455.206c-0.86,0.047-1.752,0.078-2.691,0.125c-3.801-7.571-7.462-15.221-11.701-22.495
				c-4.38-7.493-9.229-14.689-14.236-21.775c-4.849-6.883-10.277-13.422-14.783-20.508c-0.297-0.469,0.391-1.001,0.751-0.594
				c5.694,6.257,10.638,13.344,15.612,20.18c4.974,6.805,9.683,13.829,13.985,21.071
				C644.992,439.031,649.216,447.103,653.409,455.206z"/>
			<path style="fill:#BFE2DE;" d="M661.089,454.752c-0.86,0.063-1.705,0.125-2.565,0.172c-1.267-11.67-2.174-23.402-3.441-34.978
				c-2.018-18.49-4.474-36.996-5.788-55.549c-0.047-0.704,0.97-0.735,1.064-0.063c2.878,18.381,4.568,36.996,6.601,55.486
				C658.227,431.413,659.869,443.082,661.089,454.752z"/>
			<path style="fill:#BFE2DE;" d="M692.829,380.244c-2.644,7.133-6.242,13.954-9.167,20.977c-2.863,6.852-5.553,13.766-8.025,20.774
				c-3.754,10.638-7.024,21.462-9.777,32.413c-0.735,0.063-1.486,0.125-2.221,0.172c2.862-11.435,6.273-22.714,10.262-33.821
				c2.456-6.836,5.115-13.609,8.009-20.273c3.019-6.93,6.007-14.22,10.121-20.587C692.282,379.508,693.002,379.759,692.829,380.244z
				"/>
			<path style="fill:#BFE2DE;" d="M715.043,417.725c-11.107,11.451-22.495,22.417-32.601,34.446
				c-1.189,0.234-2.393,0.454-3.582,0.641c10.606-13.093,23.168-24.81,35.729-35.526
				C714.902,417.036,715.324,417.443,715.043,417.725z"/>
		</g>
	</g>
	<g>
		<g>
			<path style="fill:#E5867F;" d="M281.564,88.139c0,5.769-7.491,18.245-11.728,24.841c-1.329,2.068-4.343,2.068-5.672,0
				c-4.237-6.596-11.728-19.072-11.728-24.841c0-8.044,6.521-14.564,14.564-14.564C275.043,73.575,281.564,80.096,281.564,88.139z"
				/>
			<circle style="fill:#FFFFFF;" cx="266.999" cy="89.11" r="8.739"/>
		</g>
		<g>
			<path style="fill:#F2998F;" d="M220.687,385.945c0,5.769-7.491,18.245-11.728,24.841c-1.329,2.068-4.343,2.068-5.672,0
				c-4.237-6.596-11.728-19.072-11.728-24.841c0-8.044,6.521-14.564,14.564-14.564C214.167,371.381,220.687,377.901,220.687,385.945
				z"/>
			
				<ellipse transform="matrix(0.9247 -0.3807 0.3807 0.9247 -131.7633 107.589)" style="fill:#FFFFFF;" cx="206.123" cy="386.916" rx="8.739" ry="8.739"/>
		</g>
		<g>
			<path style="fill:#F2998F;" d="M121.96,345.967c0,3.565-4.63,11.277-7.249,15.353c-0.821,1.278-2.684,1.278-3.506,0
				c-2.619-4.077-7.249-11.788-7.249-15.353c0-4.971,4.03-9.002,9.002-9.002C117.93,336.966,121.96,340.996,121.96,345.967z"/>
			<path style="fill:#FFFFFF;" d="M118.359,346.568c0,2.983-2.418,5.401-5.401,5.401c-2.983,0-5.401-2.418-5.401-5.401
				c0-2.983,2.418-5.401,5.401-5.401C115.941,341.167,118.359,343.585,118.359,346.568z"/>
		</g>
		<g>
			<path style="fill:#E5867F;" d="M581.96,383.967c0,3.565-4.63,11.277-7.249,15.353c-0.821,1.278-2.684,1.278-3.506,0
				c-2.619-4.077-7.249-11.788-7.249-15.353c0-4.971,4.03-9.002,9.002-9.002S581.96,378.996,581.96,383.967z"/>
			<path style="fill:#FFFFFF;" d="M578.359,384.568c0,2.983-2.418,5.401-5.401,5.401s-5.401-2.418-5.401-5.401
				c0-2.983,2.418-5.401,5.401-5.401S578.359,381.585,578.359,384.568z"/>
		</g>
		<g>
			<path style="fill:#F2998F;" d="M537.273,199.348c0,2.788-3.621,8.819-5.669,12.007c-0.642,1-2.099,1-2.741,0
				c-2.048-3.188-5.669-9.218-5.669-12.007c0-3.888,3.152-7.039,7.039-7.039C534.122,192.309,537.273,195.46,537.273,199.348z"/>
			<path style="fill:#FFFFFF;" d="M534.458,199.818c0,2.333-1.891,4.224-4.224,4.224c-2.333,0-4.224-1.891-4.224-4.224
				s1.891-4.224,4.224-4.224C532.567,195.594,534.458,197.485,534.458,199.818z"/>
		</g>
	</g>
	<g>
		<g>
			<path style="fill:#F2998F;" d="M338.712,186.325c-0.293-3.873-0.454-7.979-1.075-11.876l0,0l23.04-20.305
				c-3.093-12.734-12.091-10.669-12.091-10.669c-29.667,7.138-36.468,18.751-37.519,20.965c-0.055,0.07-0.11,0.138-0.165,0.209
				c-2.952,3.814-4.122,8.98-4.362,14.172c-0.414,8.983,0.784,17.943,0.711,26.922c-0.059,7.177-0.647,14.232-0.957,21.39
				c-0.295,6.81-0.386,13.989,3.09,19.556c4.138,6.626,12.288,7.02,18.655,7.09c2.736,0.03,5.791-0.889,7.954-3.094
				c2.507-2.555,3.334-7.79,3.706-11.55c0.858-8.682,0.227-18.045-0.041-26.749C339.39,203.685,339.369,195.01,338.712,186.325z"/>
			<g>
				<path style="fill:#E5867F;" d="M307.444,212.822c0,0-1.417,11.165-1.427,21.968c-0.003,2.909,1.835,5.364,4.287,5.715
					c3.738,0.535,9.566,1.223,15.735,1.392c3.385,0.093,6.27-2.853,6.694-6.808c0.482-4.485,0.836-11.838,0.582-23.817
					L307.444,212.822z"/>
				<path style="fill:#FFFFFF;" d="M309.528,207.584c3.091,0.264,12.579,0.925,22.752,0.153c1.538-0.117,2.693,1.697,2.216,3.491
					c-0.961,3.617-3.478,8.523-10.053,8.305c0,0-8.559,0.319-17.441-0.884c-0.889-0.12-1.645-0.877-1.874-1.935
					c-0.346-1.599-0.156-4.298,2.594-8.209C308.172,207.867,308.841,207.525,309.528,207.584z"/>
			</g>
		</g>
		<path style="fill:#BFE2DE;" d="M445.261,166.712c-8.7,6.206-20.361,12.217-29.526,18.075c-1.326,0.847-2.865,1.903-4.311,1.284
			c-0.964-0.412-1.516-1.411-1.996-2.342c-5.881-11.388-11.656-24.01-19.941-33.944c-1.088,1.39-2.772,2.307-4.626,2.342
			c-2.705,0.051-4.804,0.415-7.059,1.75c-1.461,0.866-2.231,2.173-2.672,3.631c-0.156,0.516-0.284,1.04-0.395,1.567
			c-0.029,0.14-0.179,1.061-0.238,1.388c-0.03,0.354-0.124,1.277-0.136,1.42c-0.046,0.564-0.084,1.129-0.124,1.694
			c-0.117,1.668-0.248,3.337-0.449,4.997c3.928,10.93,8.775,21.595,15.892,30.737c3.681,4.729,8.271,9.2,14.104,10.577
			c10.836,2.559,23.872-5.093,32.417-10.979c4.519-3.113,8.756-6.682,12.707-10.581c2.29-2.26,5.192-5.236,7.294-7.703
			C457.19,179.465,446.629,165.736,445.261,166.712z"/>
		<g>
			<path style="fill:#FFBDBB;" d="M393.695,360.785c0,0,3.122,25.771,0.758,35.186l16.077-2.175l3.038-31.334
				C413.567,362.462,404.692,356.023,393.695,360.785z"/>
			<g>
				<path style="fill:#E5867F;" d="M438.947,422.203c-3.657,1.179-12.874,3.047-24.428-2.706c-0.239-0.124-0.488-0.218-0.755-0.284
					c-2.013-0.517-11.204-2.814-16.402-3.082c0,0-4.653-0.968-8.223-2.536c-1.037-0.456-1.633-1.555-1.464-2.672
					c0.129-0.902,0.337-2.083,0.639-3.393c0.735-3.224,2.063-7.26,4.342-10.043c0,0,0.538-2.423,1.444-3.979
					c0.281-0.475,0.894-0.623,1.372-0.349c1.272,0.741,4.116,1.917,8.172,0.841l6.746-1.844c0.702-0.186,1.376,0.385,1.297,1.116
					l-0.145,1.297l14.921,16.172l10.876,2.924c0.55,0.148,1.013,0.512,1.287,1.011c0.336,0.611,0.802,1.528,1.203,2.574
					c0.29,0.746,0.544,1.549,0.696,2.35C440.742,420.738,440.056,421.849,438.947,422.203z"/>
				<path style="fill:#FFFFFF;" d="M438.947,422.203c-3.657,1.179-12.874,3.047-24.428-2.706c-0.239-0.124-0.488-0.218-0.755-0.284
					c-2.013-0.517-11.204-2.814-16.402-3.082c0,0-4.653-0.968-8.223-2.536c-1.037-0.456-1.633-1.555-1.464-2.672
					c0.129-0.902,0.337-2.083,0.639-3.393c1.164,2.502,5.338,3.775,7.536,4.448c4.685,1.447,9.576,1.219,14.278,2.492
					c4.091,1.117,7.911,3.001,12.041,4.028c4.662,1.167,9.916,1.845,14.572,0.284c0.153-0.05,1.974-0.867,3.089-1.535
					c0.29,0.746,0.544,1.549,0.696,2.35C440.742,420.738,440.056,421.849,438.947,422.203z"/>
				<g>
					<path style="fill:#FFFFFF;" d="M414.928,397.76c-1.134,0.602-2.356,1.045-3.587,1.406c-1.073,0.315-2.371,0.424-3.342,0.982
						c-0.462,0.266-0.483,1.006,0.075,1.185c1.194,0.383,2.666-0.013,3.826-0.381c1.338-0.425,2.518-1.069,3.705-1.812
						C416.426,398.626,415.819,397.287,414.928,397.76z"/>
					<path style="fill:#FFFFFF;" d="M417.961,401.352c-1.134,0.602-2.356,1.044-3.587,1.406c-1.073,0.315-2.371,0.424-3.342,0.982
						c-0.462,0.266-0.483,1.006,0.075,1.185c1.194,0.383,2.666-0.013,3.826-0.381c1.338-0.425,2.518-1.069,3.705-1.812
						C419.459,402.218,418.852,400.878,417.961,401.352z"/>
					<path style="fill:#FFFFFF;" d="M421.062,404.614c-0.95,0.634-1.997,1.137-3.061,1.571c-0.928,0.378-2.081,0.599-2.89,1.178
						c-0.385,0.276-0.319,0.921,0.203,1.023c1.116,0.217,2.393-0.27,3.393-0.703c1.153-0.499,2.139-1.174,3.121-1.935
						C422.507,405.222,421.808,404.117,421.062,404.614z"/>
				</g>
			</g>
			<g>
				<path style="fill:#FFBDBB;" d="M352.218,360.825c0,0,1.787,25.898-1.061,35.178l16.168-1.341l4.652-31.135
					C371.977,363.527,363.447,356.638,352.218,360.825z"/>
				<g>
					<path style="fill:#E5867F;" d="M394.236,424.5c-3.713,0.988-13.014,2.378-24.255-3.964c-0.232-0.136-0.476-0.243-0.739-0.322
						c-1.983-0.621-11.043-3.389-16.221-3.925c0,0-4.597-1.207-8.081-2.958c-1.012-0.509-1.55-1.637-1.324-2.745
						c0.176-0.894,0.444-2.063,0.814-3.356c0.901-3.182,2.435-7.144,4.855-9.805c0,0,0.663-2.392,1.648-3.899
						c0.305-0.46,0.925-0.576,1.388-0.278c1.232,0.806,4.011,2.127,8.118,1.262l6.833-1.493c0.711-0.149,1.355,0.456,1.238,1.181
						l-0.212,1.287l14.065,16.921l10.71,3.482c0.542,0.176,0.985,0.564,1.233,1.076c0.304,0.628,0.722,1.567,1.068,2.633
						c0.251,0.76,0.464,1.575,0.574,2.383C396.105,423.129,395.362,424.204,394.236,424.5z"/>
					<path style="fill:#FFFFFF;" d="M394.236,424.5c-3.713,0.988-13.014,2.378-24.255-3.964c-0.232-0.136-0.476-0.243-0.739-0.322
						c-1.983-0.621-11.043-3.389-16.221-3.925c0,0-4.597-1.207-8.081-2.958c-1.012-0.509-1.55-1.637-1.324-2.745
						c0.176-0.894,0.444-2.063,0.814-3.356c1.034,2.559,5.136,4.045,7.296,4.832c4.604,1.687,9.501,1.712,14.13,3.227
						c4.028,1.326,7.746,3.406,11.817,4.645c4.595,1.406,9.807,2.355,14.538,1.037c0.156-0.042,2.017-0.764,3.164-1.373
						c0.251,0.76,0.464,1.575,0.574,2.383C396.105,423.129,395.362,424.204,394.236,424.5z"/>
					<g>
						<path style="fill:#FFFFFF;" d="M371.513,398.848c-1.164,0.543-2.407,0.921-3.655,1.219c-1.088,0.259-2.39,0.301-3.388,0.807
							c-0.475,0.241-0.534,0.979,0.014,1.187c1.173,0.444,2.663,0.125,3.841-0.183c1.358-0.355,2.57-0.938,3.794-1.618
							C372.964,399.791,372.426,398.422,371.513,398.848z"/>
						<path style="fill:#FFFFFF;" d="M374.355,402.592c-1.164,0.543-2.407,0.921-3.655,1.219c-1.088,0.259-2.39,0.301-3.388,0.807
							c-0.476,0.241-0.534,0.979,0.014,1.187c1.173,0.444,2.663,0.125,3.841-0.183c1.358-0.355,2.57-0.938,3.793-1.618
							C375.807,403.534,375.269,402.165,374.355,402.592z"/>
						<path style="fill:#FFFFFF;" d="M377.284,406.011c-0.981,0.584-2.053,1.032-3.138,1.411c-0.946,0.33-2.109,0.491-2.947,1.027
							c-0.399,0.256-0.366,0.904,0.15,1.032c1.103,0.274,2.404-0.146,3.425-0.527c1.178-0.439,2.197-1.062,3.216-1.771
							C378.695,406.692,378.055,405.552,377.284,406.011z"/>
					</g>
				</g>
			</g>
			<path style="fill:#02625E;" d="M398.487,228.263c0,0,23.683,76.867,14.958,148.749c0,0-20.359,1.662-22.852,0
				c0,0-0.831-91.825-12.049-109.692l-4.57,0.415l5.401,59.832c0,0-0.831,36.564-9.556,51.522l-19.944-5.402l4.155-44.874
				l-12.88-56.923c0,0-11.219-23.268-2.493-40.719L398.487,228.263z"/>
			<path style="fill:#59B7B7;" d="M390.444,373.529c3.685-0.35,13.538-1.083,23.299-0.051c1.13,0.119,2.044,0.991,2.193,2.117
				c0.211,1.6,0.264,4.105-0.627,7.121c-0.311,1.053-1.26,1.789-2.357,1.803c-4.191,0.05-15.043,0.059-22.447-1.02
				c-0.978-0.142-1.753-0.888-1.934-1.86c-0.296-1.588-0.599-4.096-0.147-6.32C388.621,374.343,389.452,373.624,390.444,373.529z"/>
			<path style="fill:#59B7B7;" d="M348.669,372.688c3.688-0.393,13.554-1.241,23.347-0.322c1.133,0.106,2.06,0.967,2.222,2.091
				c0.231,1.597,0.313,4.101-0.546,7.128c-0.299,1.057-1.241,1.804-2.341,1.83c-4.2,0.099-15.074,0.234-22.506-0.758
				c-0.982-0.131-1.767-0.867-1.96-1.837c-0.315-1.584-0.648-4.089-0.221-6.318C346.851,373.523,347.676,372.794,348.669,372.688z"
				/>
		</g>
		<path style="fill:#D3EFEB;" d="M401.396,234.911c-35.733,9.141-63.987,2.909-63.987,2.909c-1.812-1.691-2.148-4.749-1.716-8.235
			c1.055-8.518,6.702-19.603,6.702-19.603l-0.283-2.256l-5.684-45.489l-0.682-5.439l6.993-3.095l6.922-3.066l15.17-6.718
			c6.029-0.835,11.518,0.112,15.752,1.417c0.316,0.096,0.623,0.195,0.922,0.295c4.708,1.57,7.633,3.482,7.633,3.482
			c4.986,5.817,7.895,24.514,7.895,24.514l1.687,20.754l2.468,30.352C405.343,233.041,401.396,234.911,401.396,234.911z"/>
		<path style="fill:#59B7B7;" d="M363.17,193.361c0,0-0.395,30.888-27.477,36.223c1.055-8.518,6.702-19.603,6.702-19.603
			l-0.283-2.256c8.763-6.444,17.21-19.645-2.626-43.449l-3.058-2.04l-4.421-2.946c0,0-1.359-1.022,6.997-5.834
			c1.01-0.582,2.397-0.32,3.735,0.245c1.126,0.469,2.21,1.159,2.996,1.745C352.059,160.146,365.443,171.613,363.17,193.361z"/>
		<path style="fill:#FFBDBB;" d="M379.831,165.913c-0.814,2.077-2.975,3.324-5.173,2.946c-13.703-2.377-21.884-13.209-24.996-18.224
			l15.17-6.718c6.478-0.898,12.332,0.262,16.674,1.712C382.848,155.629,381.252,162.281,379.831,165.913z"/>
		<path style="fill:#59B7B7;" d="M384.36,146.444c-0.411,0.057,9.556,20.324,14.543,47.747c0,0,0-39.25-7.895-44.915
			C391.008,149.277,387.269,146.04,384.36,146.444z"/>
		<g>
			<g>
				<path style="fill:#FFFFFF;" d="M410.537,145.994c0,0,54.43-5.817,70.635-18.282c0,0,0.831,51.522-3.324,81.022
					c0,0-24.514,12.88-72.297,15.374L410.537,145.994z"/>
				<path style="fill:#BFE2DE;" d="M414.692,149.318c0,0-2.493,56.508-3.74,69.804c0,0,45.289-2.908,63.571-14.127
					c0,0,4.57-45.289,2.909-69.388C477.432,135.606,454.58,147.24,414.692,149.318z"/>
			</g>
			<path style="fill:#FFBDBB;" d="M400.909,210.915c0.98,0,1.902-0.054,2.852-0.158c5.377-0.588,10.968-3.023,15.712-5.506
				c0.559-0.292,5.542-2.808,2.777-3.406c-1.76-0.381-3.451,0.382-5.168,0.548c1.322-1.257,3.362-1.991,4.853-3.126
				c0.747-0.568,3.476-2.399,3.351-3.463c-0.251-2.148-8.492,2.642-9.446,2.97c2.006-1.409,4.177-2.916,5.98-4.587
				c0.656-0.608,3.33-3.219,2.363-4.294c-0.854-0.95-3.929,1.591-4.592,2.096c-1.137,0.865-2.328,1.635-3.461,2.509
				c-0.674,0.52-1.353,1.176-2.18,1.417c1.538-1.998,3.537-3.623,4.891-5.805c0.344-0.554,2.104-3.683,0.371-3.813
				c-0.543-0.041-1.359,0.877-1.751,1.187c-0.872,0.687-1.806,1.296-2.681,1.984c-1.32,1.038-6.144,3.849-6.771,4.562
				c-0.18-1.96,0.406-4.133-0.091-6.051c-1.681,1.44-3.559,2.648-5.225,4.118c-1.508,1.331-6.388,6.67-6.519,7.692
				c0.079-0.063-0.022-0.042,0.061-0.074c0.74,2.984,1.871,5.611,3.131,8.404C399.759,208.988,400.276,210.219,400.909,210.915z"/>
			<path style="fill:#BFE2DE;" d="M340.162,157.305c-2.159-0.841-4.665-0.784-6.77,0.192c-3.078,1.427-5.067,4.599-5.871,7.895
				c-0.804,3.297-0.585,6.747-0.302,10.128c1.098,13.108,3.15,26.327,8.51,38.339c2.442,5.473,5.828,10.912,11.162,13.646
				c9.909,5.079,24.397,0.77,34.103-2.9c5.133-1.941,10.101-4.391,14.871-7.232c2.765-1.647,6.294-3.842,8.925-5.733
				c1.238-0.89-5.73-16.748-7.292-16.128c-9.933,3.943-22.694,6.988-32.995,10.481c-1.49,0.505-3.237,1.162-4.493,0.215
				c-0.837-0.631-1.133-1.733-1.378-2.752c-3.101-12.951-5.761-27.175-11.904-39.089c-1.359-2.637-3.069-5.268-5.688-6.661
				C340.756,157.556,340.462,157.422,340.162,157.305z"/>
			<path style="fill:#FFBDBB;" d="M480.064,169.123c2.418-0.269,2.714,2.752,1.43,4.131c1.421,0.294,0.81,2.803,0.146,3.524
				c1.868,1.264,0.76,3.379-0.723,4.29c0.595,0.647,0.749,2.472,0.74,3.353c-0.012,1.281-0.461,1.898-1.807,2.221
				c-1.732,0.416-13.418-0.367-11.939-2.804c0.752-1.238,5.142-1.114,6.407-1.282c-1.1-0.376-7.69-1.704-6.377-4.09
				c0.814-1.48,5.307-0.13,6.68-0.203c-1.587,0.059-7.197-2.299-6.341-4.79c0.556-1.616,5.951-0.634,7.112-0.328
				c-1.353-0.557-7.317-4.351-2.318-4.305C475.688,168.865,478.272,169.147,480.064,169.123z"/>
		</g>
		<g>
			<path style="fill:#06443F;" d="M340.317,93.359c-3.091,3.8-8.167,4.178-9.139,9.974c-0.674,4.018,0.85,8.628,2.316,12.224
				c4.59,11.26,18.069,21.897,29.612,20.802c0.84-12.473-4.239-28.464-9.835-39.37C350.781,92.139,346.949,90.076,340.317,93.359z"
				/>
			<g>
				<path style="fill:#FFBDBB;" d="M376.186,128.334l-1.152,19.564l-0.742,12.638c-13.575-2.526-17.364-9.787-17.364-9.787
					s0.849-6.109,1.711-12.357c0.875-6.377,1.762-12.896,1.762-13.215L376.186,128.334z"/>
				<path style="fill:#F99595;" d="M376.186,128.334l-1.152,19.564c-3.141-0.505-6.412-1.699-8.587-3.119
					c-2.642-1.727-5.736-3.899-7.75-6.317c-0.019-0.022-0.038-0.044-0.057-0.07c0.875-6.377,1.762-12.896,1.762-13.215
					L376.186,128.334z"/>
			</g>
			<g>
				<path style="fill:#FFBDBB;" d="M384.314,91.625l5.3,26.5c0.105,0.525,0.147,1.061,0.118,1.595
					c-0.13,2.437-0.841,9.601-4.712,15.39c-2.25,3.365-6.268,5.121-10.278,4.562c-6.036-0.841-15.593-3.609-21.364-12.538
					c-0.16-0.248-0.283-0.521-0.369-0.804l-7.527-24.689c-0.161-0.528-0.184-1.086-0.065-1.625
					c1.155-5.268,8.693-32.45,37.681-10.327C383.724,90.166,384.16,90.853,384.314,91.625z"/>
				<path style="fill:#FFBDBB;" d="M353.929,120.126c-1.449-1.2-2.012-3.132-3.807-4.154c-1.676-0.954-4.733-1.527-6.402-0.268
					c-3.277,2.473-0.311,7.587,1.926,9.501c1.751,1.499,8.65,6.545,10.227,2.549C357.028,124.829,354.3,122.627,353.929,120.126z"/>
			</g>
			<path style="fill:#06443F;" d="M338.655,102.64c2.721-1.2,6.848,2.16,9.684,3.077c4.117,1.332,10.952,2.817,15.263,1.597
				c6.074-1.72,2.848-6.012-1.025-8.406c3.179,1.383,9.329,4.397,13.017,2.775c2.849-1.253,3.641-4.374,0.488-6.592
				c3.346,0.579,7.864,2.482,11.393,1.111c6.339-2.463,0.608-5.487-3-6.827c4.55,0.025,16.307-7.584,8.401-10.591
				c-4.266-1.622-10.68,0.883-15.165,0.953c-4.604,0.072-9.251-0.414-13.88-0.914c-3.861-0.416-8.492-1.345-12.389-0.446
				c-5.09,1.175-10.288,6.258-14.518,9.444C329.818,93.176,328.329,101.139,338.655,102.64z"/>
			<path style="fill:#06443F;" d="M360.174,112.469c-0.011-0.282,0.299-0.763,0.491-0.907c1.305-0.98,3.555-0.753,4.687,0.399
				c1.189,1.209,1.4,3.156,1.312,4.768c-0.054,0.987-0.874,1.807-1.882,1.779c-1.036-0.028-1.751-0.89-1.779-1.882
				c-0.031-1.11-0.14-1.985-0.151-3.058c0-0.01,0.003-0.019,0.004-0.029c-0.023-0.489,0.027-0.951,0.203-1.286
				c-0.08-0.008-0.16-0.016-0.237-0.019c-0.758-0.032-1.498,0.253-2.226,0.423C360.293,112.728,360.181,112.631,360.174,112.469z"/>
			<path style="fill:#06443F;" d="M378.141,108.599c-0.011-0.282,0.299-0.763,0.491-0.907c1.305-0.98,3.555-0.753,4.687,0.398
				c1.189,1.209,1.4,3.156,1.312,4.768c-0.054,0.987-0.874,1.807-1.882,1.779c-1.036-0.028-1.751-0.89-1.779-1.882
				c-0.031-1.11-0.14-1.985-0.152-3.058c0-0.01,0.003-0.019,0.003-0.029c-0.023-0.489,0.027-0.951,0.203-1.286
				c-0.08-0.008-0.16-0.016-0.237-0.019c-0.758-0.032-1.498,0.253-2.226,0.423C378.26,108.858,378.147,108.761,378.141,108.599z"/>
			<path style="fill:#F99595;" d="M378.12,115.95c-0.325-0.98-1.341-1.351-2.063-1.972c-1.232-1.06-1.67-2.554-2.395-3.937
				c-0.237-0.452-0.822-0.111-0.759,0.32c0.213,1.464,0.916,3.007,1.932,4.093c0.462,0.493,1.151,0.787,1.586,1.281
				c1.403,1.597-1.34,2.348-2.245,2.907c-0.499,0.308-0.181,1.128,0.405,0.961C376.136,119.162,378.819,118.062,378.12,115.95z"/>
			<path style="fill:#FFFFFF;" d="M369.818,123.349c0,0,9.265-0.831,13.512-4.57c0,0,1.158,8.31-4.246,9.972
				C379.083,128.751,373.292,129.166,369.818,123.349z"/>
			<path style="fill:#F99595;" d="M351.319,121.962c-0.994-1.022-2.272-1.494-3.626-1.854c-0.905-0.241-2.423-0.68-3.026,0.304
				c-0.068,0.112-0.006,0.281,0.126,0.31c0.435,0.095,0.492-0.006,0.99-0.025c0.615-0.023,1.252,0.212,1.832,0.39
				c0.711,0.219,1.394,0.453,2.011,0.816c-1.007,0.189-1.932,0.665-2.671,1.437c-0.463,0.483,0.253,1.201,0.734,0.735
				c0.932-0.903,1.973-1.33,3.274-1.257C351.411,122.84,351.607,122.258,351.319,121.962z"/>
			<path style="fill:#06443F;" d="M383.739,103.055c-2.573-0.284-5.777,0.394-7.673,2.238c-0.331,0.322,0.106,0.922,0.504,0.653
				c2.328-1.579,4.604-1.646,7.288-2.017C384.394,103.854,384.192,103.105,383.739,103.055z"/>
			<path style="fill:#06443F;" d="M357.434,109.869c2.162-1.422,5.325-2.274,7.853-1.493c0.441,0.136,0.325,0.87-0.152,0.81
				c-2.791-0.349-4.849,0.626-7.409,1.515C357.214,110.879,357.054,110.12,357.434,109.869z"/>
		</g>
	</g>
</g>
</svg>
