<?xml version="1.0" encoding="utf-8"?>
<!-- Generator: Adobe Illustrator 27.5.0, SVG Export Plug-In . SVG Version: 6.00 Build 0)  -->
<svg version="1.1" xmlns="http://www.w3.org/2000/svg" xmlns:xlink="http://www.w3.org/1999/xlink" x="0px" y="0px"
	 viewBox="0 0 1000 800" width='500' height='500' style="enable-background:new 0 0 1000 800;" xml:space="preserve">

<g id="shadow">
	<g>
		<path style="fill:#F1F2F2;" d="M464.274,654.035c-27.202,0.089-54.404,0.807-81.557,4.126
			c-10.238,1.251-20.262,4.003-30.523,5.114c-20.497,2.217-40.627,6.354-61.197,8.262c-16.564,1.536-33.199,2.443-49.715,4.393
			c-15.485,1.828-32.628,1.406-47.994-1.614c-11.375-2.235-22.803-3.494-33.988-7.085c-12.512-4.017-26.104-6.888-39.14-6.785
			c-18.589,0.147-36.692,0.165-54.481,7.257c-6.245,2.49-13.889,6.582-18.632,11.807c-10.856,11.961-12.325,41.804-1.486,54.209
			c18.256,20.878,57.608,20.865,83.198,21.252c28.041,0.424,55.918-3.909,84.001-5.254c26.095-1.25,56.037-4.266,82.174-4.203
			c53.384,0.128,101.84,11.488,155.128,7.57c50.065-3.681,100.256-2.417,150.43-2.417c51.452,0,106.278-9.513,157.359-2
			c22.257,3.274,47.024,1.91,69.392,4.203c20.033,2.054,43.96-1.254,63.914-3.152c16.754-1.594,28.606-5.668,43.826-13.66
			c12.049-6.327,27.83-12.955,31.525-28.056c10.359-42.337-145.983-41.319-169.988-41.224c-26.854,0.107-53.92,1.077-80.752-0.048
			c-11.287-0.473-22.408-2.897-33.424-5.553c-10.972-2.646-22.027-1.973-33.155-3.085c-46.402-4.637-92.907-3.959-139.456-3.959
			C494.585,654.131,479.43,653.986,464.274,654.035z"/>
	</g>
</g>
<g id="object">
	<g>
		<g>
			<g>
				<g>
					<g>
						<polygon style="fill:#EFBFA5;" points="762.723,212.75 764.891,198.748 770.876,199.508 771.5,209.458 774.477,208.494 
							771.172,220.227 764.857,220.284 						"/>
					</g>
				</g>
				<g>
					<g>
						<path style="fill:#7FC5A3;" d="M832.802,327.909c0.276-1.095,0.399-2.302,0.344-3.617c-0.228-5.454-3.043-10.573-6.756-14.592
							c-5.879-6.364-13.798-10.921-20.356-16.578c-7.501-6.471-15.002-12.942-22.503-19.413l-9.914-57.056l-12.516,0.759
							l-1.179,71.142c10.374,8.106,20.542,15.987,30.335,24.683c8.779,7.795,16.632,17.997,28.305,21.372
							C825.152,336.513,831.285,333.924,832.802,327.909z"/>
					</g>
				</g>
			</g>
			<g>
				<g>
					<g>
						<g>
							<polygon style="fill:#3B455A;" points="868.703,469.899 873.561,503.326 863.812,691.858 847.458,688.428 820.328,474.097 
															"/>
						</g>
					</g>
					<g>
						<g>
							<polygon style="fill:#3B455A;" points="788.37,463.621 785.211,588.607 816.956,696.497 835.459,689.616 819.875,593.4 
								834.184,462.554 							"/>
						</g>
					</g>
					<g>
						<g>
							<path style="fill:#3B455A;" d="M835.523,679.512l-22.152,10.153l7.436,15.49l-11.618,7.319c0,0-1.095,6.449,2.807,9.172
								c3.902,2.723,29.176-18.507,29.176-18.507L835.523,679.512z"/>
						</g>
					</g>
					<g>
						<g>
							<path style="fill:#3B455A;" d="M868.703,683.176l-24.028,4.057l3.162,16.889l-13.119,4.054c0,0-2.731,5.944,0.331,9.586
								c3.062,3.642,32.979-10.302,32.979-10.302L868.703,683.176z"/>
						</g>
					</g>
				</g>
				<g>
					<g>
						<path style="fill:#3B455A;" d="M821.997,259.793c1.713,5.562,4.17,10.894,7.285,15.81c0.073-10.213,1.558-20.414,4.398-30.224
							c0.217-0.748,0.431-1.596,0.038-2.269c-0.367-0.629-1.136-0.879-1.844-1.049C819.242,239.009,819.011,250.098,821.997,259.793
							z"/>
					</g>
				</g>
				<g>
					<g>
						<g>
							<path style="fill:#EFBFA5;" d="M828.93,275.801c1.317,4.201,3.502,8.954,7.859,11.516c5.132,3.017,10.619,1.477,14.449-0.841
								c12.65-7.653,34.578-49.857,1.603-60.22C822.898,216.847,823.464,258.363,828.93,275.801z"/>
						</g>
					</g>
					<g>
						<g>
							<path style="fill:#3B455A;" d="M854.985,275.983c1.969,2.915,6.45,2.252,9.63,0.748c13.063-6.176,21.037-21.61,18.516-35.837
								c-2.109-11.905-16.828-21.15-20.202-6.545c-1.196,5.178,1.799,12.466,0.934,18.222
								C862.626,260.796,858.589,268.594,854.985,275.983z"/>
						</g>
					</g>
					<g>
						<g>
							<path style="fill:#3B455A;" d="M822.784,211.058c-15.016,8.306-21.729,26.594-35.461,36.883
								c12.339,5.658,27.002,6.022,39.606,0.982c12.362-4.943,41.676-7.938,37.843-25.068
								C860.871,206.42,835.941,203.78,822.784,211.058z"/>
						</g>
					</g>
				</g>
				<g>
					<g>
						<path style="fill:#7FC5A3;" d="M881.033,318.946c8.597,14.926,8.558,31.827,7.371,47.995
							c-2.688,36.601,0.798,79.038-11.82,114.026c-23.82-0.021-69.486-10.945-93.21-13.384c-4.623-31.82-1.93-50.424,0.678-86.456
							c1.286-17.766,4.043-41.602,10.332-58.526c5.148-13.856,18.873-31.749,39.59-31.18
							C853.387,291.956,873.215,305.373,881.033,318.946z"/>
					</g>
				</g>
				<g>
					<path style="fill:#EFBFA5;" d="M842.234,298.81c-2.17,0.918-4.828,0.534-7.402-1.958c-2.215-2.144-1.532-2.844-1.062-6.003
						c0.693-4.656,1.932-9.29,2.891-13.903l12.826,2.667c0,0-2.578,12.489-2.774,13.341
						C846.087,295.671,844.404,297.892,842.234,298.81z"/>
				</g>
			</g>
			<g>
				<g>
					<g>
						<polygon style="fill:#EFBFA5;" points="905.773,456.944 891.569,464.746 888.082,458.792 896.666,451.285 893.715,449.259 
							906.656,444.071 911.112,449.755 						"/>
					</g>
				</g>
				<g>
					<g>
						<path style="fill:#7FC5A3;" d="M872.963,313.747c-0.638,1.122-1.141,2.417-1.482,3.883
							c-1.411,6.082,0.133,12.583,3.001,18.145c4.542,8.807,11.883,16.244,17.388,24.479c6.297,9.419,12.595,18.839,18.892,28.259
							l-10.417,53.692l13.726,11.602l24.415-78.278c-8.966-12.097-14.947-20.07-23.093-32.641
							c-7.302-11.269-12.852-24.908-24.691-32.185C884.018,306.593,876.467,307.579,872.963,313.747z"/>
					</g>
				</g>
			</g>
		</g>
		<g>
			<g id="XMLID_186_">
				<g id="XMLID_188_">
					<g>
						<polygon style="fill:#3B455A;" points="418.972,708.244 417.401,716.32 400.474,721.746 394.366,712.344 403.615,705.592 
							420.542,700.167 						"/>
					</g>
				</g>
				<g id="XMLID_187_">
					<g>
						<polygon style="fill:#3B455A;" points="455.326,506.986 420.282,705.78 404.427,706.354 395.011,568.131 390.559,499.474 
													"/>
					</g>
				</g>
			</g>
			<g id="XMLID_183_">
				<g id="XMLID_185_">
					<g>
						<polygon style="fill:#3B455A;" points="503.275,504.873 480.751,699.73 466.214,701.013 450.834,551.7 438.634,507.681 						
							"/>
					</g>
				</g>
				<g id="XMLID_184_">
					<g>
						<polygon style="fill:#3B455A;" points="466.14,699.161 466.855,707.542 483.291,714.534 490.436,705.46 481.86,697.774 						
							"/>
					</g>
				</g>
			</g>
			<g>
				<g>
					<polygon style="fill:#42495B;" points="394.366,510.569 387.196,487.614 394.366,461.568 503.275,465.359 503.275,504.873 
											"/>
				</g>
			</g>
		</g>
		<g>
			<g>
				<g>
					<polygon style="fill:#EFBFA5;" points="295.502,307.056 293.366,316.792 276.871,315.136 273.168,305.412 278.618,298.305 
						284.626,303.429 285.027,301.603 283.57,299.376 285.828,297.953 					"/>
				</g>
			</g>
			<g>
				<g>
					<g>
						<polygon style="fill:#486362;" points="416.84,281.869 354.743,311.44 293.61,302.629 289.685,317.353 360.353,340.068 
							451.712,309.63 						"/>
					</g>
				</g>
			</g>
		</g>
		<g>
			<g>
				<g>
					<g>
						<path style="fill:#EFBFA5;" d="M452.391,224.143c-11.01,6.873-26.57,2.94-36.628,11.235c-6.54,5.393-8.964,15.039-7.415,23.66
							c0.722,4.018,2.276,7.995,5.049,10.91c1.8,1.892,4.046,3.269,6.395,4.307c3.14,1.388,6.501,2.145,9.887,2.305
							c-0.239,3.101-0.754,6.18-1.538,9.186c6.323-0.719,12.646-1.438,18.97-2.158c-0.401-3.698-0.803-7.395-1.204-11.093
							c1.542-0.924,3.007-1.985,4.349-3.209c8.114-7.4,11.641-19.831,8.729-30.77C457.62,233.392,455.009,228.724,452.391,224.143z"
							/>
					</g>
				</g>
			</g>
			<g>
				<g>
					<path style="fill:#3B455A;" d="M423.49,233.267c0.455-0.168,0.912-0.326,1.369-0.475c6.63-2.158,13.734-2.798,20.661-2.001
						c4.744,0.545,10.064,2.351,11.7,7.372c0.739,2.269,0.718,4.706,0.69,7.092c-0.035,2.989-0.07,5.979-0.106,8.968
						c-0.006,0.538-0.006,1.102,0.25,1.574c0.778,1.434,3.098,0.806,4.078-0.5c3.571-4.763,8.01-12.297,9.156-18.097
						c0.935-4.73-0.765-10.271,1.215-14.734c0.915-2.063,2.764-3.531,4.187-5.283c3.078-3.788,4.105-9.148,2.644-13.806
						c-0.937-2.987-2.934-5.732-5.756-7.086c-4.672-2.241-10.296-0.308-15.357-1.418c-2.568-0.563-4.93-1.901-7.522-2.34
						c-5.464-0.926-10.772,2.27-14.936,5.927c-4.164,3.657-7.932,8.005-13.017,10.209c-4.079,1.768-8.663,1.993-12.864,3.449
						c-7.007,2.429-12.604,8.364-15.032,15.372c-2.72,7.853-2.078,17.722,3.754,23.88c2.923,3.087,5.307,6.549,7.73,10.018
						c0.841,1.204,5.683,5.656,5.32,0.983c-0.282-3.627-1.731-7.09-1.988-10.719C409.039,242.808,415.693,236.148,423.49,233.267z"
						/>
				</g>
			</g>
		</g>
		<g>
			<g>
				<path style="fill:#474EBB;" d="M470.198,286.137l-52.67-4.392c0,0-17.363,22.628-36.48,87.721
					c-19.117,65.094-4.946,122.711-4.946,122.711s59.422-10.705,143.321-1.07l-24.443-161.513L470.198,286.137z"/>
			</g>
		</g>
		<g>
			<g>
				<g id="XMLID_180_">
					<g id="XMLID_182_">
						<g>
							<polygon style="fill:#AF9059;" points="251.571,220.326 257.682,213.92 257.464,206.088 259.075,205.186 260.235,207.147 
								261.887,200.581 266.261,197.32 273.089,199.581 277.207,205.837 274.229,212.499 267.271,217.586 259.277,226.721 							
								"/>
						</g>
					</g>
					<g id="XMLID_181_">
						<g>
							<polygon style="fill:#EBB044;" points="249.436,214.836 190.997,280.521 156.313,282.085 162.931,337.121 208.813,316.655 
								221.341,307.964 267.361,225.048 							"/>
						</g>
					</g>
				</g>
				<g>
					<g id="XMLID_179_">
						<g>
							<polygon style="fill:#3B455A;" points="155.896,700.723 155.896,708.17 174.994,717.719 184.542,708.17 174.994,698.621 
								173.762,698.621 173.455,700.723 							"/>
						</g>
					</g>
					<g id="XMLID_178_">
						<g>
							<polygon style="fill:#3B455A;" points="108.865,698.621 107.547,698.621 97.998,708.17 107.547,717.719 126.644,708.17 
								126.644,700.723 109.086,700.723 							"/>
						</g>
					</g>
					<g>
						<g id="XMLID_177_">
							<g>
								<path style="fill:#EBB044;" d="M109.135,418.098c2.514-12.72,4.478-24.459,4.658-30.826
									c0.541-19.149,2.951-82.39,2.951-82.39l11.688-24.19l2.157,0.021c-0.155-0.018-0.31-0.037-0.465-0.056
									c0.508,0.061-0.244-4.675-0.426-5.093c-10.162-0.346-23.258,5.386-29.667,13.372c-4.743,5.909-7.562,13.133-10.31,20.231
									c-7.736,19.984-11.244,38.499-15.104,59.512c-2.461,13.399-4.734,26.736-6.524,40.037
									c-1.982,14.732-3.38,29.42-3.784,44.022c-0.045,1.615-0.365,6.128-0.544,11.522c-0.376,11.296-0.135,26.406,4.542,26.971
									c0.876,0.106,1.72-0.288,2.491-0.669c6.017-2.973,10.757-6.853,16.062-10.245l0.285-58.926L109.135,418.098z"/>
							</g>
						</g>
						<g id="XMLID_176_">
							<g>
								<path style="fill:#EBB044;" d="M216.629,478.66c-1.196-12.539-2.438-25.077-3.955-37.581
									c-3.026-24.941-7.144-49.822-14.113-73.967c-2.662-9.223-5.733-18.319-8.803-27.41
									c-3.738-11.072-7.477-22.143-11.215-33.214c-4.646-13.76-12.488-23.454-26.219-28.267c-2.452-0.86-5.034-1.523-7.694-2.009
									c-0.065,0.285-0.124,0.573-0.161,0.877c-0.159,1.322-0.531,2.787-1.352,3.746l9.012,0.087c0,0,25.427,90.366,26.361,105.941
									c0.355,5.92,1.537,18.845,2.851,32.46l13.808,2.068l0.592,52.077c0.773,0.226,1.542,0.445,2.305,0.651
									c4.381,1.182,7.945,4.429,11.585,6.976C215.005,484.855,217.362,486.345,216.629,478.66z"/>
							</g>
						</g>
						<g id="XMLID_175_">
							<g>
								<path style="fill:#EBB044;" d="M181.34,419.323c2.08,21.547,4.493,44.825,4.493,44.825s-11.163,0.268-27.312,1.493
									c1.195-0.028,2.39-0.06,3.583-0.071c11.232-0.101,22.882,4.752,33.636,7.898l-0.592-52.077L181.34,419.323z"/>
							</g>
						</g>
						<g id="XMLID_174_">
							<g>
								<path style="fill:#EBB044;" d="M105.969,472.194c-7.7,0.408-8.658-1.042-8.658-1.042s6.946-28.374,11.824-53.054
									l-21.989,3.292l-0.285,58.926c1.865-1.192,3.799-2.325,5.885-3.335C96.926,474.958,101.39,473.416,105.969,472.194z"/>
							</g>
						</g>
						<g>
							<g>
								<path style="fill:#CCD2D9;" d="M195.74,473.468c-10.754-3.146-22.404-7.999-33.637-7.898
									c-1.193,0.011-2.388,0.043-3.582,0.071c-0.999,0.076-2.018,0.155-3.054,0.239c-7.527,0.605-15.984,1.414-24.812,2.486
									c-0.434,0.053-0.865,0.104-1.301,0.158c-11.293,2.458-18.625,3.419-23.385,3.671c-4.579,1.221-9.043,2.764-13.223,4.788
									c-2.086,1.01-4.02,2.143-5.885,3.335l-0.059,12.27l21.529,208.418h17.653v2.122h0.101l19.409-139.798l0.081-0.787
									l10.634,140.585h0.101v-2.122h17.738l22.499-156.551L195.74,473.468z"/>
							</g>
						</g>
						<g>
							<g>
								<path style="fill:#FFFFFF;" d="M181.34,419.323c-1.314-13.615-2.496-26.539-2.851-32.46
									c-0.934-15.575-26.361-105.941-26.361-105.941l-9.012-0.087c-0.099,0.115-0.201,0.227-0.314,0.326
									c-0.278,0.246-0.599,0.439-0.969,0.563c-0.736,0.247-1.535,0.157-2.305,0.064c-2.979-0.358-5.959-0.717-8.938-1.075
									l-2.157-0.021l-11.688,24.19c0,0-2.41,63.242-2.951,82.39c-0.18,6.367-2.145,18.106-4.658,30.826
									c-4.878,24.681-11.824,53.054-11.824,53.054s0.958,1.45,8.658,1.042c4.76-0.252,12.092-1.213,23.385-3.671
									c0.436-0.054,0.867-0.105,1.301-0.158c8.829-1.072,17.286-1.88,24.812-2.486c1.036-0.083,2.055-0.163,3.054-0.239
									c16.149-1.225,27.312-1.493,27.312-1.493S183.42,440.87,181.34,419.323z"/>
							</g>
						</g>
					</g>
				</g>
				<g id="XMLID_171_">
					<g id="XMLID_173_">
						<g>
							<polygon style="fill:#B97262;" points="198.973,376.397 207.74,377.128 213.496,371.99 215.215,372.682 214.486,374.836 
								220.496,371.968 225.774,373.332 228.478,380.123 226.425,387.322 219.487,389.209 211.167,386.977 199.131,386.498 							
								"/>
						</g>
					</g>
					<g id="XMLID_172_">
						<g>
							<polygon style="fill:#EBB044;" points="204.098,372.859 156.416,367.007 112.669,302.513 103.361,343.91 125.242,389.335 
								141.443,401.517 209.052,390.438 							"/>
						</g>
					</g>
				</g>
				<g>
					<g>
						<g>
							<path style="fill:#3B455A;" d="M159.452,223.087c2.262,4.561,3.202,9.728,3.164,14.836c-0.01,1.358,0.002,2.928,1.039,3.784
								c1.11,0.917,0.001,2.743,0.936,1.643c0.935-1.1,4.116-4.923,4.323-6.362c0.486-3.371,0.654-6.789,0.502-10.192
								c-0.132-2.96-0.568-6.068-2.349-8.412c-1.056-1.39-2.508-2.404-3.939-3.389c-2.074-1.428-4.214-2.87-6.65-3.465
								c-4.199-1.025-6.877,0.385-3.289,3.587C155.76,217.411,157.903,219.962,159.452,223.087z"/>
						</g>
					</g>
					<g>
						<g>
							<g>
								<path style="fill:#B97262;" d="M130.18,279.548c5.804,0.86,11.608,1.72,17.412,2.579c1.147-5.077,1.931-10.254,2.342-15.465
									c5.124-0.62,11.183-1.977,13.193-7.298c0.633-1.676,0.746-3.528,0.851-5.341c0.434-7.494,0.867-14.987,1.301-22.481
									c0.15-2.592,0.291-5.263-0.46-7.715c-1.318-4.302-5.083-7.022-8.82-8.806c-9.537-4.551-20.899-4.985-30.181,0.292
									c-2.47,1.404-4.828,3.253-6.342,5.852c-2.334,4.007-2.324,9.105-2.235,13.874c0.083,4.402,0.165,8.804,0.248,13.206
									c0.095,5.063,0.546,10.909,4.263,13.775c1.974,1.522,4.604,1.92,6.274,3.843
									C130.971,269.255,129.261,274.925,130.18,279.548z"/>
							</g>
						</g>
					</g>
					<g>
						<g>
							<path style="fill:#3B455A;" d="M165.918,251.129c-0.012-1.394-0.403-5.499-2.588-3.046c-0.572,0.641-0.752,1.581-0.83,2.47
								s-0.085,1.809-0.404,2.634c-0.732,1.893-2.872,2.66-4.738,2.528c-0.742-0.052-1.493-0.216-2.13-0.631
								c-0.619-0.402-1.095-1.016-1.56-1.618c-1.128-1.461-2.256-2.923-3.383-4.384c-1.939-2.512-6.077-1.687-8.872-1.463
								c-3.221,0.257-6.471,1.071-9.194,3.075c-0.275,0.202-0.544,0.416-0.813,0.629c-0.659,0.52-1.32,1.034-2.07,1.358
								c-2.533,1.094-5.528-0.343-7.144-2.722c-0.741-1.09-1.413-2.479-2.636-2.719c-0.957-0.188-1.932,0.466-2.473,1.358
								c-0.541,0.892-0.73,1.979-0.85,3.04c-0.44,3.859-0.117,7.88,1.359,11.401c3.202,7.635,10.075,8.912,17.037,9.109
								c2.752,0.078,5.504,0.156,8.257,0.234c5.031,0.143,10.354,0.209,14.738-2.54c3.867-2.425,6.312-6.765,7.458-11.384
								C165.672,256.072,165.939,253.593,165.918,251.129z M146.998,260.722c-2.738,1.671-5.66,1.616-8.564,0.558
								c-1.234-0.45-0.594-2.562,0.642-2.112c2.406,0.876,4.715,0.978,6.994-0.413C147.218,258.055,148.138,260.026,146.998,260.722
								z"/>
						</g>
					</g>
					<g>
						<g>
							<path style="fill:#3B455A;" d="M169.025,210.563c0.578-1.791,1.03-3.624,1.353-5.48c-1.732,0.518-3.592,0.582-5.354,0.185
								c0.05-1.078,0.101-2.156,0.151-3.234c0.038-0.897-11.857-2.149-12.822-2.281c-9.034-1.232-17.294-2.386-25.749,2.136
								c-7.222,3.863-12.035,9.943-13.526,18.109c-1.425,7.8,0.583,18.191,4.719,24.944c0.08-2.092-0.853-7.087-0.267-9.049
								c0.398-1.976,1.172-3.861,2.195-5.585c2.043-3.442,5.081-6.27,8.524-8.221c5.489-3.11,11.762-4.579,17.981-5.13
								c5.698-0.505,12.629-0.883,18.141,0.933c2.649,0.873,3.06,1.582,4.827-1.09c0.312-0.471,2.873-6.029,2.651-6.044
								C170.908,210.69,169.967,210.626,169.025,210.563z"/>
						</g>
					</g>
				</g>
			</g>
		</g>
		<g>
			<g>
				<g>
					
						<ellipse transform="matrix(0.7071 -0.7071 0.7071 0.7071 -209.3842 404.8615)" style="fill:#8EC3CB;" cx="384.019" cy="455.18" rx="175.835" ry="175.835"/>
				</g>
			</g>
			<g>
				<path style="fill:#96B344;" d="M425.953,284.39c3.135,0.767,6.238,1.615,9.305,2.548L425.953,284.39z"/>
			</g>
			<g>
				<g>
					<path style="fill:#A2BD44;" d="M431.042,299.47c0.754,0.231,1.504,0.469,2.254,0.71c0.224-0.163,0.448-0.325,0.672-0.488
						C432.916,299.693,431.957,299.602,431.042,299.47z"/>
				</g>
				<g>
					<path style="fill:#A2BD44;" d="M422.421,308.083c5.405,0,13.5,8.977,17.655,6.191c5.717-3.832,4.305-7.417,5.854-9.435
						c-4.128-1.721-8.342-3.276-12.634-4.659C429.671,302.815,426.046,305.449,422.421,308.083z"/>
				</g>
				<g>
					<path style="fill:#A2BD44;" d="M431.042,299.47c-1.709-0.523-3.429-1.019-5.161-1.487
						C427.408,298.658,429.094,299.19,431.042,299.47z"/>
				</g>
				<g style="opacity:0.07;">
					<path style="fill:#FFFFFF;" d="M524.743,374.214c-8.001-13.89-17.992-26.487-29.577-37.413
						c-0.155-0.147-0.316-0.288-0.472-0.434c-1.168-1.093-2.348-2.172-3.548-3.231c-0.172-0.151-0.348-0.298-0.521-0.448
						c-1.201-1.051-2.415-2.088-3.646-3.104c-0.143-0.118-0.289-0.231-0.432-0.349c-1.276-1.045-2.567-2.074-3.875-3.081
						c-0.095-0.074-0.193-0.145-0.289-0.218c-1.366-1.047-2.748-2.073-4.147-3.077c-0.046-0.033-0.092-0.065-0.138-0.098
						c-1.454-1.04-2.925-2.057-4.414-3.051c0,0-0.007-0.005-0.011-0.007c-3.044-2.031-6.161-3.961-9.345-5.788l-0.002-0.001v0
						c-17.193-9.87-36.349-16.696-56.745-19.753l0,0l-0.003,0c-1.184-0.177-2.37-0.345-3.563-0.497
						c-0.669-0.087-1.342-0.162-2.014-0.241c-0.774-0.089-1.545-0.189-2.322-0.267l-0.004-0.001v0
						c-3.27-0.328-6.571-0.552-9.896-0.684v0l-0.002,0c-0.718-0.028-1.439-0.049-2.159-0.069c-1.474-0.043-2.951-0.076-4.436-0.076
						c-1.282,0-2.56,0.019-3.835,0.048c-0.477,0.011-0.952,0.03-1.429,0.045c-0.774,0.025-1.547,0.052-2.318,0.088
						c-0.613,0.028-1.224,0.061-1.835,0.096c-0.592,0.034-1.183,0.072-1.773,0.112c-0.727,0.049-1.453,0.1-2.177,0.159
						c-0.333,0.027-0.664,0.059-0.996,0.088c-4.219,0.368-8.39,0.896-12.51,1.578l-0.002,0l-0.001,0
						c-1.095,0.181-2.188,0.372-3.275,0.575l0,0l-0.01,0.002c-1.405,0.262-2.803,0.544-4.194,0.842
						c-0.053,0.011-0.107,0.023-0.16,0.035c-1.349,0.29-2.691,0.597-4.027,0.921c-0.074,0.018-0.148,0.036-0.223,0.054
						c-1.322,0.322-2.638,0.66-3.946,1.014c-0.074,0.02-0.149,0.04-0.223,0.06c-1.32,0.359-2.633,0.734-3.94,1.125
						c-0.053,0.016-0.106,0.031-0.158,0.047c-1.347,0.405-2.686,0.825-4.018,1.263l-0.016,0.005
						c-14.923,4.911-28.894,11.915-41.568,20.666l-0.002,0.001l-0.001,0.001c-42.655,29.452-70.613,78.67-70.613,134.426
						c0,37.461,12.626,71.968,33.843,99.517c-13.798-23.954-21.692-51.738-21.692-81.367c0-49.284,21.839-93.466,56.367-123.399
						c0.256-0.222,0.518-0.437,0.776-0.658c0.69-0.591,1.38-1.18,2.08-1.759c0.396-0.328,0.799-0.648,1.198-0.972
						c0.57-0.463,1.14-0.927,1.716-1.382c0.435-0.343,0.874-0.68,1.312-1.018c0.552-0.427,1.104-0.854,1.661-1.274
						c0.453-0.342,0.911-0.678,1.368-1.015c0.551-0.406,1.103-0.811,1.659-1.21c0.468-0.336,0.938-0.668,1.409-0.999
						c0.556-0.391,1.115-0.778,1.677-1.162c0.475-0.325,0.951-0.648,1.43-0.968c0.57-0.381,1.143-0.757,1.718-1.131
						c0.478-0.311,0.955-0.621,1.436-0.927c0.59-0.375,1.184-0.743,1.779-1.11c0.473-0.292,0.945-0.587,1.422-0.874
						c0.629-0.379,1.263-0.75,1.897-1.121c0.449-0.263,0.895-0.529,1.347-0.788c0.734-0.42,1.475-0.829,2.216-1.239
						c0.359-0.198,0.715-0.402,1.076-0.598c1.092-0.592,2.192-1.173,3.299-1.741c0.335-0.172,0.674-0.335,1.01-0.504
						c0.79-0.398,1.581-0.796,2.378-1.182c0.452-0.218,0.908-0.429,1.362-0.643c0.688-0.325,1.377-0.651,2.07-0.966
						c0.493-0.225,0.99-0.442,1.486-0.662c0.663-0.294,1.326-0.587,1.993-0.872c0.514-0.219,1.03-0.434,1.546-0.648
						c0.658-0.273,1.317-0.543,1.978-0.808c0.525-0.21,1.052-0.417,1.58-0.621c0.665-0.258,1.331-0.511,2-0.76
						c0.526-0.196,1.054-0.391,1.583-0.582c0.681-0.246,1.364-0.485,2.049-0.722c0.524-0.181,1.047-0.363,1.573-0.539
						c0.707-0.236,1.417-0.464,2.128-0.691c0.508-0.162,1.014-0.327,1.524-0.484c0.769-0.237,1.543-0.463,2.317-0.689
						c0.456-0.133,0.91-0.272,1.368-0.401c0.99-0.28,1.985-0.546,2.983-0.807c0.246-0.065,0.491-0.135,0.738-0.198
						c1.243-0.319,2.491-0.623,3.745-0.914c0.384-0.089,0.771-0.169,1.155-0.255c0.878-0.197,1.757-0.392,2.64-0.575
						c0.49-0.101,0.981-0.193,1.472-0.29c0.784-0.154,1.567-0.308,2.354-0.451c0.533-0.097,1.069-0.186,1.603-0.278
						c0.751-0.129,1.504-0.256,2.258-0.374c0.554-0.087,1.11-0.168,1.666-0.25c0.744-0.109,1.489-0.214,2.236-0.313
						c0.562-0.074,1.125-0.146,1.689-0.214c0.752-0.091,1.505-0.177,2.259-0.258c0.56-0.06,1.12-0.12,1.68-0.174
						c0.77-0.075,1.542-0.142,2.315-0.206c0.55-0.046,1.1-0.093,1.651-0.133c0.804-0.059,1.611-0.106,2.418-0.153
						c0.522-0.03,1.044-0.065,1.567-0.09c0.891-0.043,1.786-0.073,2.681-0.102c0.442-0.014,0.884-0.035,1.328-0.046
						c1.339-0.033,2.681-0.051,4.027-0.051c0.343,0,0.683,0.013,1.025,0.015l0,0c24.291,0.15,47.324,5.595,67.996,15.257
						c0.208,0.097,0.413,0.2,0.62,0.298c1.046,0.494,2.086,0.999,3.12,1.515c0.447,0.223,0.891,0.451,1.336,0.678
						c0.815,0.416,1.625,0.839,2.432,1.268c0.45,0.24,0.902,0.478,1.35,0.722c0.96,0.523,1.915,1.056,2.863,1.597
						c0.37,0.211,0.739,0.421,1.106,0.634c1.015,0.589,2.022,1.19,3.023,1.8c0.468,0.286,0.933,0.578,1.398,0.868
						c0.709,0.443,1.415,0.89,2.117,1.343c0.484,0.312,0.967,0.625,1.448,0.942c0.765,0.505,1.523,1.02,2.279,1.537
						c0.375,0.257,0.753,0.508,1.126,0.767l0.001,0C502.323,349.307,514.53,360.953,524.743,374.214z"/>
				</g>
			</g>
			<g>
				<g>
					<path style="fill:#BED386;" d="M382.522,295.743c-0.084,0-0.155,0.001-0.241,0.001
						C382.377,295.744,382.455,295.744,382.522,295.743z"/>
				</g>
				<g>
					<g>
						<path style="fill:#3B455A;" d="M445.81,290.521c-4.663-0.614-9.539-0.637-14.932,0.219c2.187-1.535,3.588-2.79,4.38-3.802
							c-3.067-0.933-6.17-1.781-9.305-2.548c-0.228,0.071-0.452,0.145-0.672,0.222c-4.249,1.489-4.872,1.643-4.176,4.328
							c-1.651-0.665-3.231-1.433-4.684-2.326h-20.357c12.895,14.262-12.102,13.322-21.232,13.349
							c-1.67,0.005-2.059-3.34-1.108-4.218c0.439-0.406,10.741-0.027,8.797-0.001c8.309-0.012,7.267-0.668,7.267-9.13
							c-8.261,6.091-7.974,0-17.345,0c-8.789,0-13.1,0.484-20.809,3.949c2.51,2.139,5.02,4.277,7.531,6.416
							c-3.161-0.717-13.471-4.761-16.289-3.56c-1.311,0.559-1.65,4.054-3.271,4.054c-6.548,0-24.367,3.581-24.367-3.928
							c0-0.034-0.118-0.065-0.324-0.093c-16.166,6.917-31.081,16.189-44.323,27.381c8.473-1.396,17.372-0.904,19.127-0.904
							c0.781,0,6.164,13.897,6.216,14.967c0.292,6.064-3.844,8.461-6.909,14.224c-5.581,10.495-8.046,24.241-7.422,36.027
							c0.023,0.426,7.029,6.731,7.029,9.23c0,10.462,1.096,10.632,8.283,18.34v-12.833c4.285,11.235,9.465,15.56,13.336,26.552
							c4.392,12.474,21.748,2.893,27.645,11.109c2.597,3.618,7.443,1.959,9.756,5.491l6.28,9.585
							c3.785,5.777,8.4,3.775,15.164,3.775c6.496,0-5.914,22.446-5.914,24.337c0,7.782,10.624,25.499,10.557,28.616
							c-0.197,9.24,11.341,10.536,17.606,16.226c5.016,4.59,1.44,17.59,1.284,23.356c-0.132,4.861,0.915,9.223,2.4,13.416l0,0
							l0.001,0.002c1.367,3.859,3.102,7.575,4.658,11.394c0.272,0.668,0.539,1.339,0.797,2.015c0.112,0.295,0.216,0.595,0.325,0.892
							c0.208,0.566,0.409,1.134,0.6,1.708c0.105,0.316,0.206,0.634,0.306,0.952c0.187,0.596,0.36,1.198,0.524,1.805
							c0.078,0.288,0.16,0.575,0.232,0.866c0.222,0.895,0.425,1.799,0.586,2.723c0.822,4.73-0.995,9.831,0.058,14.363
							c1.081,4.656,5.077,7.554,5.018,12.7c-0.091,7.949,22.26,9.442,26.588,9.442c-0.02-0.013-16.316-8.462-16.316-7.449
							c0-7.544,3.882-7.02,3.884-11.621c0.002-5.465-4.96-9.967-1.862-17.701c3.351-8.362,2.972-8.108,12.034-8.108
							c-0.183-3.844-0.768-7.628-1.757-11.352c8.098-12.621,26.936-24.765,31.923-28.169c6.774-4.63,2.981-17.123,5.91-23.779
							c2.575-5.85,10.382-11.255,10.758-18.453c0.02-0.381,0.01-0.738-0.018-1.08c-0.007-0.085-0.022-0.163-0.032-0.245
							c-0.03-0.26-0.071-0.51-0.127-0.747c-0.016-0.068-0.036-0.133-0.055-0.2c-0.069-0.25-0.152-0.488-0.248-0.713
							c-0.016-0.036-0.031-0.072-0.048-0.108c-0.119-0.259-0.253-0.503-0.405-0.729v0l0,0c-1.565-2.321-4.811-2.97-7.645-2.875
							c-4.002,0.135-4.4-6.559-7.427-6.559c-8.414,0-17.146-1.433-24.434-6.831c-1.207-0.894-2.559-11.631-4.621-14.292
							c-2.954-3.812-12.397,2.881-16.067-2.302c-1.387-1.96-4.666-9.643-6.906-9.643c-3.05,0-19.849-3.267-23.381-0.072
							c0.544-0.492-5.733-2.396-6.625-2.396c0.384,0-21.589,11.382-21.589,5.472c0-7.662,3.736-17.564-5.351-17.564
							c-14.607,0-2.18-3.798-2.18-10.489c0-8.583-14.145,2.355-21.598,2.364c0.198,0-8.391-14.085-4.274-14.085
							c2.956,0,3.417-6.022,5.611-8.585c5.769-6.745,15.622-7.452,22.557-6.182c2.808,0.514,12.988,12.323,13.017,14.757
							c-0.007-0.58,4.149-3.237,4.71-4.098c2.007-3.078,0.873-4.406,1.375-7.487c1.682-10.344,2.11-12.39,10.362-18.677
							c6.064-4.619,14.537-9.924,19.296-15.902c3.63-4.562,7.028-6.931,12.302-9.524c-0.538,0.265,5.012,3.381,6.174,3.381
							c4.771,0,5.922-4.031,8.535-7.65h-8.283c9.351-7.15-7.575-10.858,11.17-10.858c9.206,0,10.057,0.126,15.688-6.416
							c-8.954,0-6.777-0.059-6.777-9.179c0-1.518-2.531-7.088-4.947-4.713c-6.606,6.495-6.369-1.189-9.26-5.507
							c-3.739-5.585-7.773,0.164-9.334,3.549c-1.935,4.198-17.827,10.762-17.792,16.246c0.021,3.21-5.227,3.081-5.131-0.499
							c0.145-5.376-18.429-10.511-18.736-12.609c-0.404-2.77,9.193-10.238,17.541-10.238c3.835,0,1.957-4.442,3.139-4.442
							c7.953,0,17.329-2.472,21.678-8.884c-1.086,0-11.296,0.074-11.296-0.053c0-3.645-1.558-5.87,2.621-5.87
							c9.809,0,12.715,7.65,23.484,7.65c-3.849,2.796-7.697,5.594-11.547,8.39c5.405,0,13.5,8.977,17.655,6.191
							c7.672-5.142,2.501-9.843,8.88-10.903c0.683,0.718,1.602,1.407,3.129,1.948c1.993,0.705,9.175,1.988,10.395,3.81
							c1.47,2.195,5.206,15.2,2.462,16.331c-4.457,1.836-17.51,15.978-7.525,19.508c7.716,2.728,9.696-0.712,16.561-5.008
							c6.382-3.994,8.12-2.526,15.305,0.014c0.065,0.023,7.464-0.246,10.234,0.734c6.062,2.143,5.62-1.685,6.256-1.46
							c2.528,0.894,7.402,1.537,10.575,0.15C497.4,317.762,473.233,300.817,445.81,290.521z"/>
					</g>
					<g>
						<path style="fill:#3B455A;" d="M372.831,412.935c-1.188,1.191-2.376,2.382-3.563,3.573c11.078,0,17.821,3.573,27.648,3.573
							C390.321,409.748,385.151,412.935,372.831,412.935z"/>
					</g>
					<g>
						<path style="fill:#3B455A;" d="M409.386,421.883c-8.891-0.269-9.305,1.081-14.751,7.165c4.686,0,9.371,0.014,14.057,0.019
							C412.755,429.072,412.191,421.967,409.386,421.883z"/>
					</g>
					<g>
						<path style="fill:#3B455A;" d="M421.998,431.15C421.998,418.684,409.318,431.15,421.998,431.15L421.998,431.15z"/>
					</g>
				</g>
			</g>
			<g style="opacity:0.08;">
				<g>
					<path d="M476.014,305.104c17.511,27.337,27.664,59.839,27.664,94.713c0,97.111-78.724,175.835-175.835,175.835
						c-33.727,0-65.231-9.503-91.995-25.967c31.25,48.787,85.934,81.122,148.172,81.122c97.111,0,175.835-78.724,175.835-175.835
						C559.854,391.588,526.312,336.044,476.014,305.104z"/>
				</g>
			</g>
		</g>
		<g>
			<g>
				<g>
					<g>
						<polygon style="fill:#474EBB;" points="470.442,303.749 525.605,354.392 546.2,412.621 561.063,409.258 548.35,336.125 
							470.198,286.137 						"/>
					</g>
				</g>
			</g>
			<g>
				<g>
					<polygon style="fill:#EFBFA5;" points="549.242,408.889 558.856,406.259 565.052,421.635 558.161,429.431 549.336,427.906 
						551.082,420.205 549.279,420.699 547.984,423.023 545.674,421.685 					"/>
				</g>
			</g>
		</g>
		<g>
			<g>
				<g>
					<g>
						<g>
							<polygon style="fill:#F0E6DC;" points="775.623,468.24 768.342,470.883 771.206,472.231 775.415,470.704 784.484,475.858 
								785.475,473.84 							"/>
						</g>
						<g>
							<polygon style="fill:#F0E6DC;" points="764.159,322.216 761.692,320.492 752.193,322.737 751.392,325.233 							"/>
						</g>
						<g>
							<polygon style="fill:#F0E6DC;" points="724.536,331.578 739.288,328.092 740.048,325.606 724.687,329.236 708.603,323.168 
								708.046,325.357 							"/>
						</g>
						<g>
							<path style="fill:#F0E6DC;" d="M830.795,499.599l-0.502-0.285l-38.117-21.665l-0.87,2.087l20.088,11.418l21.508,10.128
								l20.953-6.716c0.31-0.889,0.637-1.776,0.957-2.665L830.795,499.599z"/>
						</g>
						<g>
							<path style="fill:#F0E6DC;" d="M871.679,488.852l2.376-0.761l-1.679-0.899C872.15,487.748,871.912,488.299,871.679,488.852z"
								/>
						</g>
						<g>
							<polygon style="fill:#F0E6DC;" points="662.223,374.691 660.055,373.53 657.525,410.891 659.73,411.522 							"/>
						</g>
						<g>
							<polygon style="fill:#F0E6DC;" points="737.429,482.099 736.76,484.729 764.309,474.733 761.41,473.398 							"/>
						</g>
						<g>
							<polygon style="fill:#F0E6DC;" points="665.055,332.856 662.883,331.757 660.627,365.08 662.795,366.246 							"/>
						</g>
						<g>
							<polygon style="fill:#F0E6DC;" points="655.915,467.867 656.687,456.48 654.502,455.551 653.571,469.294 659.033,471.675 
								659.594,469.47 							"/>
						</g>
						<g>
							<polygon style="fill:#F0E6DC;" points="659.291,418.008 657.087,417.363 654.942,449.046 657.128,449.952 							"/>
						</g>
						<g>
							<polygon style="fill:#F0E6DC;" points="666.621,309.73 697.285,321.298 697.842,319.108 664.589,306.563 663.521,322.332 
								665.684,323.565 							"/>
						</g>
						<g>
							<path style="fill:#F0E6DC;" d="M903.401,385.985c0.844-1.607,1.704-3.205,2.558-4.807l2.905-44.671l-2.59,5.295
								L903.401,385.985z"/>
						</g>
						<g>
							<polygon style="fill:#F0E6DC;" points="901.472,324.272 894.716,323.701 870.184,330.048 868.723,332.746 							"/>
						</g>
						<g>
							<polygon style="fill:#F0E6DC;" points="909.615,324.961 909.615,324.961 908.701,324.884 							"/>
						</g>
						<g>
							<path style="fill:#F0E6DC;" d="M883.288,484.825c0.38-0.805,0.76-1.611,1.141-2.416l-3.53,1.131L883.288,484.825z"/>
						</g>
						<g>
							<path style="fill:#F0E6DC;" d="M898.913,455.005c0.746-0.842,1.539-1.632,2.398-2.343l1.512-23.257
								c-0.83,1.185-1.657,2.375-2.478,3.567L898.913,455.005z"/>
						</g>
						<g>
							<polygon style="fill:#F0E6DC;" points="789.376,316.258 792.062,315.624 840.847,339.959 856.979,335.785 858.407,333.095 
								841.097,337.574 796.662,315.408 786.991,314.591 							"/>
						</g>
						<g>
							<polygon style="fill:#A2C59D;" points="718.312,489.036 717.901,491.573 730.263,487.086 730.933,484.456 							"/>
						</g>
						<g>
							<polygon style="fill:#A2C59D;" points="670.211,474.097 669.65,476.302 685.377,483.157 686.174,481.054 							"/>
						</g>
						<g>
							<path style="fill:#9EC9D9;" d="M902.78,395.536l2.148,1.502l1.031-15.86c-0.854,1.602-1.714,3.2-2.558,4.807L902.78,395.536z
								"/>
						</g>
						<g>
							<path style="fill:#9EC9D9;" d="M900.345,432.973c0.821-1.193,1.648-2.382,2.478-3.567l0.638-9.806l-2.148-1.502
								L900.345,432.973z"/>
						</g>
						<g>
							<path style="fill:#9EC9D9;" d="M871.301,486.616l-16.489,5.285c-0.32,0.888-0.648,1.776-0.957,2.665l17.824-5.713
								c0.233-0.553,0.471-1.104,0.697-1.66L871.301,486.616z"/>
						</g>
						<g>
							<polygon style="fill:#FFFFFF;" points="708.046,325.357 708.603,323.168 697.842,319.108 697.285,321.298 							"/>
						</g>
						<g>
							<polygon style="fill:#FFFFFF;" points="659.594,469.47 659.033,471.675 666.177,474.788 666.734,472.582 							"/>
						</g>
						<g>
							<polygon style="fill:#FFFFFF;" points="666.734,472.582 666.177,474.788 669.65,476.302 670.211,474.097 							"/>
						</g>
						<g>
							<polygon style="fill:#FFFFFF;" points="736.451,482.454 735.782,485.084 736.76,484.729 737.429,482.099 							"/>
						</g>
						<g>
							<polygon style="fill:#FFFFFF;" points="730.933,484.456 730.263,487.086 735.782,485.084 736.451,482.454 							"/>
						</g>
						<g>
							<path style="fill:#FFFFFF;" d="M880.898,483.54l-8.102,2.597c-0.14,0.352-0.278,0.705-0.42,1.056l1.679,0.899l9.062-2.904
								c0.057-0.12,0.113-0.241,0.17-0.361L880.898,483.54z"/>
						</g>
						<g>
							<polygon style="fill:#FFFFFF;" points="662.795,366.246 660.627,365.08 660.055,373.53 662.223,374.691 							"/>
						</g>
						<g>
							<path style="fill:#FFFFFF;" d="M872.376,487.192c0.142-0.351,0.28-0.704,0.42-1.056l-1.496,0.48L872.376,487.192z"/>
						</g>
						<g>
							<path style="fill:#A2C59D;" d="M897.401,478.251l-12.973,4.158c-0.381,0.805-0.761,1.611-1.141,2.416l0.357,0.192
								l15.893-5.094l1.773-27.261c-0.859,0.711-1.652,1.5-2.398,2.343L897.401,478.251z"/>
						</g>
						<g>
							<path style="fill:#A2C59D;" d="M883.117,485.186l0.528-0.169l-0.357-0.192C883.23,484.945,883.174,485.066,883.117,485.186z"
								/>
						</g>
						<g>
							<polygon style="fill:#FFFFFF;" points="761.41,473.398 764.309,474.733 771.206,472.231 768.342,470.883 							"/>
						</g>
						<g>
							<polygon style="fill:#FFFFFF;" points="829.187,501.268 830.543,502.037 832.901,501.281 811.393,491.154 							"/>
						</g>
						<g>
							<polygon style="fill:#FFFFFF;" points="785.475,473.84 784.484,475.858 791.305,479.736 792.175,477.648 							"/>
						</g>
						<g>
							<polygon style="fill:#FFFFFF;" points="665.684,323.565 663.521,322.332 662.883,331.757 665.055,332.856 							"/>
						</g>
						<g>
							<polygon style="fill:#FFFFFF;" points="657.128,449.952 654.942,449.046 654.502,455.551 656.687,456.48 							"/>
						</g>
						<g>
							<polygon style="fill:#FFFFFF;" points="659.73,411.522 657.525,410.891 657.087,417.363 659.291,418.008 							"/>
						</g>
						<g>
							<polygon style="fill:#FFFFFF;" points="868.723,332.746 870.184,330.048 858.407,333.095 856.979,335.785 							"/>
						</g>
						<g>
							<polygon style="fill:#FFFFFF;" points="907.382,324.772 906.274,341.802 908.865,336.507 909.615,324.961 908.701,324.884 
															"/>
						</g>
						<g>
							<polygon style="fill:#FFFFFF;" points="751.392,325.233 752.193,322.737 740.048,325.606 739.288,328.092 							"/>
						</g>
						<g>
							<polygon style="fill:#F0E6DC;" points="710.768,491.773 710.286,491.563 686.174,481.054 685.377,483.157 709.291,493.579 
								711.787,493.79 717.901,491.573 718.312,489.036 							"/>
						</g>
						<g>
							<polygon style="fill:#EECD63;" points="772.716,320.194 773.341,317.739 761.692,320.492 764.159,322.216 							"/>
						</g>
						<g>
							<polygon style="fill:#EECD63;" points="789.376,316.258 786.991,314.591 786.752,314.57 779.615,316.257 778.99,318.712 
															"/>
						</g>
						<g>
							<polygon style="fill:#EECD63;" points="901.313,418.097 903.461,419.599 904.928,397.038 902.78,395.536 							"/>
						</g>
						<g>
							<polygon style="fill:#EECD63;" points="778.99,318.712 779.615,316.257 773.341,317.739 772.716,320.194 							"/>
						</g>
						<g>
							<polygon style="fill:#DCDFE2;" points="871.176,397.03 844.139,378.129 833.809,397.199 862.787,413.895 							"/>
						</g>
						<g>
							<polygon style="fill:#F0E6DC;" points="656.687,456.48 655.915,467.867 659.594,469.47 662.292,458.865 							"/>
						</g>
						<g>
							<polygon style="fill:#DCDFE2;" points="821.308,402.953 766.835,366.496 754.371,415.495 801.257,440.71 							"/>
						</g>
						<g>
							<polygon style="fill:#DCDFE2;" points="752.463,422.999 743.283,459.083 768.342,470.883 775.623,468.24 785.475,473.84 
								798.373,447.576 							"/>
						</g>
						<g>
							<polygon style="fill:#DCDFE2;" points="692.346,340.715 697.285,321.298 666.621,309.73 665.684,323.565 692.779,339.014 
															"/>
						</g>
						<g>
							<polygon style="fill:#DCDFE2;" points="737.429,482.099 761.41,473.398 741.925,464.423 							"/>
						</g>
						<g>
							<polygon style="fill:#DCDFE2;" points="681.129,384.812 662.223,374.691 659.73,411.522 673.343,415.418 							"/>
						</g>
						<g>
							<polygon style="fill:#DCDFE2;" points="879.881,379.528 908.701,324.884 909.954,319.759 868.723,332.746 853.407,361.021 
															"/>
						</g>
						<g>
							<polygon style="fill:#F0E6DC;" points="671.755,421.659 659.291,418.008 657.128,449.952 663.851,452.737 							"/>
						</g>
						<g>
							<path style="fill:#DCDFE2;" d="M865.718,424.7l-37.523-17.138l-19.982,36.889l-5.233-2.815l59.158,31.815
								c5.029-11.762,10.51-23.334,15.506-34.488c4.241-9.469,8.645-18.864,13.198-28.186l-13.645-9.538L865.718,424.7z"/>
						</g>
						<g>
							<polygon style="fill:#DCDFE2;" points="826.576,393.033 837.103,373.21 775.994,330.49 768.584,359.621 							"/>
						</g>
						<g>
							<path style="fill:#DCDFE2;" d="M875.025,480.382l5.873,3.158l3.53-1.131c2.383-5.051,4.767-10.102,7.151-15.152
								c2.021-4.283,4.237-8.758,7.334-12.252l1.433-22.032c-8.181,11.881-15.837,24.151-21.42,37.432
								C877.543,473.693,876.289,477.04,875.025,480.382z"/>
						</g>
						<g>
							<path style="fill:#DCDFE2;" d="M899.597,393.311c1.259-2.447,2.523-4.891,3.804-7.326l2.873-44.183l-20.479,41.86
								L899.597,393.311z"/>
						</g>
						<g>
							<polygon style="fill:#DCDFE2;" points="691.006,345.983 665.055,332.856 662.795,366.246 683.077,377.153 							"/>
						</g>
						<g>
							<polygon style="fill:#DCDFE2;" points="856.979,335.785 840.847,339.959 792.062,315.624 789.376,316.258 846.238,356.009 
															"/>
						</g>
						<g>
							<polygon style="fill:#DCDFE2;" points="718.477,396.191 739.288,328.092 724.536,331.578 708.046,325.357 693.451,382.732 
															"/>
						</g>
						<g>
							<path style="fill:#DCDFE2;" d="M803.557,450.351l-11.382,27.297l38.117,21.665l0.502,0.285l24.017-7.698
								c1.412-3.912,2.916-7.815,4.5-11.703L803.557,450.351z"/>
						</g>
						<g>
							<polygon style="fill:#DCDFE2;" points="749.184,412.705 770.988,326.99 764.159,322.216 751.392,325.233 727.148,400.854 
															"/>
						</g>
						<g>
							<polygon style="fill:#474EBB;" points="691.509,390.368 670.211,474.097 686.174,481.054 698.635,448.164 722.369,464.034 
								718.312,489.036 730.933,484.456 747.272,420.22 							"/>
						</g>
						<g>
							<path style="fill:#8EC3CB;" d="M902.78,395.536l0.621-9.551c-1.281,2.436-2.545,4.88-3.804,7.326L902.78,395.536z"/>
						</g>
						<g>
							<path style="fill:#8EC3CB;" d="M877.644,438.963c-4.996,11.154-10.477,22.726-15.506,34.488l12.887,6.931
								c1.264-3.341,2.518-6.688,3.9-9.977c5.583-13.281,13.239-25.551,21.42-37.432l0.967-14.876l-10.472-7.32
								C886.289,420.099,881.884,429.494,877.644,438.963z"/>
						</g>
						<g>
							<path style="fill:#8EC3CB;" d="M854.812,491.901l16.489-5.285l-11.989-6.418
								C857.728,484.085,856.224,487.989,854.812,491.901z"/>
						</g>
						<g>
							<polygon style="fill:#FFFFFF;" points="691.006,345.983 691.006,345.983 683.077,377.153 693.451,382.732 708.046,325.357 
								697.285,321.298 692.346,340.715 							"/>
						</g>
						<g>
							<polygon style="fill:#FFFFFF;" points="681.129,384.812 673.343,415.418 677.323,416.556 672.637,421.918 671.755,421.659 
								663.851,452.737 665.368,453.366 662.292,458.865 662.292,458.865 659.594,469.47 666.734,472.582 687.973,388.475 							
								"/>
						</g>
						<g>
							<polygon style="fill:#FFFFFF;" points="687.973,388.475 666.734,472.582 670.211,474.097 691.509,390.368 							"/>
						</g>
						<g>
							<polygon style="fill:#FFFFFF;" points="742.491,458.71 743.283,459.083 752.463,422.999 751.681,422.58 							"/>
						</g>
						<g>
							<polygon style="fill:#FFFFFF;" points="741.13,464.057 736.451,482.454 737.429,482.099 741.925,464.423 							"/>
						</g>
						<g>
							<polygon style="fill:#FFFFFF;" points="749.184,412.705 754.371,415.495 766.835,366.496 763.295,364.127 766.213,358.255 
								768.584,359.621 775.994,330.49 770.988,326.99 							"/>
						</g>
						<g>
							<polygon style="fill:#FFFFFF;" points="740.724,463.87 741.219,458.111 742.491,458.71 751.681,422.58 747.272,420.22 
								730.933,484.456 736.451,482.454 741.13,464.057 							"/>
						</g>
						<g>
							<polygon style="fill:#FFFFFF;" points="683.077,377.153 662.795,366.246 662.223,374.691 681.129,384.812 							"/>
						</g>
						<g>
							<polygon style="fill:#FFFFFF;" points="747.918,417.683 749.184,412.705 727.148,400.854 726.72,402.189 716.902,401.344 
								718.477,396.191 693.451,382.732 692.047,388.251 							"/>
						</g>
						<g>
							<path style="fill:#FFFFFF;" d="M872.797,486.137l8.102-2.597l-5.873-3.158C874.297,482.307,873.559,484.228,872.797,486.137z
								"/>
						</g>
						<g>
							<path style="fill:#FFFFFF;" d="M801.257,440.71L801.257,440.71l-46.886-25.215l-1.909,7.504l45.911,24.577l0,0l5.184,2.775
								l0,0l55.755,29.847c0.919-2.256,1.866-4.504,2.826-6.747l-59.158-31.815L801.257,440.71z"/>
						</g>
						<g>
							<polygon style="fill:#FFFFFF;" points="692.047,388.251 691.509,390.368 747.272,420.22 747.918,417.683 							"/>
						</g>
						<g>
							<path style="fill:#FFFFFF;" d="M862.138,473.451c-0.96,2.243-1.906,4.492-2.826,6.747l11.989,6.418l1.496-0.48
								c0.763-1.909,1.5-3.83,2.228-5.755L862.138,473.451z"/>
						</g>
						<g>
							<polygon style="fill:#FFFFFF;" points="692.047,388.251 693.451,382.732 683.077,377.153 681.129,384.812 687.973,388.475 
								688.501,386.384 							"/>
						</g>
						<g>
							<polygon style="fill:#FFFFFF;" points="688.501,386.384 687.973,388.475 691.509,390.368 692.047,388.251 							"/>
						</g>
						<g>
							<polygon style="fill:#FFFFFF;" points="749.184,412.705 747.918,417.683 752.335,420.009 751.681,422.58 752.463,422.999 
								754.371,415.495 							"/>
						</g>
						<g>
							<polygon style="fill:#FFFFFF;" points="747.918,417.683 747.272,420.22 751.681,422.58 752.335,420.009 							"/>
						</g>
						<g>
							<path style="fill:#474EBB;" d="M884.428,482.409l12.973-4.158l1.512-23.246c-3.096,3.493-5.312,7.968-7.334,12.252
								C889.195,472.307,886.811,477.358,884.428,482.409z"/>
						</g>
						<g>
							<polygon style="fill:#FFFFFF;" points="741.925,464.423 761.41,473.398 768.342,470.883 743.283,459.083 							"/>
						</g>
						<g>
							<polygon style="fill:#FFFFFF;" points="741.13,464.057 741.925,464.423 743.283,459.083 742.491,458.71 							"/>
						</g>
						<g>
							<polygon style="fill:#FFFFFF;" points="741.219,458.111 740.724,463.87 741.13,464.057 742.491,458.71 							"/>
						</g>
						<g>
							<polygon style="fill:#FFFFFF;" points="798.373,447.576 785.475,473.84 792.175,477.648 803.557,450.351 							"/>
						</g>
						<g>
							<rect x="800.965" y="446.024" style="fill:#FFFFFF;" width="0" height="5.88"/>
						</g>
						<g>
							<polygon style="fill:#FFFFFF;" points="692.346,340.715 692.779,339.014 665.684,323.565 665.055,332.856 691.006,345.983 
															"/>
						</g>
						<g>
							<polygon style="fill:#FFFFFF;" points="692.346,340.715 691.006,345.983 691.006,345.983 							"/>
						</g>
						<g>
							<polygon style="fill:#EED5D5;" points="663.851,452.737 657.128,449.952 656.687,456.48 662.292,458.865 							"/>
						</g>
						<g>
							<polygon style="fill:#FFFFFF;" points="662.292,458.865 665.368,453.366 663.851,452.737 662.292,458.865 							"/>
						</g>
						<g>
							<polygon style="fill:#FFFFFF;" points="673.343,415.418 659.73,411.522 659.291,418.008 671.755,421.659 							"/>
						</g>
						<g>
							<polygon style="fill:#FFFFFF;" points="672.637,421.918 677.323,416.556 673.343,415.418 671.755,421.659 							"/>
						</g>
						<g>
							<polygon style="fill:#FFFFFF;" points="833.809,397.199 844.139,378.129 837.103,373.21 826.576,393.033 							"/>
						</g>
						<g>
							<polygon style="fill:#FFFFFF;" points="853.407,361.021 868.723,332.746 856.979,335.785 846.238,356.009 							"/>
						</g>
						<g>
							<polygon style="fill:#FFFFFF;" points="821.308,402.953 801.257,440.71 802.979,441.636 808.213,444.45 828.195,407.562 
								828.195,407.562 							"/>
						</g>
						<g>
							<polygon style="fill:#FFFFFF;" points="801.257,440.71 802.979,441.636 801.257,440.71 							"/>
						</g>
						<g>
							<polygon style="fill:#FFFFFF;" points="879.881,379.528 885.795,383.662 907.438,341.177 908.469,325.324 908.567,323.813 
															"/>
						</g>
						<g>
							<polygon style="fill:#FFFFFF;" points="865.718,424.7 877.197,401.238 871.176,397.03 862.787,413.895 833.809,397.199 
								828.195,407.562 							"/>
						</g>
						<g>
							<polygon style="fill:#FFFFFF;" points="826.576,393.033 768.584,359.621 766.835,366.496 821.308,402.953 							"/>
						</g>
						<g>
							<polygon style="fill:#FFFFFF;" points="766.213,358.255 763.295,364.127 766.835,366.496 768.584,359.621 							"/>
						</g>
						<g>
							<polygon style="fill:#FFFFFF;" points="828.195,407.562 828.195,407.562 833.809,397.199 826.576,393.033 821.308,402.953 
															"/>
						</g>
						<g>
							<polygon style="fill:#FFFFFF;" points="727.148,400.854 751.392,325.233 739.288,328.092 718.477,396.191 							"/>
						</g>
						<g>
							<polygon style="fill:#FFFFFF;" points="726.72,402.189 727.148,400.854 718.477,396.191 716.902,401.344 							"/>
						</g>
						<g>
							<polygon style="fill:#474EBB;" points="698.635,448.164 686.174,481.054 710.286,491.563 710.768,491.773 718.312,489.036 
								722.369,464.034 							"/>
						</g>
						<g>
							<polygon style="fill:#EBB044;" points="775.994,330.49 837.103,373.21 846.238,356.009 789.376,316.258 778.99,318.712 
															"/>
						</g>
						<g>
							<polygon style="fill:#EBB044;" points="772.716,320.194 764.159,322.216 770.988,326.99 							"/>
						</g>
						<g>
							<path style="fill:#EBB044;" d="M890.841,410.777c2.858-5.852,5.776-11.674,8.756-17.466l-13.802-9.649l-8.599,17.576
								L890.841,410.777z"/>
						</g>
						<g>
							<polygon style="fill:#EBB044;" points="871.176,397.03 879.881,379.528 853.407,361.021 844.139,378.129 							"/>
						</g>
						<g>
							<path style="fill:#EBB044;" d="M890.841,410.777l10.472,7.32l1.467-22.561l-3.183-2.225
								C896.617,399.102,893.699,404.925,890.841,410.777z"/>
						</g>
						<g>
							<polygon style="fill:#EBB044;" points="775.994,330.49 778.99,318.712 772.716,320.194 770.988,326.99 							"/>
						</g>
						<g>
							<polygon style="fill:#EBB044;" points="853.407,361.021 846.238,356.009 837.103,373.21 844.139,378.129 							"/>
						</g>
						<g>
							<polygon style="fill:#EBB044;" points="877.197,401.238 885.795,383.662 879.881,379.528 871.176,397.03 							"/>
						</g>
					</g>
					<g>
						<g style="opacity:0.1;">
							<polygon points="840.182,339.446 791.412,314.662 775.052,467.587 830.212,499.541 							"/>
						</g>
					</g>
					<g>
						<path style="fill:#EDEEEF;" d="M653.856,470.114c1.807,0.785,3.614,1.571,5.422,2.357c16.427,7.14,32.854,14.28,49.281,21.419
							c3.458,1.503,6.236-0.349,9.698-1.6c4.059-1.467,8.117-2.935,12.176-4.402c8.042-2.908,16.084-5.815,24.126-8.722
							c3.535-1.278,7.07-2.556,10.605-3.834c2.174-0.786,4.349-1.572,6.524-2.358c0.906-0.328,2.032-0.545,2.856-1.032
							c0.115-0.068,0.332-0.153,0.558-0.231c0.168,0.068,0.376,0.177,0.626,0.376c3.488,2.774,8.369,4.743,12.278,6.958
							c3.416,1.936,6.833,3.872,10.25,5.809c8.093,4.586,16.187,9.173,24.279,13.76c1.731,0.981,3.458,1.967,5.191,2.942
							c2.002,1.126,2.406,1.074,4.679,0.348c4.385-1.4,8.771-2.801,13.156-4.201c17.72-5.658,35.441-11.316,53.16-16.975
							c0.592-0.189,1.062-0.615,1.104-1.272c1.309-20.136,2.619-40.272,3.928-60.408c1.416-21.768,2.831-43.535,4.247-65.302
							c0.71-10.916,1.42-21.833,2.13-32.749c0.056-0.866-0.785-1.679-1.667-1.452c-16.648,4.29-33.295,8.58-49.943,12.871
							c-4.002,1.031-8.003,2.063-12.005,3.094c-1.787,0.46-3.99,1.469-5.873,1.568c-0.03-0.01-0.06-0.02-0.101-0.032
							c-0.537-0.159-1.077-0.536-1.575-0.784c-9.675-4.813-19.351-9.625-29.027-14.437c-3.983-1.982-7.967-3.963-11.951-5.944
							c-2.316-1.152-4.561-2.936-7.152-2.589c-8.215,1.1-16.533,3.891-24.611,5.792c-8.224,1.935-16.448,3.871-24.673,5.807
							c-3.979,0.936-7.959,1.873-11.939,2.81c-1.174,0.276-2.399,0.491-3.556,0.837c-0.418,0.125-1.503,0.179-1.235,0.286
							c-1.906-0.392-4.043-1.599-5.787-2.255c-17.79-6.693-35.58-13.387-53.37-20.079c-0.851-0.32-1.781,0.342-1.841,1.224
							c-1.411,20.839-2.823,41.679-4.233,62.518c-1.437,21.232-2.875,42.464-4.313,63.695c-0.785,11.595-1.571,23.189-2.356,34.784
							C652.882,469.358,653.29,469.869,653.856,470.114z M774.953,471.657C774.616,471.671,774.661,471.576,774.953,471.657
							L774.953,471.657z M718.955,329.508c1.685,0.634,3.667,1.825,5.456,2.053c1.35,0.172,2.878-0.456,4.178-0.762
							c2.908-0.685,5.814-1.369,8.722-2.053c7.897-1.859,15.795-3.717,23.692-5.576c7.968-1.875,15.937-3.75,23.905-5.626
							c1.808-0.426,3.63-0.815,5.428-1.278c1.606-0.412,1.384-0.323,1.885-0.173c1.213,0.363,2.484,1.235,3.623,1.802
							c2.507,1.247,5.015,2.494,7.522,3.741c10.297,5.122,20.594,10.244,30.891,15.365c1.865,0.927,4.355,2.837,6.49,2.865
							c1.713,0.023,3.823-0.985,5.48-1.412c3.04-0.784,6.08-1.567,9.12-2.35c17.296-4.457,34.591-8.915,51.887-13.372
							c-1.281,19.705-2.563,39.41-3.844,59.115c-1.383,21.269-2.766,42.538-4.149,63.807c-0.708,10.895-1.417,21.789-2.125,32.684
							c-15.003,4.79-30.005,9.581-45.008,14.372c-5.148,1.644-10.296,3.288-15.444,4.931c-1.539,0.491-3.076,0.983-4.614,1.474
							c-2.13,0.68-1.689,0.748-3.556-0.31c-7.629-4.321-15.256-8.646-22.884-12.969c-7.488-4.244-14.975-8.487-22.463-12.731
							c-2.113-1.197-4.58-3.181-6.907-3.914c-1.733-0.546-3.056,0.307-4.806,0.94c-3.136,1.133-6.271,2.267-9.407,3.4
							c-8.751,3.163-17.501,6.327-26.252,9.49c-3.754,1.357-7.508,2.714-11.262,4.071c-3.817,1.38-8.678,4.011-12.701,4.591
							c-2.706,0.391-8.062-2.908-11.079-4.219c-4.798-2.085-9.596-4.171-14.394-6.256c-8.717-3.788-17.433-7.577-26.149-11.365
							c-1.475-0.641-2.95-1.282-4.426-1.924c1.319-19.468,2.637-38.936,3.955-58.404c1.565-23.114,3.13-46.227,4.695-69.341
							c0.686-10.137,1.373-20.275,2.059-30.412c14.823,5.577,29.646,11.153,44.469,16.73
							C713.612,327.498,716.283,328.503,718.955,329.508z"/>
					</g>
				</g>
				<g>
					<path style="fill:#A0A2A5;" d="M774.818,471.672c-0.071-0.005-0.105-0.016-0.105-0.016l0.001-0.008
						c-0.003-0.001-0.004-0.002-0.004-0.002l-0.008-0.005l0.001-0.009c0.001-0.013,0.011-0.024,0.079-0.022l-0.002,0.028
						c0.011,0.002,0.025,0.004,0.04,0.004L774.818,471.672z"/>
				</g>
				<g>
					<path style="fill:#A0A2A5;" d="M775.014,469.41c-0.072-0.004-0.107-0.016-0.11-0.018l0.002-0.007
						c-0.005-0.002-0.008-0.004-0.009-0.005l-0.023-0.014l0.004-0.027c0.007-0.05,0.078-0.046,0.106-0.044l-0.002,0.026
						c0.01,0.002,0.023,0.004,0.038,0.005L775.014,469.41z"/>
				</g>
			</g>
		</g>
		<g>
			<g>
				<g>
					<g>
						<g>
							<path style="fill:#D34E4E;" d="M367.055,179.061c9.371,40.881-38.488,165.387-38.488,165.387s-97.313-91.228-106.684-132.109
								c-9.371-40.881,15.53-81.471,55.618-90.66C317.589,112.489,357.684,138.18,367.055,179.061z"/>
						</g>
						<g>
							
								<ellipse transform="matrix(0.9747 -0.2234 0.2234 0.9747 -35.566 70.4771)" style="fill:#FFFFFF;" cx="293.721" cy="192.438" rx="35.004" ry="35.697"/>
						</g>
					</g>
				</g>
			</g>
		</g>
		<g>
			<g>
				<g>
					<g>
						<g>
							<g>
								<path style="fill:#8EC3CB;" d="M611.338,194.792l48.068-0.726l-35.898,17.186c-9.172,4.391-20.677,7.254-33.247,8.274
									l-36.118,0.618L611.338,194.792z"/>
							</g>
						</g>
						<g>
							<g>
								<path style="fill:#8EC3CB;" d="M863.597,158.41c4.474-3.429,8.679-7.161,13.047-11.292
									c5.29-5.003,3.588-13.895-3.177-16.591l-15.862-6.322c-20.018-7.978-40.916-9.556-60.098-4.948l-146.669,40.25
									c-16.104,4.419-31.149,12.077-44.235,22.516l-7.469,5.958c-2.751,2.194-4.048,5.766-3.358,9.25
									c0.787,3.977,3.992,7.016,7.968,7.556l27.536,2.745c17.477-2.572,38.622-3.649,56.1-6.221
									c29.841-4.391,59.682-8.782,89.524-13.173c8.631-1.27,17.265-2.521,25.893-3.81c16.939-2.531,33.134-9.122,48.021-17.477
									C855.484,164.231,859.645,161.439,863.597,158.41z"/>
							</g>
						</g>
						<g>
							<g>
								<g>
									<path style="fill:#8EC3CB;" d="M767.234,194.966l-17.439,2.077c-2.58,0.307-4.464,2.576-4.29,5.167l0.352,5.248
										c0.174,2.591,2.344,4.6,4.943,4.575l17.899-0.172c1.808-0.018,3.495-1.009,4.286-2.63
										c2.266-4.638,0.632-9.131-0.942-11.882C771.076,195.659,769.167,194.735,767.234,194.966z"/>
								</g>
							</g>
							<g style="opacity:0.05;">
								<g>
									<path d="M759.988,196.159l-8.485,15.868l18.559-0.296c0,0-11.416-0.363-8.521-15.754L759.988,196.159z"/>
								</g>
							</g>
							<g>
								<g>
									<path style="fill:#474EBB;" d="M767.628,200.309c0.662,3.627,0.702,7.512-0.038,11.094
										c-0.029,0.14-0.072,0.267-0.105,0.404l1.693-0.001c1.672-0.002,3.223-0.977,3.941-2.59
										c2.054-4.613,0.503-9.115-0.978-11.878c-0.91-1.697-2.684-2.637-4.47-2.424l-1.356,0.162
										C766.896,196.85,767.325,198.649,767.628,200.309z"/>
								</g>
							</g>
						</g>
						<g>
							<g>
								<g>
									<path style="fill:#8EC3CB;" d="M742.949,222.339l-17.556,0.612c-2.597,0.09-4.661,2.193-4.699,4.789l-0.078,5.258
										c-0.039,2.596,1.961,4.779,4.554,4.971l17.858,1.325c1.803,0.134,3.566-0.713,4.488-2.262
										c2.638-4.431,1.377-9.043,0.033-11.915C746.722,223.352,744.895,222.272,742.949,222.339z"/>
								</g>
							</g>
							<g>
								<g>
									<path style="fill:#474EBB;" d="M743.82,227.666c0.363,3.669,0.085,7.543-0.945,11.049c-0.04,0.137-0.093,0.26-0.137,0.394
										l1.687,0.14c1.667,0.138,3.293-0.704,4.141-2.251c2.425-4.424,1.247-9.039-0.003-11.915
										c-0.768-1.767-2.46-2.851-4.257-2.788l-1.365,0.048C743.373,224.158,743.654,225.986,743.82,227.666z"/>
								</g>
							</g>
							<g style="opacity:0.05;">
								<g>
									<path d="M735.562,222.754l-9.757,15.098l18.526,1.257c0,0-11.351-1.315-7.206-16.407L735.562,222.754z"/>
								</g>
							</g>
						</g>
						<g>
							<g>
								<path style="fill:#8EC3CB;" d="M793.178,167.186l-89.744,97.421c-9.746,10.58-24.211,15.328-38.293,12.571l-5.307-1.039
									l52.246-102.61l82.036-9.371L793.178,167.186z"/>
							</g>
						</g>
						<g style="opacity:0.57;">
							<g>
								<path style="fill:#FFFFFF;" d="M856.03,123.592c0,0-4.49,6.382-19.798,7.779l3.181,9.541c0,0,19.027-2.563,27.509-12.994
									L856.03,123.592z"/>
							</g>
						</g>
						<g>
							<g>
								<polygon style="fill:#8EC3CB;" points="651.015,181.486 650.333,179.847 584.571,131.135 552.979,139.704 594.319,204.41 
																	"/>
							</g>
						</g>
					</g>
					<g style="opacity:0.1;">
						<g>
							<g>
								<path d="M776.467,164.852l-4.32,1.108c-0.63,0.161-1.279-0.228-1.442-0.866l-2.391-9.375
									c-0.163-0.638,0.22-1.292,0.85-1.454l4.319-1.108c0.63-0.162,1.279,0.228,1.442,0.866l2.391,9.375
									C777.48,164.037,777.098,164.691,776.467,164.852z"/>
							</g>
						</g>
						<g>
							<g>
								<path d="M787.91,161.918l-4.319,1.108c-0.63,0.162-1.279-0.228-1.442-0.866l-2.391-9.375
									c-0.162-0.638,0.22-1.292,0.851-1.454l4.32-1.108c0.63-0.161,1.279,0.228,1.442,0.866l2.391,9.375
									C788.923,161.102,788.541,161.756,787.91,161.918z"/>
							</g>
						</g>
						<g>
							<g>
								<path d="M800.058,158.803l-3.095,0.794c-0.967,0.248-1.962-0.35-2.212-1.328l-2.074-8.136
									c-0.25-0.979,0.337-1.982,1.305-2.23l3.095-0.794c0.967-0.248,1.963,0.35,2.212,1.328l2.075,8.136
									C801.612,157.551,801.025,158.555,800.058,158.803z"/>
							</g>
						</g>
					</g>
					<g style="opacity:0.04;">
						<g>
							<path d="M676.859,199.093c20.485-3.318,40.981-6.637,61.265-11.017c34.726-7.497,72.88-12.258,105.741-25.797
								c4.09-1.685,30.701-13.82,34.28-17.501c0.07-0.072,0.182,0.004,0.149,0.099c-0.959,2.809-12.506,11.574-14.697,13.533
								c-6.696,5.986-15.745,9.601-21.845,12.927c-5.543,3.022-14.974,7-21.071,8.618c-35.102,9.316-72.57,11.298-108.475,16.856
								c-14.548,2.252-28.962,5.38-43.581,7.118c-5.403,0.643-10.826,1.092-16.255,1.45c-3.285,0.217-9.994,1.894-12.616-0.225
								C651.935,202.483,664.543,201.088,676.859,199.093z"/>
						</g>
					</g>
				</g>
			</g>
		</g>
		<g>
			<g>
				<polygon style="fill:#3B455A;" points="771.173,702.648 781.659,699.683 798.537,725.248 781.659,725.248 771.497,720.065 				
					"/>
			</g>
			<g>
				<path style="fill:#6DAF8D;" d="M584.028,650.982c0,0-14.652,10.734-14.463,20.216c0,0-1.56,19.982,2.405,27.85l22.042,20.076
					l40.716-2.61l13.145-57.701L584.028,650.982z"/>
			</g>
			<g>
				<path style="fill:#7FC5A3;" d="M628.715,663.809c0,0-17.582-4.132-23.602,7.861l-11.979,22.123l21.109,28.115l159.915-0.513
					l-0.324-19.098l-51.736-14.602c4.546-3.056,8.346-7.891,10.632-12.81c4.097-8.816,0.899-15.342-2.398-23.626
					c-1.011-2.541-5.832-16.624-9.974-15.518C720.342,635.746,628.715,663.809,628.715,663.809z"/>
			</g>
			<g>
				<g>
					<g>
						<polygon style="fill:#DBA189;" points="534.482,445.248 527.102,432.089 532.589,428.689 539.638,436.582 541.487,433.77 
							546.43,445.799 541.204,450.103 						"/>
					</g>
				</g>
				<g>
					<g>
						<polygon style="fill:#D34E4E;" points="641.694,475.696 590.981,489.318 546.122,441.165 536.188,450.235 577.5,529.869 
							639.451,517.308 						"/>
					</g>
				</g>
			</g>
			<g>
				<g>
					<g>
						<path style="fill:#D34E4E;" d="M591.721,618.814c11.035-30.724,13.166-63.293,17.135-95.543
							c1.175-9.515,2.411-19.239,6.668-27.83c4.888-9.865,12.602-14.904,21.481-17.505c11.302-3.31,24.492-2.669,36.142-2.999
							c11.043,0.012,19.451,41.801,30.049,62.272c6.495,12.545,13.246,23.673,17.46,37.264c4.044,13.043,7.904,26.308,10.064,39.812
							c3.261,20.389,12.83,34.863,3.027,41.444c-0.888,0.262-1.742,0.522-2.554,0.783c-15.897,5.117-32.291,8.753-48.918,10.399
							c-14.749,1.46-29.677,1.327-44.377-0.607c-20.122-2.648-39.587-6.136-57.04-17.244
							C584.479,638.978,588.099,628.896,591.721,618.814z"/>
					</g>
				</g>
			</g>
			<g>
				<g>
					<g>
						<polygon style="fill:#DBA189;" points="678.203,625.975 668.584,637.598 663.437,633.703 668.262,624.285 664.973,623.573 
							674.416,614.629 680.313,617.956 						"/>
					</g>
				</g>
				<g>
					<g>
						<polygon style="fill:#D34E4E;" points="671.757,502.838 698.888,555.221 670.203,616.586 682.242,622.588 732.166,557.645 
							690.498,489.748 						"/>
					</g>
				</g>
			</g>
		</g>
		<g>
			<g>
				<g>
					<g>
						<g>
							<path style="fill:#EAEAEA;" d="M654.46,556.589l-26.3-2.557l0.742-7.633c0.028-0.287,0.283-0.496,0.57-0.469l25.261,2.456
								c0.287,0.028,0.497,0.283,0.469,0.57L654.46,556.589z"/>
						</g>
					</g>
					<g>
						<g>
							<path style="fill:#C7C8C9;" d="M660.679,699.594l-199.491-19.396c-1.06-0.103-1.836-1.046-1.733-2.107l13.467-138.511
								c0.103-1.06,1.046-1.836,2.107-1.733l199.491,19.396c1.06,0.103,1.836,1.046,1.733,2.107l-13.467,138.511
								C662.682,698.921,661.739,699.697,660.679,699.594z"/>
						</g>
						<g>
							
								<rect x="464.908" y="577.492" transform="matrix(0.9953 0.0968 -0.0968 0.9953 63.4486 -51.92)" style="fill:#EBB044;" width="204.172" height="101.343"/>
						</g>
					</g>
					<g>
						<polygon style="fill:#EAEAEA;" points="534.44,574.31 543.749,545.478 560.21,527.734 594.087,531.027 605.273,551.459 
							609.196,581.578 						"/>
					</g>
					<g>
						<path style="fill:#EAEAEA;" d="M513.254,564.754l-31.186-3.032c-0.325-0.032-0.563-0.321-0.532-0.646l1.072-11.022
							c0.032-0.325,0.321-0.563,0.646-0.532l31.187,3.032c0.325,0.032,0.563,0.321,0.532,0.646l-1.072,11.022
							C513.868,564.548,513.579,564.786,513.254,564.754z"/>
					</g>
					<g style="opacity:0.09;">
						<polygon points="534.44,574.31 534.031,592.242 607.363,600.432 609.196,581.578 						"/>
					</g>
					<g style="opacity:0.15;">
						<path d="M619.993,617.835c-1.583-4.357-3.782-8.472-6.505-12.226c0.378,0.876,0.73,1.764,1.057,2.662
							c3.502,9.636,3.758,20.17,0.905,29.958c-0.731,2.449-1.649,4.836-2.745,7.152c-4.321,9.136-11.62,16.82-20.575,21.838
							c-8.88,4.976-19.319,7.265-29.568,6.403c-10.622-0.893-20.808-5.018-28.946-11.744c-3.246-2.683-6.126-5.77-8.577-9.149
							c3.094,7.179,7.91,13.66,14.025,18.713c8.138,6.726,18.323,10.851,28.946,11.744c10.249,0.862,20.688-1.427,29.568-6.403
							c8.954-5.018,16.254-12.703,20.575-21.838c1.095-2.316,2.013-4.702,2.745-7.152
							C623.751,638.005,623.495,627.471,619.993,617.835z"/>
					</g>
					<g>
						<g>
							<g>
								<g>
									
										<ellipse transform="matrix(0.0968 -0.9953 0.9953 0.0968 -110.0085 1131.0936)" style="fill:#5E6474;" cx="568.188" cy="626.158" rx="48.79" ry="50.254"/>
								</g>
							</g>
							<g>
								<path style="fill:#EDEDED;" d="M613.87,600.898c-5.337-8.99-13.386-16.298-23-20.826c-9.933-4.678-21.388-6.191-32.218-4.32
									c-10.48,1.811-20.305,6.788-27.81,14.094c-7.601,7.4-12.714,16.937-14.571,27.258c-1.881,10.448-0.328,21.411,4.425,31
									c4.611,9.303,12.13,17.226,21.354,22.373c9.593,5.353,20.759,7.676,31.737,6.626c10.592-1.014,20.761-5.274,28.819-11.985
									c8.126-6.768,14.046-15.948,16.653-26.057c0.661-2.563,1.128-5.164,1.392-7.796
									C621.638,620.763,619.317,610.073,613.87,600.898z M606.34,658.301c-6.589,7.411-15.553,12.82-25.336,15.249
									c-10.226,2.538-21.194,1.882-31.051-1.884c-9.489-3.626-17.691-10.065-23.427-18.255
									c-11.923-17.024-11.386-40.175,1.192-56.583c6.032-7.869,14.489-13.83,24.051-17.01c9.937-3.305,20.983-3.413,31.043-0.386
									c19.918,5.993,34.327,23.804,35.641,43.986c0.165,2.54,0.097,5.088-0.141,7.619
									C617.3,641.112,613.141,650.652,606.34,658.301z"/>
							</g>
						</g>
						<g>
							
								<ellipse transform="matrix(0.0968 -0.9953 0.9953 0.0968 -110.0089 1131.0929)" style="fill:#3B455A;" cx="568.188" cy="626.158" rx="33.134" ry="34.128"/>
						</g>
					</g>
				</g>
			</g>
		</g>
	</g>
	<g style="opacity:0.1;">
		<polygon points="722.913,331.24 666.305,309.507 655.571,468.205 709.063,491.945 		"/>
	</g>
	<g>
		<g>
			<path style="fill:#DBA189;" d="M679.549,444.247c-5.666-19.178-33.14-26.688-40.295-4.846c-2.15,6.563-3.544,13.555-2.449,20.375
				c1.095,6.819,5.024,13.457,11.253,16.44c0.036,0.017,0.071,0.031,0.107,0.048c-0.304,1.751-0.608,3.501-0.912,5.252
				c-0.065,0.376-0.124,0.792,0.078,1.116c0.23,0.369,0.707,0.479,1.135,0.557c2.089,0.382,4.178,0.763,6.268,1.145
				c1.035,0.189,2.115,0.377,3.127,0.089c2.216-0.631,3.214-3.23,3.385-5.527c0.041-0.549,0.054-1.106,0.064-1.663
				C673.873,473.38,683.254,456.784,679.549,444.247z"/>
		</g>
		<g>
			<g>
				<path style="fill:#3B455A;" d="M646.871,410.75c-5.045-0.919-9.523,3.856-14.285,6.285c-3.961,2.021-8.393,2.446-12.484,4.095
					c-4.092,1.649-8.177,5.234-8.414,9.882c-4.018-2.26-8.375-4.587-12.984-3.853c-4.609,0.733-9.039,6.063-7.361,10.63
					c1.503,4.09,6.737,5.212,8.36,9.242c2.567,6.375-5.244,15.892-0.267,20.227c1.196,1.042,2.861,1.339,4.035,2.41
					c1.458,1.331,1.869,3.547,2.473,5.525c2.738,8.967,11.49,15.052,20.359,14.155c5.574-2.394,10.125-7.565,12.285-13.585
					c2.603-7.256-1.237-9.944-1.674-16.849c-0.478-7.547,2.174-15.436,7.101-21.124c3.206-3.701,7.723-6.835,12.398-7.128
					c1.901-0.119,1.253,1.442,3.432,0.046c0.936-0.6,2.261-2.938,2.558-4.07C657.438,422.371,653.51,411.96,646.871,410.75z"/>
			</g>
			<g>
				<path style="fill:#3B455A;" d="M701.387,422.291c2.592,0.813,5.435,0.799,7.891,1.973c3.689,1.763,3.336,5.64,4.285,9.049
					c1.051,3.774,2.593,8.845,4.962,11.831c1.707,2.152,4.154,3.426,6.265,5.113c2.11,1.686,4.021,4.136,3.88,7.047
					c-0.133,2.758-2.07,5.175-2.431,7.922c-0.464,4.098,0.178,6.225-1.226,10.383c-0.724,2.145-1.53,4.416-3.205,5.841
					c-2.207,1.878-5.258,1.741-7.925,1.205c-2.666-0.536-5.413-1.37-8.086-0.566c-5.796,1.741-4.915,7.575-6.599,12.385
					c-2.563,7.32-11.28,11.357-17.754,8.513c-5.49-2.411-8.499-8.975-8.04-15.342c0.23-3.188,1.598-6.121,1.794-9.314
					c0.189-3.079-1.409-7.402,1.464-9.757c0.7-0.573,1.582-0.859,2.216-1.518c0.512-0.533,0.811-1.259,1.006-1.988
					c0.677-2.527,0.208-5.323-1.23-7.322c-1.034-1.437-2.546-2.511-3.152-4.223c-0.694-1.962-0.021-4.207,0.177-6.344
					c0.479-5.165-2.187-10.332-6.432-12.471c-2.798-1.409-5.332-2.27-7.75-4.354c-0.368-0.317-5.855-5.493-6.036-4.42
					c0.315-1.869,1.465-3.477,2.624-4.947c1.906-2.417,4.012-4.764,6.633-6.164c8.472-4.526,8.51,6.636,15.232,5.387
					c1.622-0.301,2.882-1.738,4.36-2.571c2.792-1.575,6.135-0.871,8.894,0.468C695.963,419.444,698.468,421.375,701.387,422.291z"/>
			</g>
		</g>
	</g>
</g>
</svg>
