<?xml version="1.0" encoding="utf-8"?>
<!-- Generator: Adobe Illustrator 27.5.0, SVG Export Plug-In . SVG Version: 6.00 Build 0)  -->
<svg version="1.1" xmlns="http://www.w3.org/2000/svg" xmlns:xlink="http://www.w3.org/1999/xlink" x="0px" y="0px"
	 viewBox="0 0 500 500" width='500' height='500' style="enable-background:new 0 0 500 500;" xml:space="preserve">
<g id="Floor">
	<ellipse id="Floor_6_" style="fill:#F5F5F5;" cx="250.23" cy="349.357" rx="243.483" ry="138.201"/>
</g>
<g id="Shadows">
	<ellipse id="Shadow_37_" style="fill:#E0E0E0;" cx="248.851" cy="386.944" rx="57.271" ry="33.065"/>
	<ellipse id="Shadow_36_" style="fill:#E0E0E0;" cx="395.085" cy="386.945" rx="57.271" ry="33.065"/>
	<path id="Shadow_34_" style="fill:#E0E0E0;" d="M262.993,348.485l-90.345-52.161c-1.98-1.143-5.189-1.143-7.169,0l-4.541,2.62
		l-4.538-2.62c-1.98-1.143-5.189-1.143-7.169,0L25.763,367.548c-1.979,1.143-1.979,2.996,0,4.139l90.344,52.161
		c1.98,1.143,5.189,1.143,7.169,0l4.542-2.62l4.538,2.62c1.979,1.143,5.189,1.143,7.169,0l123.468-71.224
		C264.973,351.481,264.973,349.628,262.993,348.485z"/>
</g>
<g id="Clouds">
	<g id="Clouds_3_">
		<g>
			<g id="XMLID_16_">
				<path style="fill:#EBEBEB;" d="M359.399,40.324l3.408,1.135v-6.502c0-5.155,4.748-6.391,9.902-3.813l0,0
					c5.155,2.577,9.333,8.845,9.333,14v0.944c1.17-0.404,2.68-0.247,4.331,0.578h0c3.709,1.855,6.716,6.365,6.716,10.074v0.429
					l4.752,2.376c2.443,1.221,4.423,4.192,4.423,6.634c0,2.443-1.98,3.433-4.423,2.211l-38.443-19.222
					c-2.443-1.221-4.423-4.192-4.423-6.634C354.976,40.092,356.957,39.102,359.399,40.324z"/>
			</g>
			<g id="XMLID_15_">
				<path style="fill:#EBEBEB;" d="M409.265,44.981l6.179,3.089c-0.031-0.239-0.052-0.476-0.052-0.708v-1.55
					c0-2.758,2.236-3.877,4.995-2.497c1.117,0.558,2.145,1.444,2.977,2.479c0.452-3.469,3.594-4.761,7.411-2.852
					c4.127,2.064,7.473,7.082,7.473,11.209v2.319c0,1.069-0.228,1.969-0.633,2.687l5.132,2.566c1.53,0.765,2.771,2.626,2.771,4.156
					c0,1.53-1.241,2.15-2.771,1.385l-33.482-16.741c-1.53-0.765-2.771-2.626-2.771-4.156
					C406.494,44.837,407.735,44.216,409.265,44.981z"/>
			</g>
		</g>
	</g>
</g>
<g id="Plane_1_">
	<g id="Plane">
		<g id="XMLID_431_">
			<g id="XMLID_444_">
				<g id="XMLID_640_">
					<path style="fill:#27DEBF;" d="M135.472,57.959l-30.824-14.558l1.357-0.716l29.37,5.844l2.944-1.553
						c0.544-0.287,1.414-0.249,1.943,0.084c0.529,0.333,0.516,0.836-0.027,1.123l-1.808,0.953l10.128,2.114L135.472,57.959z"/>
				</g>
				<g id="XMLID_638_" style="opacity:0.1;">
					<g>
						<path d="M135.472,57.959l-30.824-14.558l1.357-0.716l29.37,5.844l2.944-1.553c0.544-0.287,1.414-0.249,1.943,0.084
							c0.529,0.333,0.516,0.836-0.027,1.123l-1.808,0.953l10.128,2.114L135.472,57.959z"/>
					</g>
				</g>
				<g id="XMLID_487_">
					<path style="fill:#27DEBF;" d="M144.095,50.264c13.89-7.285,25.131-11.416,28.521-9.281c3.39,2.135-4.743,8.224-18.562,15.553
						l-12.233,5.918C129.57,67.96,116.979,72.7,116.979,72.7l0.571,8.472l-1.221,0.644l-5.502-6.105c0,0-3.074,1.468-4.789,0.388
						c-1.715-1.08,1.095-2.715,1.095-2.715L97.07,69.686l1.221-0.644l14.59,1.077c0,0,9.305-6.809,19.902-13.355L144.095,50.264z"/>
				</g>
				<g id="XMLID_445_">
					<g id="XMLID_476_">
						<path style="fill:#27DEBF;" d="M159.225,60.144l-2.944,1.553l7.501,17.378l-1.357,0.716l-20.604-17.336l12.233-5.918
							l1.448,3.354l1.808-0.954c0.544-0.287,1.414-0.249,1.943,0.084C159.781,59.354,159.769,59.857,159.225,60.144z"/>
					</g>
					<g id="XMLID_446_" style="opacity:0.1;">
						<g>
							<path d="M159.225,60.144l-2.944,1.553l7.501,17.378l-1.357,0.716l-23.28-19.546l13.5-6.878l2.857,6.524l1.808-0.954
								c0.544-0.287,1.414-0.249,1.943,0.084C159.781,59.354,159.769,59.857,159.225,60.144z"/>
						</g>
					</g>
				</g>
			</g>
		</g>
		<g>
			<g>
				<path style="fill:#E0E0E0;" d="M99.398,79.322l-0.461-0.887c0.445-0.231,0.893-0.461,1.344-0.687l0.447,0.895
					C100.283,78.866,99.84,79.092,99.398,79.322z"/>
			</g>
			<g>
				<path style="fill:#E0E0E0;" d="M79.89,200.2c-0.809-0.58-1.599-1.175-2.369-1.781l0.619-0.785
					c0.759,0.597,1.537,1.182,2.334,1.754L79.89,200.2z M75.232,196.537c-0.743-0.639-1.484-1.306-2.203-1.982l0.686-0.729
					c0.707,0.667,1.438,1.323,2.17,1.953L75.232,196.537z M70.919,192.473c-0.684-0.704-1.361-1.437-2.014-2.178l0.75-0.661
					c0.643,0.729,1.309,1.45,1.98,2.142L70.919,192.473z M66.997,188.026c-0.618-0.773-1.223-1.567-1.797-2.358l0.809-0.588
					c0.565,0.779,1.161,1.561,1.77,2.321L66.997,188.026z M63.516,183.223c-0.538-0.823-1.063-1.671-1.56-2.519l0.863-0.506
					c0.488,0.834,1.005,1.668,1.534,2.478L63.516,183.223z M60.521,178.111c-0.454-0.868-0.895-1.763-1.309-2.659l0.908-0.42
					c0.407,0.882,0.84,1.762,1.287,2.616L60.521,178.111z M58.035,172.731c-0.369-0.914-0.721-1.848-1.044-2.774l0.943-0.33
					c0.319,0.912,0.665,1.83,1.028,2.729L58.035,172.731z M56.08,167.133c-0.281-0.949-0.542-1.912-0.775-2.861l0.971-0.238
					c0.23,0.934,0.487,1.881,0.764,2.816L56.08,167.133z M54.665,161.376c-0.19-0.964-0.36-1.947-0.505-2.923l0.988-0.146
					c0.143,0.959,0.31,1.927,0.497,2.876L54.665,161.376z M53.789,155.51c-0.101-0.981-0.18-1.968-0.236-2.955l0.998-0.059
					c0.057,0.974,0.134,1.944,0.232,2.912L53.789,155.51z M53.448,149.592c-0.004-0.3-0.006-0.598-0.006-0.895
					c0-0.689,0.011-1.379,0.031-2.069l1,0.029c-0.021,0.681-0.031,1.361-0.031,2.04c0,0.294,0.002,0.588,0.006,0.882L53.448,149.592
					z M54.626,143.738l-0.998-0.074c0.073-0.985,0.167-1.97,0.28-2.954l0.994,0.115C54.789,141.795,54.697,142.766,54.626,143.738z
					 M55.299,137.925l-0.988-0.158c0.155-0.974,0.331-1.947,0.526-2.92l0.981,0.197C55.624,136.003,55.452,136.963,55.299,137.925z
					 M56.452,132.188l-0.971-0.238c0.233-0.957,0.487-1.914,0.761-2.867l0.961,0.275C56.933,130.299,56.683,131.242,56.452,132.188z
					 M58.062,126.559l-0.949-0.314c0.31-0.936,0.638-1.869,0.984-2.799l0.938,0.35C58.692,124.713,58.368,125.635,58.062,126.559z
					 M60.111,121.076l-0.922-0.385c0.379-0.908,0.777-1.812,1.194-2.71l0.906,0.42C60.879,119.288,60.486,120.18,60.111,121.076z
					 M62.568,115.773l-0.891-0.455c0.447-0.875,0.912-1.746,1.395-2.61l0.873,0.486C63.468,114.048,63.009,114.907,62.568,115.773z
					 M65.416,110.668l-0.854-0.52c0.511-0.84,1.038-1.674,1.582-2.501l0.836,0.549C66.442,109.014,65.921,109.838,65.416,110.668z
					 M68.633,105.784l-0.814-0.58c0.569-0.801,1.156-1.595,1.76-2.381l0.793,0.609C69.776,104.209,69.197,104.993,68.633,105.784z
					 M72.193,101.144l-0.771-0.637c0.626-0.758,1.268-1.507,1.925-2.249l0.748,0.664C73.445,99.655,72.811,100.396,72.193,101.144z
					 M76.073,96.768l-0.725-0.689c0.677-0.712,1.369-1.415,2.077-2.109l0.699,0.715C77.426,95.368,76.742,96.064,76.073,96.768z
					 M80.247,92.671l-0.676-0.738c0.724-0.662,1.463-1.316,2.216-1.961l0.65,0.76C81.692,91.368,80.963,92.015,80.247,92.671z
					 M84.693,88.867l-0.625-0.781c0.768-0.613,1.548-1.216,2.343-1.809l0.598,0.803C86.223,87.665,85.451,88.262,84.693,88.867z
					 M89.383,85.37l-0.572-0.82c0.806-0.561,1.625-1.111,2.457-1.65l0.543,0.84C90.989,84.273,90.179,84.816,89.383,85.37z
					 M94.293,82.188l-0.518-0.855c0.84-0.508,1.692-1.004,2.558-1.489l0.488,0.873C95.965,81.196,95.123,81.686,94.293,82.188z"/>
			</g>
			<g>
				<path style="fill:#E0E0E0;" d="M83.613,202.701c-0.429-0.269-0.853-0.541-1.271-0.816l0.549-0.836
					c0.413,0.271,0.831,0.54,1.254,0.805L83.613,202.701z"/>
			</g>
		</g>
		<g>
			<g>
				<path style="fill:#E0E0E0;" d="M73.458,115.875l-0.889-0.457c0.235-0.459,0.477-0.905,0.724-1.336l0.867,0.496
					C73.921,114.997,73.687,115.43,73.458,115.875z"/>
			</g>
			<g>
				<path style="fill:#E0E0E0;" d="M98.609,187.766c-0.881-0.514-1.741-1.036-2.578-1.568l0.535-0.844
					c0.827,0.524,1.676,1.041,2.547,1.547L98.609,187.766z M93.514,184.531c-0.841-0.58-1.656-1.17-2.448-1.77l0.604-0.797
					c0.78,0.59,1.584,1.172,2.413,1.744L93.514,184.531z M88.696,180.888c-0.778-0.644-1.547-1.309-2.284-1.979l0.672-0.74
					c0.727,0.659,1.483,1.314,2.249,1.948L88.696,180.888z M84.223,176.826c-0.713-0.712-1.416-1.448-2.087-2.189l0.74-0.672
					c0.661,0.729,1.352,1.453,2.054,2.152L84.223,176.826z M80.161,172.346c-0.645-0.79-1.269-1.595-1.853-2.392l0.807-0.592
					c0.574,0.783,1.187,1.574,1.821,2.351L80.161,172.346z M76.584,167.468c-0.556-0.851-1.09-1.718-1.587-2.578l0.865-0.5
					c0.488,0.845,1.013,1.696,1.56,2.531L76.584,167.468z M73.552,162.23c-0.455-0.899-0.891-1.82-1.293-2.737l0.916-0.402
					c0.395,0.901,0.822,1.805,1.27,2.687L73.552,162.23z M71.121,156.687c-0.351-0.939-0.681-1.903-0.98-2.865l0.955-0.297
					c0.294,0.943,0.618,1.89,0.963,2.813L71.121,156.687z M69.32,150.907c-0.244-0.972-0.464-1.967-0.655-2.956l0.982-0.189
					c0.188,0.972,0.403,1.948,0.644,2.901L69.32,150.907z M68.174,144.965c-0.136-0.987-0.246-2.001-0.328-3.012l0.996-0.08
					c0.081,0.992,0.189,1.986,0.322,2.955L68.174,144.965z M67.682,138.93c-0.013-0.494-0.02-0.986-0.02-1.475
					c0-0.521,0.007-1.038,0.021-1.553l1,0.029c-0.015,0.505-0.021,1.013-0.021,1.524c0,0.48,0.007,0.963,0.02,1.449L67.682,138.93z
					 M68.848,132.963l-0.996-0.084c0.085-1.012,0.198-2.024,0.336-3.01l0.99,0.139C69.043,130.975,68.932,131.97,68.848,132.963z
					 M69.674,127.078l-0.98-0.195c0.198-0.993,0.427-1.986,0.681-2.953l0.967,0.254C70.092,125.131,69.868,126.106,69.674,127.078z
					 M71.186,121.339l-0.949-0.316c0.327-0.979,0.684-1.936,1.06-2.845l0.924,0.383C71.853,119.448,71.506,120.383,71.186,121.339z"
					/>
			</g>
			<g>
				<path style="fill:#E0E0E0;" d="M102.622,189.957c-0.451-0.231-0.897-0.464-1.338-0.7l0.473-0.881
					c0.435,0.232,0.875,0.463,1.32,0.69L102.622,189.957z"/>
			</g>
		</g>
	</g>
</g>
<g id="Plants">
	<g id="Plants_9_">
		<g id="XMLID_454_">
			<path style="fill:#27DEBF;" d="M460.521,305.75l-20.691,8.994l18.553-3.224c0,0-1.026,6.076-5.973,12.629
				c0,0-12.488,3.352-19.818,8.001l16.131-1.857c0,0,0.201,3.399-2,7.854c-0.166,0.335-0.344,0.677-0.532,1.018
				c-1.272,2.271-3.306,6.655-6.299,11.732c-0.002,0.01-0.002,0.01-0.012,0.008c-2.346,3.989-5.294,8.411-8.929,12.539
				c-1.643,1.873-3.426,3.679-5.371,5.372c-0.113,0.111-0.234,0.21-0.357,0.318c-2.456-2.427-5.037-4.838-7.746-7.223
				c-0.895-4.826-0.731-16.108,0.617-25.024c5.188-34.124,35.317-46.446,57.169-47.447
				C475.266,289.441,466.029,296.279,460.521,305.75z"/>
			<path style="opacity:0.25;" d="M460.521,305.75l-20.691,8.994l18.553-3.224c0,0-1.026,6.076-5.973,12.629
				c0,0-12.488,3.352-19.818,8.001l16.131-1.857c0,0,0.201,3.399-2,7.854c-0.166,0.335-0.344,0.677-0.532,1.018
				c-1.272,2.271-3.306,6.655-6.299,11.732c-0.002,0.01-0.002,0.01-0.012,0.008c-2.346,3.989-5.294,8.411-8.929,12.539
				c-1.643,1.873-3.426,3.679-5.371,5.372c-0.113,0.111-0.234,0.21-0.357,0.318c-2.456-2.427-5.037-4.838-7.746-7.223
				c-0.895-4.826-0.731-16.108,0.617-25.024c5.188-34.124,35.317-46.446,57.169-47.447
				C475.266,289.441,466.029,296.279,460.521,305.75z"/>
		</g>
		<g>
			<path style="fill:#27DEBF;" d="M487.344,333.278c0,0-0.01,0.01-0.03,0.02c-0.655,0.32-11.315,5.786-23.193,20.685l-17.643,1.463
				L459.112,360l-8.935,9.861l-18.02,0.558l13.195,4.582c0,0-6.956,8.64-17.265,11.9c-2.195-1.742-4.48-3.456-6.846-5.15
				c-0.723-0.511-1.465-1.021-2.208-1.532c-0.007-0.19-0.014-0.39-0.021-0.59c0-0.01,0-0.01,0-0.01
				c-0.203-6.664,1.17-16.475,8.469-26.67c1.94-2.712,4.315-5.108,6.995-7.209C449.845,333.663,475.356,331.004,487.344,333.278z"/>
			<path style="fill:#27DEBF;" d="M487.344,333.278c0,0-0.01,0.01-0.03,0.02c-0.527,0.442-9.163,7.698-22.668,22.393l-18.168-0.245
				L459.112,360l-8.935,9.861l-18.02,0.558l13.195,4.582c0,0-6.956,8.64-17.265,11.9c-2.195-1.742-4.48-3.456-6.846-5.15
				c-0.723-0.511-1.465-1.021-2.208-1.532c-0.007-0.19-0.014-0.39-0.021-0.59c0-0.01,0-0.01,0-0.01
				c-0.203-6.664,1.17-16.475,8.469-26.67c1.94-2.712,4.315-5.108,6.995-7.209C449.845,333.663,475.356,331.004,487.344,333.278z"/>
			<path style="opacity:0.1;" d="M487.344,333.278c-18.979-0.206-40.96,8.605-53.254,21.167c-1.533,1.568-2.878,3.249-4.104,5.021
				c-0.01,0-0.01,0.01-0.01,0.01c0,0.01,0,0.01-0.01,0.02c-3.055,4.466-5.158,9.406-6.603,13.905c0,0.01-0.01,0.01-0.01,0.01l0,0.01
				c-0.985,3.086-1.657,5.957-2.112,8.33c-0.723-0.511-1.465-1.021-2.208-1.532c-0.007-0.19-0.014-0.39-0.021-0.59
				c0-0.01,0-0.01,0-0.01c-0.203-6.664,1.17-16.475,8.469-26.67c1.94-2.712,4.315-5.108,6.995-7.209
				C449.845,333.663,475.356,331.004,487.344,333.278z"/>
		</g>
	</g>
</g>
<g id="Suitcases_1_">
	<g id="Suitcases">
		<g id="Suitcase">
			<path style="fill:#27DEBF;" d="M245.141,349.826l-115.366,66.606c-1.794,1.035-4.701,1.035-6.495,0l-81.854-47.259
				c-1.794-1.036-3.248-3.554-3.248-5.625v-42.948c0-2.071,1.454-4.59,3.248-5.625l115.365-66.606c1.794-1.035,4.702-1.035,6.495,0
				l81.855,47.259c1.794,1.035,3.248,3.554,3.248,5.625v42.948C248.389,346.272,246.935,348.791,245.141,349.826z"/>
			<path style="opacity:0.4;" d="M126.534,366.761v50.443c-1.18,0.01-2.35-0.25-3.25-0.77l-81.86-47.26
				c-1.79-1.04-3.24-3.55-3.24-5.63v-42.943c0-1.84,1.14-4.03,2.65-5.21c-1.18,1.03-0.99,2.43,0.58,3.34l81.86,47.25
				C124.174,366.501,125.353,366.761,126.534,366.761z"/>
			<path style="opacity:0.2;" d="M248.393,301.251v42.953c0,2.07-1.46,4.59-3.25,5.62l-115.37,66.61c-0.89,0.52-2.07,0.77-3.24,0.77
				v-50.443c1.17,0,2.33-0.26,3.23-0.78l115.37-66.6c1.67-0.97,1.78-2.49,0.34-3.54
				C247.113,296.971,248.393,299.311,248.393,301.251z"/>
			<g>
				<path style="fill:#27DEBF;" d="M41.418,314.976l115.365-66.606c1.794-1.036,4.702-1.036,6.495,0l81.855,47.259
					c1.794,1.035,1.794,2.714,0,3.75l-115.366,66.606c-1.794,1.035-4.702,1.035-6.495,0l-81.854-47.259
					C39.624,317.691,39.624,316.012,41.418,314.976z"/>
				<path style="opacity:0.3;" d="M41.418,314.976l115.365-66.606c1.794-1.036,4.702-1.036,6.495,0l81.855,47.259
					c1.794,1.035,1.794,2.714,0,3.75l-115.366,66.606c-1.794,1.035-4.702,1.035-6.495,0l-81.854-47.259
					C39.624,317.691,39.624,316.012,41.418,314.976z"/>
			</g>
			<path style="opacity:0.1;" d="M38.179,339.141l86.63,50.016c1.068,0.616,2.383,0.616,3.45,0l120.144-69.356l-0.015,4.689
				l-120.129,69.357c-1.068,0.616-2.383,0.616-3.451,0l-86.63-50.016V339.141z"/>
			<g>
				<g>
					<path style="fill:#455A64;" d="M111.113,358.941c-0.01-0.05-0.01-0.09-0.02-0.14c4.25-2,9.76-3.14,15.44-3.14
						c5.67,0,11.18,1.14,15.44,3.14c-0.01,0.05-0.01,0.09-0.02,0.14l-12.19,7.04c-0.9,0.52-2.06,0.78-3.23,0.78
						c-1.18,0-2.36-0.26-3.26-0.78l-12.16-7.02"/>
					<path style="fill:#455A64;" d="M245.133,295.647l-10.389-6.014c-7.417,4.336-7.394,11.32,0.081,15.636
						c0.021,0.012,0.043,0.021,0.064,0.033l10.245-5.905C246.926,298.362,246.926,296.683,245.133,295.647z"/>
					<path style="fill:#455A64;" d="M41.449,314.957l10.389-6.014c7.417,4.336,7.394,11.32-0.081,15.636
						c-0.021,0.012-0.043,0.021-0.063,0.033l-10.245-5.905C39.656,317.672,39.656,315.993,41.449,314.957z"/>
					<path style="fill:#455A64;" d="M174.601,254.908l-11.323-6.537c-1.794-1.036-4.702-1.036-6.495,0l-11.159,6.443
						c0.315,0.212,0.63,0.424,0.977,0.624c7.503,4.332,19.668,4.332,27.171,0C174.067,255.267,174.33,255.086,174.601,254.908z"/>
				</g>
				<g>
					<path style="fill:#37474F;" d="M141.954,358.941c-1.13,9.4-7.38,17.686-15.42,23.306v-15.486c1.17,0,2.33-0.26,3.23-0.78
						L141.954,358.941z"/>
					<path style="fill:#37474F;" d="M245.133,299.381l-10.307,5.945c0.028,8.618,6.094,11.093,13.577,6.776v-10.862
						c0-2.07-1.46-4.59-3.25-5.62l-0.73-0.43l-0.02,0.02l0.73,0.42C246.923,296.661,246.923,298.341,245.133,299.381z"/>
					<path style="fill:#37474F;" d="M248.389,344.201v-12.113c-7.493,4.339-13.565,14.862-13.565,23.518
						c0,0.058,0.007,0.11,0.008,0.168l10.691-6.212C247.134,348.411,248.389,346.121,248.389,344.201z"/>
					<path style="fill:#37474F;" d="M140.117,410.454c-0.028-8.62-6.097-12.108-13.583-7.786c0,0,0,0-0.001,0v14.541
						c1.17,0,2.33-0.26,3.23-0.78L140.117,410.454z"/>
				</g>
				<g>
					<path style="fill:#263238;" d="M126.534,366.761v15.486c-8.06-5.66-14.29-13.926-15.42-23.306l12.19,7.04
						C124.203,366.501,125.363,366.761,126.534,366.761z"/>
					<path style="fill:#263238;" d="M112.951,410.455l10.353,5.975c0.9,0.52,2.06,0.78,3.23,0.78v-14.541
						C119.048,398.346,112.979,401.834,112.951,410.455z"/>
					<path style="fill:#263238;" d="M38.568,351.84c-0.131-0.076-0.259-0.131-0.39-0.202v11.932c0,1.92,1.254,4.209,2.866,5.36
						l11.109,6.455c0-0.005,0.001-0.009,0.001-0.014C52.154,366.707,46.071,356.172,38.568,351.84z"/>
					<path style="fill:#263238;" d="M41.449,318.691l10.307,5.945c-0.028,8.618-6.094,12.106-13.577,7.79v-11.875
						c0-2.07,1.495-4.572,3.285-5.602l0,0C39.674,315.979,39.659,317.651,41.449,318.691z"/>
				</g>
			</g>
			<g>
				<path style="fill:#27DEBF;" d="M158.165,367.198l-6.393,3.69c-0.478,0.276-0.866,0.948-0.866,1.5l0.001,12.072
					c0,0.552,0.388,1.224,0.866,1.5l0.578,0.334c0.478,0.276,1.254,0.276,1.732,0l6.391-3.69c0.478-0.276,0.866-0.948,0.866-1.5
					l0.001-12.072c0-0.552-0.388-1.224-0.866-1.5l-0.578-0.334C159.419,366.921,158.643,366.921,158.165,367.198z"/>
				<path style="opacity:0.5;fill:#FFFFFF;" d="M158.165,367.198l-6.393,3.69c-0.478,0.276-0.866,0.948-0.866,1.5l0.001,12.072
					c0,0.552,0.388,1.224,0.866,1.5l0.578,0.334c0.478,0.276,1.254,0.276,1.732,0l6.391-3.69c0.478-0.276,0.866-0.948,0.866-1.5
					l0.001-12.072c0-0.552-0.388-1.224-0.866-1.5l-0.578-0.334C159.419,366.921,158.643,366.921,158.165,367.198z"/>
				<path style="opacity:0.1;" d="M153.883,386.381c-0.48,0.19-1.11,0.15-1.53-0.09l-0.58-0.33c-0.48-0.28-0.87-0.95-0.87-1.5
					v-12.07c0-0.29,0.11-0.6,0.27-0.88l2.3,1.35c-0.16,0.27-0.26,0.58-0.26,0.86v12.07
					C153.214,386.271,153.493,386.501,153.883,386.381z"/>
				<path style="opacity:0.1;fill:#27DEBF;" d="M153.883,386.381c-0.48,0.19-1.11,0.15-1.53-0.09l-0.58-0.33
					c-0.48-0.28-0.87-0.95-0.87-1.5v-12.07c0-0.29,0.11-0.6,0.27-0.88l2.3,1.35c-0.16,0.27-0.26,0.58-0.26,0.86v12.07
					C153.214,386.271,153.493,386.501,153.883,386.381z"/>
				<path style="fill:#27DEBF;" d="M153.217,373.722l0.001,12.072c0,0.552,0.388,0.776,0.866,0.5l6.391-3.69
					c0.478-0.276,0.866-0.948,0.866-1.5l0.001-12.072c0-0.552-0.388-0.776-0.866-0.5l-6.393,3.691
					C153.604,372.499,153.217,373.17,153.217,373.722z"/>
				<path style="opacity:0.2;fill:#FFFFFF;" d="M153.217,373.722l0.001,12.072c0,0.552,0.388,0.776,0.866,0.5l6.391-3.69
					c0.478-0.276,0.866-0.948,0.866-1.5l0.001-12.072c0-0.552-0.388-0.776-0.866-0.5l-6.393,3.691
					C153.604,372.499,153.217,373.17,153.217,373.722z"/>
			</g>
			<g>
				<path style="fill:#27DEBF;" d="M223.157,329.669l-6.393,3.69c-0.478,0.276-0.866,0.948-0.866,1.5l0.001,12.072
					c0,0.552,0.388,1.224,0.866,1.5l0.578,0.334c0.478,0.276,1.254,0.276,1.732,0l6.391-3.69c0.478-0.276,0.866-0.948,0.866-1.5
					l0.001-12.072c0-0.552-0.388-1.224-0.866-1.5l-0.578-0.334C224.411,329.393,223.636,329.393,223.157,329.669z"/>
				<path style="opacity:0.5;fill:#FFFFFF;" d="M223.157,329.669l-6.393,3.69c-0.478,0.276-0.866,0.948-0.866,1.5l0.001,12.072
					c0,0.552,0.388,1.224,0.866,1.5l0.578,0.334c0.478,0.276,1.254,0.276,1.732,0l6.391-3.69c0.478-0.276,0.866-0.948,0.866-1.5
					l0.001-12.072c0-0.552-0.388-1.224-0.866-1.5l-0.578-0.334C224.411,329.393,223.636,329.393,223.157,329.669z"/>
				<path style="opacity:0.1;" d="M218.873,348.851c-0.48,0.19-1.11,0.15-1.53-0.09l-0.58-0.33c-0.48-0.28-0.86-0.95-0.86-1.5
					v-12.07c-0.01-0.28,0.09-0.59,0.25-0.86l2.31,1.33v0.01c-0.16,0.27-0.25,0.57-0.25,0.85v12.07
					C218.214,348.741,218.493,348.971,218.873,348.851z"/>
				<path style="opacity:0.1;fill:#27DEBF;" d="M218.873,348.851c-0.48,0.19-1.11,0.15-1.53-0.09l-0.58-0.33
					c-0.48-0.28-0.86-0.95-0.86-1.5v-12.07c-0.01-0.28,0.09-0.59,0.25-0.86l2.31,1.33v0.01c-0.16,0.27-0.25,0.57-0.25,0.85v12.07
					C218.214,348.741,218.493,348.971,218.873,348.851z"/>
				<path style="fill:#27DEBF;" d="M218.209,336.194l0.001,12.072c0,0.552,0.388,0.776,0.866,0.5l6.391-3.69
					c0.478-0.276,0.866-0.948,0.866-1.5l0.001-12.072c0-0.552-0.388-0.776-0.866-0.5l-6.393,3.69
					C218.596,334.97,218.209,335.642,218.209,336.194z"/>
				<path style="opacity:0.2;fill:#FFFFFF;" d="M218.209,336.194l0.001,12.072c0,0.552,0.388,0.776,0.866,0.5l6.391-3.69
					c0.478-0.276,0.866-0.948,0.866-1.5l0.001-12.072c0-0.552-0.388-0.776-0.866-0.5l-6.393,3.69
					C218.596,334.97,218.209,335.642,218.209,336.194z"/>
			</g>
			<g>
				<path style="fill:#263238;" d="M176.749,372.952l0,4.885c0,0.366-0.257,0.81-0.573,0.993l-6.919,3.994
					c-0.316,0.183-0.83,0.183-1.146,0l-0.383-0.221c-0.317-0.183-0.573-0.627-0.573-0.993l0-4.884c0-0.366,0.257-0.81,0.573-0.993
					l6.919-3.995c0.316-0.183,0.83-0.183,1.146,0l0.383,0.221C176.492,372.142,176.749,372.587,176.749,372.952z"/>
				<path style="fill:#37474F;" d="M176.176,378.889l-6.919,3.994c-0.317,0.183-0.573,0.035-0.573-0.331l0-4.884
					c0-0.366,0.257-0.81,0.573-0.993l6.919-3.995c0.317-0.183,0.573-0.035,0.573,0.331l0,4.885
					C176.749,378.262,176.493,378.706,176.176,378.889z"/>
			</g>
			<g>
				<path style="fill:#263238;" d="M211.837,352.705l0,4.885c0,0.365-0.257,0.81-0.573,0.993l-6.919,3.994
					c-0.317,0.183-0.83,0.183-1.146,0l-0.383-0.221c-0.316-0.183-0.573-0.627-0.573-0.993l0-4.884c0-0.366,0.257-0.81,0.573-0.993
					l6.919-3.995c0.317-0.183,0.83-0.183,1.146,0l0.383,0.221C211.58,351.895,211.837,352.34,211.837,352.705z"/>
				<path style="fill:#37474F;" d="M211.264,358.642l-6.919,3.994c-0.316,0.183-0.573,0.034-0.573-0.331l0-4.884
					c0-0.366,0.257-0.81,0.573-0.993l6.919-3.995c0.316-0.183,0.573-0.035,0.573,0.331l0,4.885
					C211.837,358.015,211.58,358.459,211.264,358.642z"/>
			</g>
			<g>
				<path style="fill:#263238;" d="M209.815,356.137l-4.092,2.362l0.009,0.007v2.03l2.271,1.311v2.328
					c0,1.657-1.163,3.672-2.597,4.501l-26.03,15.048c-0.239,0.138-0.466,0.22-0.686,0.277c-0.058-0.216-0.099-0.449-0.099-0.72
					v-4.401l-1.812-1.046v-0.01l-0.008,0.005l-2.256-1.302l-4.071,2.34v2.03l2.273,1.313c0,1.064,0,2.462,0,3.999
					c0,1.014,0.361,1.759,0.996,2.229c0.355,0.263,1.738,1.023,2.027,1.197c1.506,0.906,4.274,0.498,7.446-1.336l22.003-12.719
					c4.782-2.764,8.658-7.708,8.658-11.043v-6.038L209.815,356.137z"/>
				<path style="fill:#37474F;" d="M174.529,387.265c0,3.335,3.876,3.798,8.658,1.034l22.003-12.719
					c4.782-2.764,8.658-7.708,8.658-11.043v-6.038l-4.033-2.362l-4.092,2.362l4.092,2.362v4.369c0,1.657-1.163,3.672-2.597,4.501
					l-26.03,15.048c-1.434,0.829-2.597,0.158-2.597-1.499v-4.401l-4.076-2.354l-4.071,2.34l4.085,2.359
					C174.529,381.227,174.529,383.93,174.529,387.265z"/>
				<polygon style="fill:#455A64;" points="209.815,356.137 205.732,358.506 209.817,360.865 213.848,358.499 				"/>
				<polygon style="fill:#455A64;" points="174.514,376.527 170.443,378.868 174.529,381.227 178.59,378.881 				"/>
			</g>
		</g>
		<path id="Shadow_8_" style="opacity:0.15;" d="M121.475,364.926l-83.292-48.21v46.828c0,1.896,1.209,4.137,2.778,5.308
			l65.494,37.578L121.475,364.926z"/>
		<path id="Shadow_9_" style="opacity:0.15;" d="M236.768,294.623l-80.048-46.216L41.418,314.976c-1.793,1.035-1.793,2.714,0,3.75
			l80.048,46.216l115.302-66.569C238.561,297.337,238.561,295.658,236.768,294.623z"/>
		<g id="Suitcase_1_">
			<path style="fill:#27DEBF;" d="M227.205,298.691l-115.366,66.606c-1.794,1.035-4.702,1.035-6.495,0L23.49,318.038
				c-1.794-1.036-3.248-3.554-3.248-5.625v-42.948c0-2.071,1.454-4.59,3.248-5.625l115.365-66.606c1.794-1.035,4.702-1.035,6.495,0
				l81.855,47.259c1.794,1.035,3.248,3.554,3.248,5.625v42.948C230.452,295.137,228.998,297.655,227.205,298.691z"/>
			<path style="opacity:0.45;fill:#FFFFFF;" d="M108.597,315.626v50.443c-1.18,0.01-2.35-0.25-3.25-0.77l-81.86-47.26
				c-1.79-1.04-3.24-3.55-3.24-5.63v-42.943c0-1.84,1.14-4.03,2.65-5.21c-1.18,1.03-0.99,2.43,0.58,3.34l81.86,47.25
				C106.237,315.366,107.417,315.626,108.597,315.626z"/>
			<path style="opacity:0.1;" d="M108.597,315.626v50.443c-1.18,0.01-2.35-0.25-3.25-0.77l-81.86-47.26
				c-1.79-1.04-3.24-3.55-3.24-5.63v-42.943c0-1.84,1.14-4.03,2.65-5.21c-1.18,1.03-0.99,2.43,0.58,3.34l81.86,47.25
				C106.237,315.366,107.417,315.626,108.597,315.626z"/>
			<path style="opacity:0.55;fill:#FFFFFF;" d="M230.457,250.116v42.953c0,2.07-1.46,4.59-3.25,5.62l-115.37,66.61
				c-0.89,0.52-2.07,0.77-3.24,0.77v-50.443c1.17,0,2.33-0.26,3.23-0.78l115.37-66.6c1.67-0.97,1.78-2.49,0.34-3.54
				C229.177,245.836,230.457,248.176,230.457,250.116z"/>
			<g>
				<path style="fill:#27DEBF;" d="M23.481,263.841l115.365-66.606c1.794-1.036,4.702-1.036,6.495,0l81.855,47.259
					c1.794,1.036,1.794,2.714,0,3.75L111.831,314.85c-1.794,1.035-4.702,1.035-6.495,0l-81.854-47.259
					C21.688,266.555,21.688,264.876,23.481,263.841z"/>
				<path style="opacity:0.65;fill:#FFFFFF;" d="M23.481,263.841l115.365-66.606c1.794-1.036,4.702-1.036,6.495,0l81.855,47.259
					c1.794,1.036,1.794,2.714,0,3.75L111.831,314.85c-1.794,1.035-4.702,1.035-6.495,0l-81.854-47.259
					C21.688,266.555,21.688,264.876,23.481,263.841z"/>
			</g>
			<g>
				<g>
					<path style="fill:#FFFFFF;" d="M31.532,266.966c-0.085,0-0.171-0.021-0.25-0.067l-2.049-1.183l2.049-1.183
						c0.238-0.14,0.545-0.058,0.683,0.183c0.139,0.239,0.057,0.545-0.183,0.683l-0.549,0.317l0.549,0.317
						c0.239,0.138,0.321,0.443,0.183,0.683C31.873,266.876,31.704,266.966,31.532,266.966z"/>
				</g>
				<g>
					<path style="fill:#FFFFFF;" d="M34.099,263.983c-0.172,0-0.341-0.09-0.433-0.25c-0.139-0.239-0.057-0.545,0.183-0.683
						l2.567-1.482c0.237-0.139,0.545-0.058,0.683,0.183c0.139,0.239,0.057,0.545-0.183,0.683l-2.567,1.482
						C34.27,263.962,34.185,263.983,34.099,263.983z M39.234,261.018c-0.172,0-0.341-0.09-0.433-0.25
						c-0.139-0.239-0.057-0.545,0.183-0.683l2.567-1.482c0.238-0.14,0.545-0.057,0.683,0.183c0.139,0.239,0.057,0.545-0.183,0.683
						l-2.567,1.482C39.405,260.997,39.319,261.018,39.234,261.018z M44.37,258.054c-0.172,0-0.341-0.09-0.433-0.25
						c-0.139-0.239-0.057-0.545,0.183-0.683l2.567-1.482c0.237-0.14,0.545-0.058,0.683,0.183c0.139,0.239,0.057,0.545-0.183,0.683
						l-2.567,1.483C44.541,258.032,44.455,258.054,44.37,258.054z M49.505,255.089c-0.172,0-0.341-0.09-0.433-0.25
						c-0.139-0.239-0.057-0.545,0.183-0.683l2.567-1.482c0.238-0.14,0.545-0.057,0.683,0.183c0.139,0.239,0.057,0.545-0.183,0.683
						l-2.567,1.482C49.676,255.067,49.59,255.089,49.505,255.089z M54.64,252.125c-0.172,0-0.341-0.09-0.433-0.25
						c-0.139-0.239-0.057-0.545,0.183-0.683l2.567-1.482c0.238-0.14,0.545-0.057,0.683,0.183c0.139,0.239,0.057,0.545-0.183,0.683
						l-2.567,1.482C54.811,252.103,54.724,252.125,54.64,252.125z M59.774,249.16c-0.172,0-0.341-0.09-0.433-0.25
						c-0.139-0.239-0.057-0.545,0.183-0.683l2.568-1.482c0.242-0.141,0.546-0.056,0.683,0.183c0.139,0.239,0.057,0.545-0.183,0.683
						l-2.568,1.482C59.945,249.139,59.859,249.16,59.774,249.16z M64.91,246.195c-0.172,0-0.341-0.09-0.433-0.25
						c-0.139-0.239-0.057-0.545,0.183-0.683l2.567-1.482c0.238-0.139,0.545-0.058,0.683,0.183c0.139,0.239,0.057,0.545-0.183,0.683
						l-2.567,1.483C65.081,246.174,64.995,246.195,64.91,246.195z M216.576,244.635c-0.085,0-0.171-0.021-0.25-0.067l-2.567-1.482
						c-0.239-0.138-0.321-0.443-0.183-0.683c0.138-0.238,0.444-0.321,0.683-0.183l2.567,1.482c0.239,0.138,0.321,0.443,0.183,0.683
						C216.917,244.545,216.748,244.635,216.576,244.635z M70.045,243.23c-0.172,0-0.341-0.09-0.433-0.25
						c-0.139-0.239-0.057-0.545,0.183-0.683l2.567-1.482c0.237-0.14,0.545-0.058,0.683,0.183c0.139,0.239,0.057,0.545-0.183,0.683
						l-2.567,1.482C70.216,243.209,70.13,243.23,70.045,243.23z M211.44,241.67c-0.085,0-0.171-0.021-0.25-0.067l-2.567-1.482
						c-0.239-0.138-0.321-0.443-0.183-0.683c0.138-0.239,0.444-0.32,0.683-0.183l2.567,1.482c0.239,0.138,0.321,0.443,0.183,0.683
						C211.781,241.58,211.612,241.67,211.44,241.67z M75.18,240.266c-0.172,0-0.341-0.09-0.433-0.25
						c-0.139-0.239-0.057-0.545,0.183-0.683l2.567-1.482c0.238-0.14,0.545-0.057,0.683,0.183c0.139,0.239,0.057,0.545-0.183,0.683
						l-2.567,1.482C75.351,240.244,75.265,240.266,75.18,240.266z M206.306,238.705c-0.085,0-0.171-0.021-0.25-0.067l-2.567-1.482
						c-0.239-0.138-0.321-0.443-0.183-0.683c0.138-0.239,0.444-0.321,0.683-0.183l2.567,1.482c0.239,0.138,0.321,0.443,0.183,0.683
						C206.646,238.615,206.477,238.705,206.306,238.705z M80.315,237.301c-0.172,0-0.341-0.09-0.433-0.25
						c-0.139-0.239-0.057-0.545,0.183-0.683l2.567-1.482c0.237-0.14,0.545-0.057,0.683,0.183c0.139,0.239,0.057,0.545-0.183,0.683
						l-2.567,1.482C80.486,237.279,80.4,237.301,80.315,237.301z M201.171,235.74c-0.085,0-0.171-0.021-0.25-0.067l-2.567-1.482
						c-0.239-0.138-0.321-0.443-0.183-0.683c0.137-0.239,0.443-0.32,0.683-0.183l2.567,1.482c0.239,0.138,0.321,0.443,0.183,0.683
						C201.512,235.65,201.343,235.74,201.171,235.74z M85.45,234.336c-0.172,0-0.341-0.09-0.433-0.25
						c-0.139-0.239-0.057-0.545,0.183-0.683l2.567-1.482c0.238-0.14,0.545-0.058,0.683,0.183c0.139,0.239,0.057,0.545-0.183,0.683
						l-2.567,1.482C85.621,234.314,85.535,234.336,85.45,234.336z M196.036,232.775c-0.085,0-0.171-0.022-0.25-0.067l-2.568-1.482
						c-0.239-0.138-0.321-0.443-0.183-0.683c0.138-0.239,0.444-0.32,0.683-0.183l2.568,1.482c0.239,0.138,0.321,0.443,0.183,0.683
						C196.377,232.685,196.208,232.775,196.036,232.775z M90.585,231.372c-0.172,0-0.341-0.09-0.433-0.25
						c-0.139-0.239-0.057-0.545,0.183-0.683l2.567-1.482c0.238-0.14,0.545-0.058,0.683,0.183c0.139,0.239,0.057,0.545-0.183,0.683
						l-2.567,1.482C90.756,231.35,90.67,231.372,90.585,231.372z M190.9,229.81c-0.085,0-0.171-0.021-0.25-0.067l-2.567-1.481
						c-0.239-0.138-0.321-0.443-0.183-0.683c0.137-0.239,0.441-0.322,0.683-0.183l2.567,1.482c0.239,0.138,0.321,0.443,0.183,0.683
						C191.241,229.721,191.073,229.81,190.9,229.81z M95.72,228.407c-0.172,0-0.341-0.09-0.433-0.25
						c-0.139-0.239-0.057-0.545,0.183-0.683l2.567-1.482c0.239-0.139,0.545-0.058,0.683,0.183c0.139,0.239,0.057,0.545-0.183,0.683
						l-2.567,1.482C95.891,228.386,95.805,228.407,95.72,228.407z M185.766,226.846c-0.085,0-0.171-0.021-0.25-0.067l-2.567-1.482
						c-0.239-0.138-0.321-0.443-0.183-0.683c0.138-0.239,0.444-0.321,0.683-0.183l2.567,1.482c0.239,0.138,0.321,0.443,0.183,0.683
						C186.106,226.757,185.937,226.846,185.766,226.846z M100.855,225.442c-0.172,0-0.341-0.09-0.433-0.25
						c-0.139-0.239-0.057-0.545,0.183-0.683l2.567-1.482c0.238-0.14,0.545-0.057,0.683,0.183c0.139,0.239,0.057,0.545-0.183,0.683
						l-2.567,1.482C101.026,225.421,100.94,225.442,100.855,225.442z M180.631,223.882c-0.085,0-0.171-0.021-0.25-0.067
						l-2.567-1.482c-0.239-0.138-0.321-0.443-0.183-0.683c0.138-0.239,0.444-0.32,0.683-0.183l2.567,1.482
						c0.239,0.138,0.321,0.443,0.183,0.683C180.972,223.792,180.803,223.882,180.631,223.882z M105.99,222.477
						c-0.172,0-0.341-0.09-0.433-0.25c-0.139-0.239-0.057-0.545,0.183-0.683l2.567-1.482c0.239-0.141,0.545-0.058,0.683,0.183
						c0.139,0.239,0.057,0.545-0.183,0.683l-2.567,1.482C106.161,222.456,106.075,222.477,105.99,222.477z M175.496,220.917
						c-0.085,0-0.171-0.021-0.25-0.067l-2.568-1.482c-0.239-0.138-0.321-0.443-0.183-0.683c0.138-0.238,0.445-0.321,0.683-0.183
						l2.568,1.482c0.239,0.138,0.321,0.443,0.183,0.683C175.837,220.827,175.668,220.917,175.496,220.917z M111.125,219.512
						c-0.172,0-0.341-0.09-0.433-0.25c-0.139-0.239-0.057-0.545,0.183-0.683l2.567-1.482c0.238-0.14,0.545-0.057,0.683,0.183
						c0.139,0.239,0.057,0.545-0.183,0.683l-2.567,1.482C111.296,219.491,111.21,219.512,111.125,219.512z M170.36,217.952
						c-0.085,0-0.171-0.021-0.25-0.067l-2.567-1.482c-0.239-0.138-0.321-0.443-0.183-0.683c0.138-0.239,0.444-0.32,0.683-0.183
						l2.567,1.482c0.239,0.138,0.321,0.443,0.183,0.683C170.701,217.862,170.532,217.952,170.36,217.952z M116.26,216.548
						c-0.172,0-0.341-0.09-0.433-0.25c-0.139-0.239-0.057-0.545,0.183-0.683l2.568-1.482c0.239-0.14,0.545-0.057,0.683,0.183
						c0.139,0.239,0.057,0.545-0.183,0.683l-2.568,1.482C116.431,216.526,116.345,216.548,116.26,216.548z M165.225,214.987
						c-0.085,0-0.171-0.021-0.25-0.067l-2.567-1.482c-0.239-0.138-0.321-0.443-0.183-0.683c0.137-0.239,0.444-0.32,0.683-0.183
						l2.567,1.482c0.239,0.138,0.321,0.443,0.183,0.683C165.566,214.897,165.397,214.987,165.225,214.987z M121.395,213.583
						c-0.172,0-0.341-0.09-0.433-0.25c-0.139-0.239-0.057-0.545,0.183-0.683l2.567-1.482c0.238-0.139,0.545-0.058,0.683,0.183
						c0.139,0.239,0.057,0.545-0.183,0.683l-2.567,1.482C121.566,213.561,121.48,213.583,121.395,213.583z M160.091,212.022
						c-0.085,0-0.171-0.021-0.25-0.067l-2.567-1.482c-0.239-0.138-0.321-0.443-0.183-0.683c0.138-0.238,0.445-0.321,0.683-0.183
						l2.567,1.482c0.239,0.138,0.321,0.443,0.183,0.683C160.432,211.932,160.263,212.022,160.091,212.022z M126.53,210.619
						c-0.172,0-0.341-0.09-0.433-0.25c-0.139-0.239-0.057-0.545,0.183-0.683l2.567-1.482c0.238-0.139,0.545-0.058,0.683,0.183
						c0.139,0.239,0.057,0.545-0.183,0.683l-2.567,1.482C126.701,210.598,126.615,210.619,126.53,210.619z M154.956,209.057
						c-0.085,0-0.171-0.021-0.25-0.067l-2.568-1.482c-0.239-0.138-0.321-0.443-0.183-0.683c0.137-0.239,0.444-0.32,0.683-0.183
						l2.568,1.482c0.239,0.138,0.321,0.443,0.183,0.683C155.297,208.968,155.128,209.057,154.956,209.057z M131.665,207.654
						c-0.172,0-0.341-0.09-0.433-0.25c-0.139-0.239-0.057-0.545,0.183-0.683l2.567-1.482c0.239-0.14,0.545-0.058,0.683,0.183
						c0.139,0.239,0.057,0.545-0.183,0.683l-2.567,1.483C131.836,207.633,131.75,207.654,131.665,207.654z M149.82,206.093
						c-0.085,0-0.171-0.021-0.25-0.067l-2.567-1.482c-0.239-0.138-0.321-0.443-0.183-0.683c0.138-0.239,0.445-0.321,0.683-0.183
						l2.567,1.482c0.239,0.138,0.321,0.443,0.183,0.683C150.161,206.003,149.992,206.093,149.82,206.093z M136.801,204.689
						c-0.172,0-0.341-0.09-0.433-0.25c-0.139-0.239-0.057-0.545,0.183-0.683l2.567-1.482c0.238-0.141,0.545-0.057,0.683,0.183
						c0.139,0.239,0.057,0.545-0.183,0.683l-2.567,1.482C136.972,204.668,136.886,204.689,136.801,204.689z M144.686,203.128
						c-0.085,0-0.171-0.022-0.25-0.067l-1.822-1.052c-0.012,0.022-0.21-0.051-0.519-0.051c-0.272,0-0.534-0.218-0.539-0.49
						c-0.005-0.272,0.17-0.498,0.441-0.509c0.007,0,0.091-0.001,0.098-0.001c0.496,0,0.851,0.105,0.981,0.166l1.859,1.071
						c0.239,0.138,0.321,0.443,0.183,0.683C145.026,203.038,144.857,203.128,144.686,203.128z"/>
				</g>
				<g>
					<path style="fill:#FFFFFF;" d="M219.145,247.618c-0.172,0-0.341-0.09-0.433-0.25c-0.139-0.239-0.057-0.545,0.183-0.683
						l0.549-0.317l-0.549-0.317c-0.239-0.138-0.321-0.443-0.183-0.683c0.138-0.239,0.444-0.32,0.683-0.183l2.049,1.183l-2.049,1.183
						C219.316,247.596,219.23,247.618,219.145,247.618z"/>
				</g>
				<g>
					<path style="fill:#FFFFFF;" d="M108.583,311.127c-0.495,0-0.849-0.104-0.979-0.166l-1.861-1.072
						c-0.239-0.138-0.321-0.443-0.183-0.683c0.138-0.238,0.445-0.321,0.683-0.183l1.824,1.053c0.005-0.02,0.208,0.051,0.517,0.051
						c0.272,0,0.534,0.218,0.539,0.49c0.006,0.272-0.169,0.498-0.44,0.509C108.675,311.126,108.59,311.127,108.583,311.127z
						 M111.31,309.877c-0.172,0-0.341-0.09-0.433-0.25c-0.139-0.239-0.057-0.545,0.183-0.683l2.567-1.482
						c0.237-0.14,0.545-0.057,0.683,0.183c0.139,0.239,0.057,0.545-0.183,0.683l-2.567,1.482
						C111.48,309.855,111.395,309.877,111.31,309.877z M103.425,308.474c-0.085,0-0.171-0.022-0.25-0.067l-2.567-1.482
						c-0.239-0.138-0.321-0.443-0.183-0.683c0.138-0.239,0.444-0.32,0.683-0.183l2.567,1.482c0.239,0.138,0.321,0.443,0.183,0.683
						C103.766,308.384,103.597,308.474,103.425,308.474z M116.444,306.912c-0.172,0-0.341-0.09-0.433-0.25
						c-0.139-0.239-0.057-0.545,0.183-0.683l2.568-1.482c0.239-0.141,0.545-0.057,0.683,0.183c0.139,0.239,0.057,0.545-0.183,0.683
						l-2.568,1.483C116.615,306.891,116.529,306.912,116.444,306.912z M98.29,305.509c-0.085,0-0.171-0.022-0.25-0.067l-2.567-1.482
						c-0.239-0.138-0.321-0.443-0.183-0.683c0.138-0.239,0.444-0.32,0.683-0.183l2.567,1.482c0.239,0.138,0.321,0.443,0.183,0.683
						C98.631,305.419,98.462,305.509,98.29,305.509z M121.58,303.948c-0.172,0-0.341-0.09-0.433-0.25
						c-0.139-0.239-0.057-0.545,0.183-0.683l2.567-1.483c0.237-0.14,0.545-0.057,0.683,0.183c0.139,0.239,0.057,0.545-0.183,0.683
						l-2.567,1.482C121.751,303.927,121.665,303.948,121.58,303.948z M93.155,302.544c-0.085,0-0.171-0.021-0.25-0.067l-2.568-1.482
						c-0.239-0.138-0.321-0.443-0.183-0.683c0.138-0.238,0.444-0.321,0.683-0.183l2.568,1.483c0.239,0.138,0.321,0.443,0.183,0.683
						C93.496,302.454,93.327,302.544,93.155,302.544z M126.715,300.983c-0.172,0-0.341-0.09-0.433-0.25
						c-0.139-0.239-0.057-0.545,0.183-0.683l2.567-1.482c0.238-0.14,0.545-0.058,0.683,0.183c0.139,0.239,0.057,0.545-0.183,0.683
						l-2.567,1.482C126.886,300.962,126.8,300.983,126.715,300.983z M88.02,299.579c-0.085,0-0.171-0.021-0.25-0.067l-2.567-1.482
						c-0.239-0.138-0.321-0.443-0.183-0.683c0.138-0.239,0.444-0.32,0.683-0.183l2.567,1.482c0.239,0.138,0.321,0.443,0.183,0.683
						C88.36,299.489,88.191,299.579,88.02,299.579z M131.85,298.018c-0.172,0-0.341-0.09-0.433-0.25
						c-0.139-0.239-0.057-0.545,0.183-0.683l2.567-1.482c0.238-0.139,0.546-0.058,0.683,0.183c0.139,0.239,0.057,0.545-0.183,0.683
						l-2.567,1.482C132.02,297.997,131.934,298.018,131.85,298.018z M82.885,296.614c-0.085,0-0.171-0.022-0.25-0.067l-2.567-1.482
						c-0.239-0.138-0.321-0.443-0.183-0.683c0.138-0.239,0.445-0.321,0.683-0.183l2.567,1.482c0.239,0.138,0.321,0.443,0.183,0.683
						C83.226,296.524,83.057,296.614,82.885,296.614z M136.985,295.054c-0.172,0-0.341-0.09-0.433-0.25
						c-0.139-0.239-0.057-0.545,0.183-0.683l2.567-1.482c0.238-0.14,0.545-0.057,0.683,0.183c0.139,0.239,0.057,0.545-0.183,0.683
						l-2.567,1.483C137.156,295.032,137.07,295.054,136.985,295.054z M77.75,293.649c-0.085,0-0.171-0.021-0.25-0.067l-2.567-1.482
						c-0.239-0.138-0.321-0.443-0.183-0.683c0.138-0.239,0.444-0.32,0.683-0.183L78,292.717c0.239,0.138,0.321,0.443,0.183,0.683
						C78.091,293.559,77.922,293.649,77.75,293.649z M142.12,292.089c-0.172,0-0.341-0.09-0.433-0.25
						c-0.139-0.239-0.057-0.545,0.183-0.683l2.567-1.482c0.238-0.14,0.546-0.058,0.683,0.183c0.139,0.239,0.057,0.545-0.183,0.683
						l-2.567,1.482C142.291,292.067,142.205,292.089,142.12,292.089z M72.614,290.684c-0.085,0-0.171-0.021-0.25-0.067l-2.567-1.482
						c-0.239-0.138-0.321-0.443-0.183-0.683c0.137-0.238,0.443-0.32,0.683-0.183l2.567,1.482c0.239,0.138,0.321,0.443,0.183,0.683
						C72.955,290.595,72.786,290.684,72.614,290.684z M147.255,289.124c-0.172,0-0.341-0.09-0.433-0.25
						c-0.139-0.239-0.057-0.545,0.183-0.683l2.567-1.482c0.237-0.14,0.545-0.057,0.683,0.183c0.139,0.239,0.057,0.545-0.183,0.683
						l-2.567,1.482C147.426,289.102,147.34,289.124,147.255,289.124z M67.479,287.72c-0.085,0-0.171-0.022-0.25-0.067l-2.567-1.482
						c-0.239-0.138-0.321-0.443-0.183-0.683c0.138-0.239,0.444-0.321,0.683-0.183l2.567,1.482c0.239,0.138,0.321,0.443,0.183,0.683
						C67.82,287.63,67.651,287.72,67.479,287.72z M152.391,286.159c-0.173,0-0.342-0.09-0.434-0.25
						c-0.139-0.239-0.057-0.545,0.183-0.683l2.568-1.482c0.239-0.141,0.545-0.057,0.683,0.183c0.139,0.239,0.057,0.545-0.183,0.683
						l-2.568,1.482C152.561,286.138,152.475,286.159,152.391,286.159z M62.345,284.755c-0.085,0-0.171-0.022-0.25-0.067
						l-2.567-1.481c-0.239-0.138-0.321-0.443-0.183-0.683c0.136-0.239,0.442-0.322,0.683-0.183l2.567,1.481
						c0.239,0.138,0.321,0.443,0.183,0.683C62.686,284.665,62.518,284.755,62.345,284.755z M157.525,283.194
						c-0.173,0-0.341-0.09-0.433-0.25c-0.139-0.239-0.057-0.545,0.183-0.683l2.567-1.482c0.239-0.14,0.545-0.057,0.683,0.183
						c0.139,0.239,0.057,0.545-0.183,0.683l-2.567,1.482C157.696,283.173,157.61,283.194,157.525,283.194z M57.21,281.791
						c-0.085,0-0.171-0.021-0.25-0.067l-2.567-1.482c-0.239-0.138-0.321-0.443-0.183-0.683c0.137-0.239,0.443-0.32,0.683-0.183
						l2.567,1.482c0.239,0.138,0.321,0.443,0.183,0.683C57.551,281.701,57.382,281.791,57.21,281.791z M162.66,280.23
						c-0.172,0-0.341-0.09-0.433-0.25c-0.139-0.239-0.057-0.545,0.183-0.683l2.567-1.482c0.238-0.139,0.545-0.058,0.683,0.183
						c0.139,0.239,0.057,0.545-0.183,0.683l-2.567,1.482C162.831,280.209,162.745,280.23,162.66,280.23z M52.074,278.826
						c-0.085,0-0.171-0.021-0.25-0.067l-2.567-1.482c-0.239-0.138-0.321-0.443-0.183-0.683c0.138-0.238,0.444-0.321,0.683-0.183
						l2.567,1.482c0.239,0.138,0.321,0.443,0.183,0.683C52.415,278.736,52.246,278.826,52.074,278.826z M167.795,277.266
						c-0.172,0-0.341-0.09-0.433-0.25c-0.139-0.239-0.057-0.545,0.183-0.683l2.567-1.482c0.238-0.14,0.545-0.057,0.683,0.183
						c0.139,0.239,0.057,0.545-0.183,0.683l-2.567,1.482C167.966,277.244,167.88,277.266,167.795,277.266z M46.939,275.861
						c-0.085,0-0.171-0.022-0.25-0.067l-2.567-1.482c-0.239-0.138-0.321-0.443-0.183-0.683c0.137-0.239,0.443-0.32,0.683-0.183
						l2.567,1.482c0.239,0.138,0.321,0.443,0.183,0.683C47.28,275.771,47.111,275.861,46.939,275.861z M172.931,274.301
						c-0.172,0-0.341-0.09-0.433-0.25c-0.139-0.239-0.057-0.545,0.183-0.683l2.567-1.482c0.238-0.14,0.545-0.057,0.683,0.183
						c0.139,0.239,0.057,0.545-0.183,0.683l-2.567,1.482C173.102,274.279,173.016,274.301,172.931,274.301z M41.805,272.896
						c-0.085,0-0.171-0.022-0.25-0.067l-2.567-1.482c-0.239-0.138-0.321-0.443-0.183-0.683c0.138-0.239,0.444-0.32,0.683-0.183
						l2.567,1.482c0.239,0.138,0.321,0.443,0.183,0.683C42.145,272.806,41.977,272.896,41.805,272.896z M178.065,271.336
						c-0.172,0-0.341-0.09-0.433-0.25c-0.139-0.239-0.057-0.545,0.183-0.683l2.567-1.483c0.238-0.14,0.545-0.057,0.683,0.183
						c0.139,0.239,0.057,0.545-0.183,0.683l-2.567,1.482C178.236,271.314,178.15,271.336,178.065,271.336z M36.67,269.931
						c-0.085,0-0.171-0.021-0.25-0.067l-2.568-1.482c-0.239-0.138-0.321-0.443-0.183-0.683c0.137-0.238,0.443-0.321,0.683-0.183
						l2.568,1.483c0.239,0.138,0.321,0.443,0.183,0.683C37.011,269.842,36.842,269.931,36.67,269.931z M183.2,268.371
						c-0.172,0-0.341-0.09-0.433-0.25c-0.139-0.239-0.057-0.545,0.183-0.683l2.567-1.482c0.237-0.14,0.545-0.058,0.683,0.183
						c0.139,0.239,0.057,0.545-0.183,0.683l-2.567,1.482C183.371,268.349,183.285,268.371,183.2,268.371z M188.335,265.406
						c-0.172,0-0.341-0.09-0.433-0.25c-0.139-0.239-0.057-0.545,0.183-0.683l2.568-1.482c0.238-0.139,0.545-0.058,0.683,0.183
						c0.139,0.239,0.057,0.545-0.183,0.683l-2.568,1.482C188.506,265.385,188.42,265.406,188.335,265.406z M193.471,262.441
						c-0.172,0-0.341-0.09-0.433-0.25c-0.139-0.239-0.057-0.545,0.183-0.683l2.567-1.482c0.237-0.14,0.545-0.057,0.683,0.183
						c0.139,0.239,0.057,0.545-0.183,0.683l-2.567,1.483C193.641,262.42,193.556,262.441,193.471,262.441z M198.605,259.477
						c-0.172,0-0.341-0.09-0.433-0.25c-0.139-0.239-0.057-0.545,0.183-0.683l2.567-1.483c0.238-0.14,0.545-0.057,0.683,0.183
						c0.139,0.239,0.057,0.545-0.183,0.683l-2.567,1.482C198.776,259.456,198.69,259.477,198.605,259.477z M203.74,256.513
						c-0.172,0-0.341-0.09-0.433-0.25c-0.139-0.239-0.057-0.545,0.183-0.683l2.567-1.482c0.238-0.14,0.545-0.058,0.683,0.183
						c0.139,0.239,0.057,0.545-0.183,0.683l-2.567,1.482C203.911,256.491,203.825,256.513,203.74,256.513z M208.876,253.548
						c-0.172,0-0.341-0.09-0.433-0.25c-0.139-0.239-0.057-0.545,0.183-0.683l2.567-1.482c0.238-0.14,0.545-0.057,0.683,0.183
						c0.139,0.239,0.057,0.545-0.183,0.683l-2.567,1.482C209.047,253.526,208.961,253.548,208.876,253.548z M214.011,250.583
						c-0.172,0-0.341-0.09-0.433-0.25c-0.139-0.239-0.057-0.545,0.183-0.683l2.567-1.482c0.238-0.14,0.545-0.057,0.683,0.183
						c0.139,0.239,0.057,0.545-0.183,0.683l-2.567,1.482C214.182,250.561,214.096,250.583,214.011,250.583z"/>
				</g>
			</g>
			<path style="opacity:0.1;" d="M20.242,288.006l86.63,50.016c1.068,0.616,2.383,0.616,3.451,0l120.144-69.356l-0.015,4.689
				l-120.129,69.357c-1.068,0.616-2.383,0.616-3.451,0l-86.63-50.016V288.006z"/>
			<g>
				<g>
					<path style="fill:#27DEBF;" d="M93.177,307.806c-0.01-0.05-0.01-0.09-0.02-0.14c4.25-2,9.76-3.14,15.44-3.14
						c5.67,0,11.18,1.14,15.44,3.14c-0.01,0.05-0.01,0.09-0.02,0.14l-12.19,7.04c-0.9,0.52-2.06,0.78-3.23,0.78
						c-1.18,0-2.36-0.26-3.26-0.78l-12.16-7.02"/>
					<path style="fill:#27DEBF;" d="M227.197,244.512l-10.389-6.014c-7.417,4.336-7.394,11.32,0.081,15.636
						c0.02,0.012,0.043,0.021,0.063,0.033l10.245-5.905C228.99,247.226,228.99,245.547,227.197,244.512z"/>
					<path style="fill:#27DEBF;" d="M23.513,263.822l10.389-6.014c7.417,4.336,7.394,11.32-0.081,15.636
						c-0.021,0.012-0.043,0.021-0.063,0.033l-10.245-5.905C21.719,266.536,21.719,264.858,23.513,263.822z"/>
					<path style="fill:#27DEBF;" d="M156.665,203.772l-11.323-6.537c-1.794-1.036-4.702-1.036-6.495,0l-11.159,6.443
						c0.315,0.212,0.63,0.424,0.977,0.624c7.503,4.332,19.668,4.332,27.171,0C156.13,204.131,156.393,203.95,156.665,203.772z"/>
				</g>
				<g>
					<path style="fill:#27DEBF;" d="M124.017,307.806c-1.13,9.4-7.38,17.686-15.42,23.306v-15.486c1.17,0,2.33-0.26,3.23-0.78
						L124.017,307.806z"/>
					<path style="fill:#27DEBF;" d="M227.197,248.246l-10.307,5.945c0.028,8.618,6.094,11.093,13.577,6.777v-10.862
						c0-2.07-1.46-4.59-3.25-5.62l-0.73-0.43l-0.02,0.02l0.73,0.42C228.987,245.526,228.987,247.206,227.197,248.246z"/>
					<path style="fill:#27DEBF;" d="M230.452,293.066v-12.113c-7.493,4.339-13.565,14.862-13.565,23.518
						c0,0.058,0.007,0.11,0.008,0.168l10.691-6.212C229.198,297.275,230.452,294.986,230.452,293.066z"/>
					<path style="fill:#27DEBF;" d="M122.181,359.319c-0.028-8.62-6.097-12.108-13.583-7.786c0,0,0,0-0.001,0v14.541
						c1.17,0,2.33-0.26,3.23-0.78L122.181,359.319z"/>
				</g>
				<g style="opacity:0.15;">
					<path d="M124.017,307.806c-1.13,9.4-7.38,17.686-15.42,23.306v-15.486c1.17,0,2.33-0.26,3.23-0.78L124.017,307.806z"/>
					<path d="M227.197,248.246l-10.307,5.945c0.028,8.618,6.094,11.093,13.577,6.777v-10.862c0-2.07-1.46-4.59-3.25-5.62l-0.73-0.43
						l-0.02,0.02l0.73,0.42C228.987,245.526,228.987,247.206,227.197,248.246z"/>
					<path d="M230.452,293.066v-12.113c-7.493,4.339-13.565,14.862-13.565,23.518c0,0.058,0.007,0.11,0.008,0.168l10.691-6.212
						C229.198,297.275,230.452,294.986,230.452,293.066z"/>
					<path d="M122.181,359.319c-0.028-8.62-6.097-12.108-13.583-7.786c0,0,0,0-0.001,0v14.541c1.17,0,2.33-0.26,3.23-0.78
						L122.181,359.319z"/>
				</g>
				<g>
					<path style="fill:#27DEBF;" d="M108.597,315.626v15.486c-8.06-5.66-14.29-13.926-15.42-23.306l12.19,7.04
						C106.267,315.366,107.427,315.626,108.597,315.626z"/>
					<path style="fill:#27DEBF;" d="M95.015,359.319l10.353,5.975c0.9,0.52,2.06,0.78,3.23,0.78v-14.541
						C101.112,347.211,95.042,350.699,95.015,359.319z"/>
					<path style="fill:#27DEBF;" d="M20.632,300.704c-0.131-0.076-0.259-0.131-0.39-0.202v11.932c0,1.92,1.254,4.209,2.866,5.36
						l11.109,6.455c0-0.005,0.001-0.009,0.001-0.014C34.217,315.571,28.135,305.036,20.632,300.704z"/>
					<path style="fill:#27DEBF;" d="M23.512,267.556l10.307,5.945c-0.028,8.618-6.094,12.106-13.577,7.79v-11.875
						c0-2.07,1.495-4.572,3.285-5.602l0,0C21.737,264.844,21.722,266.516,23.512,267.556z"/>
				</g>
				<g style="opacity:0.3;">
					<path d="M108.597,315.626v15.486c-8.06-5.66-14.29-13.926-15.42-23.306l12.19,7.04
						C106.267,315.366,107.427,315.626,108.597,315.626z"/>
					<path d="M95.015,359.319l10.353,5.975c0.9,0.52,2.06,0.78,3.23,0.78v-14.541C101.112,347.211,95.042,350.699,95.015,359.319z"
						/>
					<path d="M20.632,300.704c-0.131-0.076-0.259-0.131-0.39-0.202v11.932c0,1.92,1.254,4.209,2.866,5.36l11.109,6.455
						c0-0.005,0.001-0.009,0.001-0.014C34.217,315.571,28.135,305.036,20.632,300.704z"/>
					<path d="M23.512,267.556l10.307,5.945c-0.028,8.618-6.094,12.106-13.577,7.79v-11.875c0-2.07,1.495-4.572,3.285-5.602l0,0
						C21.737,264.844,21.722,266.516,23.512,267.556z"/>
				</g>
			</g>
			<g>
				<path style="fill:#27DEBF;" d="M140.229,316.062l-6.393,3.69c-0.478,0.276-0.866,0.948-0.866,1.5l0.001,12.072
					c0,0.552,0.388,1.224,0.866,1.5l0.578,0.334c0.478,0.276,1.254,0.276,1.732,0l6.391-3.69c0.478-0.276,0.866-0.948,0.866-1.5
					l0.001-12.072c0-0.552-0.388-1.224-0.866-1.5l-0.578-0.334C141.482,315.786,140.707,315.786,140.229,316.062z"/>
				<path style="opacity:0.3;" d="M140.229,316.062l-6.393,3.69c-0.478,0.276-0.866,0.948-0.866,1.5l0.001,12.072
					c0,0.552,0.388,1.224,0.866,1.5l0.578,0.334c0.478,0.276,1.254,0.276,1.732,0l6.391-3.69c0.478-0.276,0.866-0.948,0.866-1.5
					l0.001-12.072c0-0.552-0.388-1.224-0.866-1.5l-0.578-0.334C141.482,315.786,140.707,315.786,140.229,316.062z"/>
				<path style="opacity:0.1;" d="M135.947,335.246c-0.48,0.19-1.11,0.15-1.53-0.09l-0.58-0.33c-0.48-0.28-0.87-0.95-0.87-1.5
					v-12.07c0-0.29,0.11-0.6,0.27-0.88l2.3,1.35c-0.16,0.27-0.26,0.58-0.26,0.86v12.07
					C135.277,335.136,135.557,335.366,135.947,335.246z"/>
				<path style="fill:#27DEBF;" d="M135.28,322.587l0.001,12.072c0,0.552,0.388,0.776,0.866,0.5l6.391-3.69
					c0.478-0.276,0.866-0.948,0.866-1.5l0.001-12.072c0-0.552-0.388-0.776-0.866-0.5l-6.393,3.691
					C135.668,321.363,135.28,322.034,135.28,322.587z"/>
				<path style="opacity:0.2;" d="M135.28,322.587l0.001,12.072c0,0.552,0.388,0.776,0.866,0.5l6.391-3.69
					c0.478-0.276,0.866-0.948,0.866-1.5l0.001-12.072c0-0.552-0.388-0.776-0.866-0.5l-6.393,3.691
					C135.668,321.363,135.28,322.034,135.28,322.587z"/>
			</g>
			<g>
				<path style="fill:#27DEBF;" d="M205.221,278.534l-6.393,3.69c-0.478,0.276-0.866,0.948-0.866,1.5l0.001,12.072
					c0,0.552,0.388,1.224,0.866,1.5l0.578,0.334c0.478,0.276,1.254,0.276,1.732,0l6.391-3.69c0.478-0.276,0.866-0.948,0.866-1.5
					l0.001-12.072c0-0.552-0.388-1.224-0.866-1.5l-0.578-0.334C206.475,278.258,205.699,278.258,205.221,278.534z"/>
				<path style="opacity:0.3;" d="M205.221,278.534l-6.393,3.69c-0.478,0.276-0.866,0.948-0.866,1.5l0.001,12.072
					c0,0.552,0.388,1.224,0.866,1.5l0.578,0.334c0.478,0.276,1.254,0.276,1.732,0l6.391-3.69c0.478-0.276,0.866-0.948,0.866-1.5
					l0.001-12.072c0-0.552-0.388-1.224-0.866-1.5l-0.578-0.334C206.475,278.258,205.699,278.258,205.221,278.534z"/>
				<path style="opacity:0.1;" d="M200.937,297.716c-0.48,0.19-1.11,0.15-1.53-0.09l-0.58-0.33c-0.48-0.28-0.86-0.95-0.86-1.5
					v-12.07c-0.01-0.28,0.09-0.59,0.25-0.86l2.31,1.33v0.01c-0.16,0.27-0.25,0.57-0.25,0.85v12.07
					C200.277,297.606,200.557,297.836,200.937,297.716z"/>
				<path style="fill:#27DEBF;" d="M200.272,285.059l0.001,12.072c0,0.552,0.388,0.776,0.866,0.5l6.391-3.69
					c0.478-0.276,0.866-0.948,0.866-1.5l0.001-12.072c0-0.552-0.388-0.776-0.866-0.5l-6.393,3.691
					C200.66,283.835,200.272,284.507,200.272,285.059z"/>
				<path style="opacity:0.2;" d="M200.272,285.059l0.001,12.072c0,0.552,0.388,0.776,0.866,0.5l6.391-3.69
					c0.478-0.276,0.866-0.948,0.866-1.5l0.001-12.072c0-0.552-0.388-0.776-0.866-0.5l-6.393,3.691
					C200.66,283.835,200.272,284.507,200.272,285.059z"/>
			</g>
			<g>
				<path style="fill:#263238;" d="M158.813,321.817l0,4.885c0,0.366-0.257,0.81-0.573,0.993l-6.919,3.994
					c-0.316,0.183-0.83,0.183-1.146,0l-0.383-0.221c-0.317-0.183-0.573-0.627-0.573-0.993l0-4.884c0-0.366,0.257-0.81,0.573-0.993
					l6.919-3.995c0.316-0.183,0.83-0.183,1.146,0l0.383,0.221C158.556,321.007,158.813,321.451,158.813,321.817z"/>
				<path style="fill:#37474F;" d="M158.24,327.754l-6.919,3.994c-0.317,0.183-0.573,0.035-0.573-0.331l0-4.884
					c0-0.366,0.257-0.81,0.573-0.993l6.919-3.995c0.317-0.183,0.573-0.035,0.573,0.331l0,4.885
					C158.813,327.126,158.556,327.571,158.24,327.754z"/>
			</g>
			<g>
				<path style="fill:#263238;" d="M193.9,301.57l0,4.885c0,0.366-0.257,0.81-0.573,0.993l-6.919,3.994
					c-0.317,0.183-0.83,0.183-1.146,0l-0.383-0.221c-0.316-0.183-0.573-0.627-0.573-0.993l0-4.884c0-0.365,0.257-0.81,0.573-0.993
					l6.919-3.995c0.317-0.183,0.83-0.183,1.146,0l0.383,0.221C193.643,300.76,193.9,301.204,193.9,301.57z"/>
				<path style="fill:#37474F;" d="M193.327,307.506l-6.919,3.994c-0.316,0.183-0.573,0.034-0.573-0.331l0-4.884
					c0-0.366,0.257-0.81,0.573-0.993l6.919-3.995c0.316-0.183,0.573-0.035,0.573,0.331l0,4.885
					C193.9,306.879,193.644,307.324,193.327,307.506z"/>
			</g>
			<g>
				<path style="fill:#27DEBF;" d="M191.878,305.001l-4.092,2.362l2.279,1.316v0.002l-2.271-1.311v2.03l2.271,1.311v2.328
					c0,1.657-1.163,3.672-2.597,4.501l-26.03,15.048c-0.239,0.138-0.466,0.22-0.686,0.277c-0.058-0.216-0.099-0.449-0.099-0.72
					v-4.401l-1.812-1.046v-0.01l-0.008,0.005l-2.256-1.302l-4.071,2.34v2.03l2.273,1.313c0,1.064,0,2.462,0,3.999
					c0,1.014,0.361,1.759,0.996,2.229c0.355,0.263,1.738,1.023,2.027,1.197c1.506,0.906,4.274,0.498,7.446-1.336l22.003-12.719
					c4.782-2.764,8.658-7.708,8.658-11.043v-6.038L191.878,305.001z"/>
				<path style="opacity:0.4;" d="M191.878,305.001l-4.092,2.362l2.279,1.316v0.002l-2.271-1.311v2.03l2.271,1.311v2.328
					c0,1.657-1.163,3.672-2.597,4.501l-26.03,15.048c-0.239,0.138-0.466,0.22-0.686,0.277c-0.058-0.216-0.099-0.449-0.099-0.72
					v-4.401l-1.812-1.046v-0.01l-0.008,0.005l-2.256-1.302l-4.071,2.34v2.03l2.273,1.313c0,1.064,0,2.462,0,3.999
					c0,1.014,0.361,1.759,0.996,2.229c0.355,0.263,1.738,1.023,2.027,1.197c1.506,0.906,4.274,0.498,7.446-1.336l22.003-12.719
					c4.782-2.764,8.658-7.708,8.658-11.043v-6.038L191.878,305.001z"/>
				<path style="fill:#27DEBF;" d="M156.592,336.13c0,3.335,3.876,3.798,8.658,1.034l22.003-12.719
					c4.782-2.764,8.658-7.708,8.658-11.043v-6.038l-4.033-2.362l-4.092,2.362l4.092,2.362v4.369c0,1.657-1.163,3.672-2.597,4.501
					l-26.03,15.048c-1.434,0.829-2.597,0.158-2.597-1.499v-4.401l-4.076-2.354l-4.07,2.34l4.085,2.359
					C156.592,330.091,156.592,332.795,156.592,336.13z"/>
				<path style="opacity:0.2;" d="M156.592,336.13c0,3.335,3.876,3.798,8.658,1.034l22.003-12.719
					c4.782-2.764,8.658-7.708,8.658-11.043v-6.038l-4.033-2.362l-4.092,2.362l4.092,2.362v4.369c0,1.657-1.163,3.672-2.597,4.501
					l-26.03,15.048c-1.434,0.829-2.597,0.158-2.597-1.499v-4.401l-4.076-2.354l-4.07,2.34l4.085,2.359
					C156.592,330.091,156.592,332.795,156.592,336.13z"/>
				<polygon style="fill:#27DEBF;" points="191.878,305.001 187.796,307.37 191.881,309.729 195.911,307.364 				"/>
				<polygon style="opacity:0.3;" points="191.878,305.001 187.796,307.37 191.881,309.729 195.911,307.364 				"/>
				<polygon style="fill:#27DEBF;" points="156.577,325.392 152.507,327.732 156.592,330.091 160.654,327.746 				"/>
				<polygon style="opacity:0.3;" points="156.577,325.392 152.507,327.732 156.592,330.091 160.654,327.746 				"/>
			</g>
		</g>
	</g>
</g>
<g id="Character_2">
	<g id="Character_8_">
		<g>
			<path style="fill:#FFA8A7;" d="M389.674,147.124c-5.086-0.538-12.078,0.071-16.183,7.053
				c-1.334,2.273-8.179,16.887-13.247,29.445c-5.079-10.374-9.316-19.171-9.89-20.789c-1.543-4.332-1.278-7.121-2.848-11.589
				c-1.562-4.46-1.769-6.787-1.906-7.594c-0.298-1.758-1.935-0.654-2.544,0.053c-1.023,1.187-1.698,2.677-1.889,4.234
				c-0.17,1.388-0.139,3.111-1.372,3.771c-1.02,0.546-2.258-0.038-3.247-0.639c-3.717-2.256-7.209-4.882-10.408-7.827
				c-0.536-0.493-1.078-1.005-1.747-1.293c-0.669-0.287-1.505-0.306-2.074,0.149c-0.559,0.448-0.728,1.25-0.603,1.955
				c0.125,0.705,0.495,1.339,0.858,1.955c-1.148,0.504-1.83,1.749-2.003,2.991c-0.123,0.885,0.054,1.739-0.084,2.614
				c-0.155,0.989-0.254,2.009-0.005,2.991c0.338,1.334,1.271,2.429,2.232,3.414c2.041,2.09,4.234,3.918,6.662,5.509
				c1.589,1.041,3.163,2.106,4.72,3.192c1.43,0.998,3.079,1.901,4.119,3.318c1.908,2.6,2.951,5.707,4.15,8.667
				c1.86,4.566,4.586,17.209,10.357,26.621c3.325,5.421,8.438,7.67,13.036,1.922c2.391-2.99,4.969-7.058,6.682-10.488
				c6.568-13.153,11.164-24.192,11.164-24.192S392.199,159.028,389.674,147.124z"/>
			<path style="fill:#F28F8F;" d="M360.244,183.622c1.96,3.525,3.245,8.939,2.746,11.768c0,0,2.656-7.514-1.988-13.628
				L360.244,183.622z"/>
			<path style="fill:#EBEBEB;" d="M390.753,147.057c-5.372-0.527-11.683-1.771-17.262,6.239
				c-5.579,8.01-11.836,25.131-11.836,25.131s4.397,13.783,18.943,14.649L390.753,147.057z"/>
		</g>
		<g id="Backpack_1_">
			<g>
				<path style="fill:#27DEBF;" d="M463.748,188.894c-1.341,1.869-4.456-0.378-10.007-3.034c-5.552-2.657-1.317-27.984-1.317-27.984
					s9.135,0.752,10.121,9.408C463.53,175.94,463.748,188.894,463.748,188.894z"/>
				<path style="opacity:0.25;" d="M463.748,188.894c-1.341,1.869-4.456-0.378-10.007-3.034c-5.552-2.657-1.317-27.984-1.317-27.984
					s9.135,0.752,10.121,9.408C463.53,175.94,463.748,188.894,463.748,188.894z"/>
				<path style="fill:#27DEBF;" d="M419.653,140.585c-5.384-0.503-17.777,4.8-19.99,8.85c-2.323,4.249-14.033,63.29-9.868,69.213
					c5.226,7.433,32.533,23.306,44.992,23.868c10.278,0.464,20.754-8.195,22.527-10.817c2.905-4.295,4.406-65.87,1.549-71.286
					C454.233,151.636,426.513,141.226,419.653,140.585z"/>
				<path style="opacity:0.1;fill:#FFFFFF;" d="M419.653,140.585c-5.384-0.503-17.777,4.8-19.99,8.85
					c-2.323,4.249-14.033,63.29-9.868,69.213c5.226,7.433,32.533,23.306,44.992,23.868c10.278,0.464,20.754-8.195,22.527-10.817
					c2.905-4.295,4.406-65.87,1.549-71.286C454.233,151.636,426.513,141.226,419.653,140.585z"/>
				<path style="opacity:0.2;" d="M419.653,140.585c-5.384-0.503-17.777,4.8-19.99,8.85c-2.323,4.249-14.033,63.29-9.868,69.213
					c5.226,7.433,32.533,23.306,44.992,23.868c10.278,0.464,20.754-8.195,22.527-10.817c2.905-4.295,4.406-65.87,1.549-71.286
					C454.233,151.636,426.513,141.226,419.653,140.585z"/>
				<path style="fill:#27DEBF;" d="M460.336,191.814c0.038-2.58,0.058-5.13,0.057-7.598c0-0.987-0.003-1.961-0.01-2.918
					c-0.013-1.914-0.039-3.761-0.079-5.513c-0.02-0.876-0.043-1.728-0.07-2.553c-0.04-1.238-0.089-2.414-0.145-3.518
					c-0.057-1.104-0.122-2.135-0.195-3.082c-0.025-0.316-0.05-0.622-0.077-0.918c-0.237-2.667-0.553-4.54-0.955-5.301
					c-0.131-0.248-0.285-0.499-0.452-0.753c-0.055-0.083-0.115-0.167-0.173-0.251c-0.119-0.171-0.245-0.342-0.379-0.515
					c-0.078-0.101-0.157-0.202-0.24-0.303c-0.132-0.162-0.274-0.324-0.419-0.488c-0.091-0.103-0.177-0.206-0.273-0.309
					c-0.216-0.233-0.445-0.468-0.684-0.704c-0.154-0.152-0.318-0.305-0.481-0.457c-0.108-0.102-0.216-0.203-0.328-0.305
					c-0.183-0.166-0.371-0.332-0.563-0.499c-0.094-0.081-0.19-0.163-0.287-0.244c-0.214-0.181-0.43-0.363-0.655-0.545
					c-4.993,1.642-9.716,3.204-9.859,3.284c-0.307,0.17-5.458,2.753-5.798,10.298l-2.311,30.469l-0.227,2.895
					c-0.242,4.043-6.586,41.054,4.994,39.786c0.15-0.017,0.307-0.028,0.459-0.043c7.881-2.13,14.724-7.958,16.125-10.03
					c0.227-0.335,0.445-1.021,0.654-2.001c0.083-0.392,0.165-0.832,0.245-1.315c0.04-0.242,0.08-0.494,0.119-0.758
					c0.118-0.79,0.231-1.674,0.341-2.641c0.037-0.322,0.073-0.654,0.108-0.994c0.533-5.106,0.959-12.191,1.239-19.793
					c0.056-1.52,0.106-3.062,0.15-4.612c0.029-1.033,0.056-2.071,0.08-3.109c0.012-0.519,0.023-1.038,0.034-1.557
					C460.303,193.882,460.322,192.846,460.336,191.814z"/>
				<path style="opacity:0.4;" d="M459.624,163.876c-0.208-1.689-0.46-2.892-0.762-3.463c-4.63-8.777-32.349-19.188-39.21-19.829
					c-5.384-0.503-17.777,4.8-19.99,8.85c-0.36,0.658-0.936,2.583-1.637,5.385c10.337,6.542,37.183,21.373,40.123,20.552
					c3.613-1.008,21.127-11.01,21.469-11.48L459.624,163.876z"/>
				<g>
					<path style="fill:#27DEBF;" d="M461.658,204.076c-0.31-0.187-4.775-4.069-5.303-4.387c-0.931-0.56-15.621,7.908-17.032,9.423
						c-0.982,1.054-0.823,18.464-0.362,19.738c0.166,0.458,5.139,3.931,5.303,4.387c0.461,1.274,15.944-7.294,17.034-9.561
						C462.389,221.41,463.026,204.899,461.658,204.076z"/>
					<path style="opacity:0.18;" d="M461.658,204.076c-0.31-0.187-4.775-4.069-5.303-4.387c-0.931-0.56-15.621,7.908-17.032,9.423
						c-0.982,1.054-0.823,18.464-0.362,19.738c0.166,0.458,5.139,3.931,5.303,4.387c0.461,1.274,15.944-7.294,17.034-9.561
						C462.389,221.41,463.026,204.899,461.658,204.076z"/>
					<path style="fill:#27DEBF;" d="M444.626,213.499c-0.982,1.054-0.823,18.464-0.362,19.738
						c0.461,1.274,15.944-7.294,17.034-9.561c1.09-2.266,1.727-18.777,0.359-19.6C460.727,203.516,446.037,211.984,444.626,213.499z
						"/>
					<path style="opacity:0.4;" d="M456.358,199.693c0.524,0.31,4.987,4.2,5.295,4.382c-0.924-0.557-15.616,7.912-17.024,9.422
						l-5.305-4.382C440.733,207.594,455.425,199.126,456.358,199.693z"/>
					<path style="opacity:0.3;" d="M444.626,213.499c-0.982,1.054-0.823,18.464-0.362,19.738c0.461,1.274,15.944-7.294,17.034-9.561
						c1.09-2.266,1.727-18.777,0.359-19.6C460.727,203.516,446.037,211.984,444.626,213.499z"/>
					<path style="fill:#27DEBF;" d="M439.325,209.114c1.088-0.605,4.09,1.277,5.355,2.529c1.265,1.252,2.339,6.784,5.754,7.89
						c3.415,1.105,8.645-3.142,9.883-6.014c1.238-2.871,2.898-8.971,1.371-11.299c-1.527-2.328-4.38-3.737-6.934-2.582
						C452.2,200.793,439.815,206.425,439.325,209.114z"/>
					<path style="opacity:0.1;" d="M439.325,209.114c1.088-0.605,4.09,1.277,5.355,2.529c1.265,1.252,2.339,6.784,5.754,7.89
						c3.415,1.105,8.645-3.142,9.883-6.014c1.238-2.871,2.898-8.971,1.371-11.299c-1.527-2.328-4.38-3.737-6.934-2.582
						C452.2,200.793,439.815,206.425,439.325,209.114z"/>
					<path style="fill:#37474F;" d="M454.804,212.619c-0.801,0.367-1.417,1.401-1.378,2.311c0.04,0.91,0.723,1.372,1.525,1.031
						c0.802-0.341,1.419-1.376,1.378-2.311C456.288,212.714,455.605,212.252,454.804,212.619z"/>
				</g>
				<path style="fill:#27DEBF;" d="M437.758,175.402c0,0,2.427-7.031,11.45-11.436c9.024-4.406,9.17-2.805,11.6,2.238
					c2.187,4.537,2.039,20.876,2.047,22.441c0.009,1.565,1.892,1.404,2.308-8.564c0.416-9.968-0.311-19.59-9.182-26.144
					c-11.942-8.822-30.921-15.362-40.176-14.021c-9.254,1.341-17.759,5.344-17.78,14.903
					C398.026,154.819,408.736,171.438,437.758,175.402z"/>
				<path style="opacity:0.1;" d="M437.758,175.402c0,0,2.427-7.031,11.45-11.436c9.024-4.406,9.17-2.805,11.6,2.238
					c2.187,4.537,2.039,20.876,2.047,22.441c0.009,1.565,1.892,1.404,2.308-8.564c0.416-9.968-0.311-19.59-9.182-26.144
					c-11.942-8.822-30.921-15.362-40.176-14.021c-9.254,1.341-17.759,5.344-17.78,14.903
					C398.026,154.819,408.736,171.438,437.758,175.402z"/>
			</g>
			<g>
				<g>
					<path style="fill:#27DEBF;" d="M413.37,151.955c0,0-3.52,1.783-3.842,3.945c-0.323,2.162-1.725,7.316-0.927,8.8
						c0.799,1.484,3.527,1.843,3.946,0.857c0.419-0.986,1.18-7.2,1.872-8.779c0.692-1.579,3.419-3.473,3.419-3.473L413.37,151.955z"
						/>
					<path style="fill:#27DEBF;" d="M433.858,158.173c0,0-3.477,1.523-3.8,3.685c-0.323,2.162-1.755,7.107-0.956,8.591
						s3.527,1.843,3.946,0.857c0.419-0.986,1.18-7.2,1.872-8.779c0.692-1.579,3.446-3.081,3.446-3.081L433.858,158.173z"/>
				</g>
				<g style="opacity:0.3;">
					<path style="fill:#FFFFFF;" d="M413.37,151.955c0,0-3.52,1.783-3.842,3.945c-0.323,2.162-1.725,7.316-0.927,8.8
						c0.799,1.484,3.527,1.843,3.946,0.857c0.419-0.986,1.18-7.2,1.872-8.779c0.692-1.579,3.419-3.473,3.419-3.473L413.37,151.955z"
						/>
					<path style="fill:#FFFFFF;" d="M433.858,158.173c0,0-3.477,1.523-3.8,3.685c-0.323,2.162-1.755,7.107-0.956,8.591
						s3.527,1.843,3.946,0.857c0.419-0.986,1.18-7.2,1.872-8.779c0.692-1.579,3.446-3.081,3.446-3.081L433.858,158.173z"/>
				</g>
			</g>
			<g>
				<g>
					<path style="fill:#455A64;" d="M410.2,121.834L410.2,121.834c-1.958-0.661-4.351-0.028-6.717,2.057
						c-4.727,4.166-7.551,12.551-6.306,18.728c0.653,3.243,2.303,5.218,4.402,5.774l0,0.001l54.214,16.378l9.049-26.421
						l-15.262-2.335l-5.604-1.833l-18.833-5.965l-2.595-0.935L410.2,121.834z"/>
					<path style="fill:#37474F;" d="M457.934,140.327c-4.727,4.166-7.551,12.551-6.306,18.728c1.244,6.177,6.085,7.807,10.813,3.641
						c4.727-4.166,7.551-12.551,6.306-18.728C467.502,137.791,462.661,136.161,457.934,140.327z"/>
				</g>
				<path style="fill:#27DEBF;" d="M423.578,127.654c0,0-11.395,6.648-10.208,24.301l4.469,1.35c0,0-1.32-17.008,11.187-23.857
					L423.578,127.654z"/>
				<path style="fill:#27DEBF;" d="M443.977,134.183c0,0-11.413,6.276-10.226,23.928l4.484,1.357c0,0-1.161-16.603,11.346-23.453
					L443.977,134.183z"/>
				<g style="opacity:0.15;">
					<path d="M414.71,139.93c-1.053,3.258-1.662,7.233-1.34,12.025l4.468,1.35c0,0-0.43-5.615,1.571-11.692L414.71,139.93z"/>
					<path d="M434.794,147.124c-0.867,3.032-1.334,6.667-1.044,10.988l4.484,1.357c0,0-0.343-4.982,1.397-10.612L434.794,147.124z"
						/>
				</g>
				<path style="fill:#263238;" d="M465.076,146.4c-1.814-1.16-3.751,0.408-4.645,1.962c-0.772,1.341-0.886,2.831-0.887,4.352
					c0,0.608,0.014,1.309,0.369,1.831c0.319,0.47,0.877,0.694,1.29,0.207c0.163-0.192,0.013-0.776-0.304-0.711
					c-0.284,0.058-0.197,0.152-0.268,0.05c-0.084-0.12-0.053-0.441-0.055-0.588c-0.007-0.584,0.106-1.156,0.211-1.728
					c0.164-0.892,0.329-1.755,0.789-2.55c0.395-0.683,0.934-1.376,1.615-1.79c0.58-0.353,1.463-0.494,1.674,0.315
					c0.336,1.29-0.422,3.039-0.829,4.25c-0.588,1.751-1.365,3.552-2.562,4.981c-0.667,0.797-2.517,2.555-3.688,1.852
					c-1.078-0.646-1.067-2.928-1.077-3.971c-0.017-1.714,0.332-3.407,0.896-5.021c0.605-1.732,1.437-3.779,2.685-5.151
					c0.536-0.589,1.122-0.985,1.873-1.247c0.577-0.201,1.928-0.627,2.159,0.195c0.057,0.202,0.456,0.593,0.648,0.3
					c0.67-1.023-0.323-1.893-1.328-2.139c-1.599-0.391-3.23,0.112-4.494,1.102c-1.816,1.422-2.834,4.016-3.624,6.113
					c-0.846,2.245-1.264,4.667-1.053,7.066c0.164,1.873,0.771,4.229,2.887,4.702c2.27,0.508,4.642-1.156,5.916-2.908
					c1.451-1.994,2.287-4.447,2.764-6.848C466.331,149.533,466.567,147.353,465.076,146.4z"/>
			</g>
		</g>
		<g id="Botom_2_">
			<g id="XMLID_645_">
				<g id="XMLID_648_">
					<path id="XMLID_748_" style="fill:#FFA8A7;" d="M426.595,380.942c-3.403,1.826-7.169,1.678-11.216,0l-2.063-22.065l14.112-1.52
						L426.595,380.942z"/>
					<path id="XMLID_747_" style="fill:#FFA8A7;" d="M385.881,367.752c-2.874,6.215-8.061,4.494-13.908,0.514l1.026-22.173h14.1
						L385.881,367.752z"/>
					<g>
						<path id="XMLID_746_" style="fill:#263238;" d="M401.748,401.823c-0.375,0.352-0.262,2.759,0.151,3.408
							c0.443,0.695,2.986,2.865,7.586,3.194c4.395,0.315,8.32-0.278,10.9-1.917c2.58-1.638,3.83-3.445,4.073-5.949
							c0.243-2.504-0.036-4.919,1.158-6.847c1.102-1.779,2.858-3.785,3.241-4.75c0.832-2.099,0.03-5.099,0.03-5.099L401.748,401.823
							z"/>
						<path id="XMLID_745_" style="fill:#455A64;" d="M413.808,379.969c-0.074,0.929-0.231,1.852-0.537,2.784
							c-0.637,1.942-1.605,3.769-2.692,5.507c-0.559,0.895-1.151,1.774-1.833,2.586c-1.329,1.582-2.981,2.881-4.388,4.398
							c-1.408,1.517-2.603,3.358-2.714,5.396c-0.187,3.447,3.554,4.619,6.435,5.131c3.076,0.548,6.359,0.383,9.361-0.47
							c3.34-0.949,5.751-3.537,6.305-6.869c0.159-0.957,0.1-1.936,0.214-2.899c0.258-2.197,1.396-4.204,2.681-6.031
							c0.745-1.06,1.556-2.094,2.057-3.282c0.899-2.134,0.178-4.535-0.396-6.66c-0.497-1.836-0.878-3.898-1.524-3.725
							c-0.003,0.37-0.039,1.111-0.039,1.111c-0.212,0.4-0.668,0.597-0.801,1.062c-0.139,0.485-0.299,0.966-0.523,1.42
							c-0.342,0.692-0.848,1.326-1.53,1.688c-0.043-1.301-0.086-2.603-0.129-3.904c-0.013-0.403-0.039-0.839-0.3-1.146
							c-0.265-0.311-0.699-0.404-1.101-0.479c-2.435-0.453-4.916-0.907-7.375-0.61c-0.369,0.045-0.776,0.13-0.99,0.433
							c-0.176,0.248-0.173,0.577-0.164,0.881C413.861,377.544,413.904,378.761,413.808,379.969z"/>
						<path id="XMLID_744_" style="fill:#F5F5F5;" d="M410.114,388.983c1.284-0.961,4.16-0.974,5.733-0.806
							c1.97,0.211,3.565,0.902,4.47,1.569c0.401,0.296,0.963,0.245,1.316-0.104l0,0c0.425-0.419,0.386-1.109-0.097-1.465
							c-0.96-0.706-2.697-1.7-5.031-1.864c-3.87-0.273-5.006,0.391-5.006,0.391S409.735,387.84,410.114,388.983z"/>
						<path id="XMLID_636_" style="fill:#F5F5F5;" d="M407.162,392.515c1.615-0.954,4.778-0.817,6.351-0.648
							c1.97,0.211,3.442,0.986,4.348,1.653c0.401,0.296,0.963,0.245,1.316-0.104l0,0c0.425-0.419,0.386-1.109-0.097-1.465
							c-0.96-0.706-2.805-1.848-5.139-2.012c-3.87-0.272-4.879,0.518-4.879,0.518S407.43,391.089,407.162,392.515z"/>
						<path id="XMLID_552_" style="fill:#F5F5F5;" d="M418.047,382.609c-2.674-0.276-3.809,0.023-4.865,0.408
							c-0.682,0.382-1.131,1.46-0.692,1.732c0.861-0.478,2.412-0.677,4.313-0.592c1.275,0.057,2.882,0.573,4.185,1.15
							c0.331,0.147,0.723,0.353,1.066,0.543c0.463,0.257,1.051,0.074,1.274-0.396l0,0c0.188-0.399,0.048-0.874-0.335-1.106
							C422.056,383.782,420.208,382.832,418.047,382.609z"/>
					</g>
					<g>
						<path id="XMLID_521_" style="fill:#263238;" d="M348.874,381.937c-0.361,0.755-0.256,2.171,0.172,3.068
							c0.429,0.898,5.118,3.542,11.443,3.115c6.325-0.427,10.669-2.975,13.081-4.572c2.411-1.597,4.922-1.895,8.055-2.074
							c3.132-0.179,7.245-1.741,7.932-3.206c0.687-1.465-0.103-3.988-0.103-3.988L348.874,381.937z"/>
						<path id="XMLID_520_" style="fill:#455A64;" d="M374.294,362.486c-0.547-0.201-1.094-0.401-1.641-0.602
							c-0.301-0.11-0.635-0.221-0.935-0.108c-0.404,0.152-0.563,0.63-0.67,1.048c-0.22,0.855-0.31,1.964-0.69,2.748
							c-0.345,0.712-1.184,1.364-1.775,1.864c-1.534,1.298-3.298,2.315-5.062,3.263c-2.066,1.111-4.091,1.972-6.224,2.932
							c-2.176,0.979-5.065,1.577-6.768,2.725c-2.482,1.673-2.803,5.876,0.025,7.536c2.44,1.432,8.859,2.984,15.591,1.077
							c3.667-1.039,7.738-4.958,12.552-5.334c3.061-0.24,8.85-1.1,10.821-3.424c0.728-1.031-0.244-4.299-1.043-7.121
							c-0.871-3.079-1.203-7.896-2.224-7.625c-0.072,1.024-0.957,1.617-1.495,2.476c-0.475,0.759-0.742,1.626-1.099,2.447
							s-0.838,1.633-1.598,2.107c-0.76,0.473-1.856,0.501-2.479-0.141c-0.902-0.93-0.369-2.565-1.025-3.682
							c-0.445-0.758-1.334-1.112-2.159-1.414C375.695,362.999,374.994,362.742,374.294,362.486z"/>
						<path id="XMLID_519_" style="fill:#F5F5F5;" d="M366.379,369.034c0,0,0.44-1.174,2.261-1.513
							c1.393-0.259,3.853,0.767,5.382,2.027c0.626,0.516,0.544,1.495-0.165,1.887l0,0c-0.423,0.233-0.94,0.172-1.304-0.145
							C371.55,370.418,369.301,368.833,366.379,369.034z"/>
						<path id="XMLID_489_" style="fill:#F5F5F5;" d="M362.062,371.452c0,0,0.9-1.407,2.679-1.38c0,0,3.637,0.104,5.889,2.203
							c0.574,0.535,0.534,1.447-0.154,1.824v0c-0.409,0.225-0.908,0.165-1.256-0.146
							C368.205,373.048,366.172,371.145,362.062,371.452z"/>
						<path id="XMLID_488_" style="fill:#F5F5F5;" d="M357.295,373.631c0,0,1.003-1.273,2.782-1.246c0,0,3.389,0.127,5.64,2.225
							c0.574,0.535,0.535,1.446-0.154,1.824l0,0c-0.409,0.225-0.908,0.165-1.256-0.146
							C363.293,375.383,361.405,373.324,357.295,373.631z"/>
					</g>
					<path id="XMLID_649_" style="fill:#37474F;" d="M426.202,219.939c0.796,24.144,1.661,77.383,1.661,77.383
						c0.255,3.004,1.147,10.233,1.371,21.052c0.326,15.69-1.944,50.233-1.944,50.233s-6.541,3.521-13.405,0.66
						c0,0-7.444-49.583-9.837-65.052c-2.103-13.591-6.228-39.196-6.228-39.196l-3.264,32.869c0,0,0.501,9.44-1.123,19.886
						c-1.107,7.116-6.335,38.012-6.335,38.012s-7.65,2.194-15.126-0.332c0,0,0.126-50.668,0-57.259
						c-0.144-7.514,0.584-84.7,0.584-84.7L426.202,219.939z"/>
					<path style="fill:#263238;" d="M397.821,265.02l-3.571-19.784c0,0-9.898-0.865-15.365-6.384c0,0,0.974,5.41,13.418,8.656
						l3.569,20.018l-0.137,18.51L397.821,265.02z"/>
				</g>
			</g>
		</g>
		<g id="XMLID_650_">
			<path id="XMLID_743_" style="fill:#27DEBF;" d="M372.56,164.363c1.087-7.883,5.974-16.82,18.193-17.306l15.765,0.751
				c3.881,1.01,14.449,3.597,18.499,5.016l0.759,31.988c0,0,0.966,24.655,0.668,37.854c-11.29,7.159-38.805,8.588-54.237-3.122
				C371.75,208.648,371.483,172.17,372.56,164.363z"/>
			<path id="XMLID_1420_" style="opacity:0.4;fill:#FFFFFF;" d="M372.56,164.363c1.087-7.883,5.974-16.82,18.193-17.306
				l15.765,0.751c3.881,1.01,14.449,3.597,18.499,5.016l0.759,31.988c0,0,0.966,24.655,0.668,37.854
				c-11.29,7.159-38.805,8.588-54.237-3.122C371.75,208.648,371.483,172.17,372.56,164.363z"/>
			<g id="XMLID_660_">
				<g id="XMLID_730_">
					<path style="fill:#263238;" d="M373.5,113.071c0.285-8.762,7.618-15.634,16.381-15.35c8.197,0.266,14.738,6.703,15.315,14.706
						l7.298-5c0,0,2.635-0.364,4.611,1.791c1.936,2.113,0.61,8.488-2.089,14.686c0,0-2.805,11.353-3.842,13.2
						c-1.037,1.847-3.07,2.315-3.07,2.315l0.372-6.932l-28.794-2.58l2.888-1.979C377.035,125.302,373.288,119.585,373.5,113.071z"/>
					<path id="XMLID_1419_" style="fill:#FFA8A7;" d="M409.04,124.241c0.901,0.579,2.27-1.144,3.442-2.294
						c1.172-1.149,4.925-2.649,6.644,1.3c1.752,4.025-1.928,9.148-4.871,9.968c-5.071,1.413-5.72-1.832-5.72-1.832l-0.971,18.096
						c-4.484,4.693-19.242,3.059-16.318-1.009l0.193-5.511c0,0-4.571,0.543-6.779,0.128c-3.673-0.691-5.902-3.679-6.892-7.712
						c-1.59-6.477-2.105-11.682-0.169-24.257c2.122-13.782,18.22-13.404,26.733-7.651
						C412.845,109.219,409.04,124.241,409.04,124.241z"/>
					<path style="fill:#263238;" d="M374.311,98.157c1.182-0.617,2.597-0.641,3.904-0.378c-0.259-1.992,1.121-3.917,2.904-4.689
						c2.16-0.935,4.09-0.557,5.951,0.902c-0.365-1.41,0.936-2.817,2.365-3.102c1.428-0.285,2.884,0.229,4.236,0.774
						c2.011,0.81,3.988,1.705,6.032,2.429c3.602,1.275,7.445,2.034,10.688,4.055c0.765,0.477,1.503,1.034,2.017,1.775
						c0.72,1.036,0.943,2.353,0.863,3.612c-0.027,0.42-0.104,0.829-0.197,1.234c0.249-0.26,0.535-0.49,0.871-0.657
						c1.561-0.774,3.425-0.09,4.161,1.528l-5.508,2.73c0.117,1.102,0.233,2.203,0.325,3.308c0.243,2.916,0.747,6.318,0.039,9.201
						c-0.08,0.326-0.141,0.706-0.373,0.965c-0.285,0.319-0.543,0.561-0.762,0.956c-0.327,0.59-0.654,1.18-0.98,1.77
						c-0.436,0.788-1.131,1.695-2.152,1.577c-0.571-0.066-0.864-0.867-0.988-1.331c-1.371-5.147-1.326-10.627-3.053-15.666
						c-0.05-0.145-0.106-0.297-0.224-0.395c-0.186-0.154-0.457-0.124-0.695-0.087c-2.632,0.415-5.263,0.843-7.908,1.158
						c-5.994,0.714-12.421,0.759-17.643-2.269c-2.034-1.179-5.454-3.609-5.768-6.156C372.251,100.078,373.129,98.774,374.311,98.157
						z"/>
					<path id="XMLID_742_" style="fill:#F28F8F;" d="M391.438,142.958c0,0,8.295-1.393,11.226-2.831
						c1.962-0.962,3.608-2.688,4.111-3.811c0,0-0.619,2.428-2.414,4.575c-2.195,2.625-12.995,4.26-12.995,4.26L391.438,142.958z"/>
				</g>
				<g id="XMLID_661_">
					<path id="XMLID_729_" style="fill:#263238;" d="M392.154,122.684c-0.03,0.931,0.671,1.706,1.567,1.733
						c0.896,0.027,1.646-0.706,1.676-1.636c0.03-0.93-0.671-1.706-1.567-1.733C392.935,121.021,392.184,121.754,392.154,122.684z"/>
					<path id="XMLID_728_" style="fill:#263238;" d="M393.855,116.417l3.6,1.829c0.486-1.033,0.074-2.28-0.92-2.784
						C395.541,114.956,394.341,115.384,393.855,116.417z"/>
					<path id="XMLID_727_" style="fill:#B16668;" d="M393.336,132.124l-5.81,1.967c0.514,1.664,2.232,2.572,3.837,2.029
						C392.968,135.578,393.851,133.788,393.336,132.124z"/>
					<path style="fill:#F28F8F;" d="M393.377,133.89c-0.361-0.212-0.776-0.343-1.224-0.343c-1.34,0-2.426,1.086-2.426,2.426
						c0,0.074,0.015,0.143,0.022,0.215c0.518,0.122,1.072,0.116,1.615-0.068C392.395,135.772,393.122,134.905,393.377,133.89z"/>
					<path id="XMLID_688_" style="fill:#263238;" d="M378.292,117.44l3.229-2.285c-0.6-0.889-1.81-1.099-2.701-0.468
						S377.692,116.551,378.292,117.44z"/>
					<path id="XMLID_680_" style="fill:#263238;" d="M378.977,122.182c-0.03,0.93,0.671,1.706,1.567,1.732
						c0.895,0.027,1.646-0.706,1.676-1.636c0.03-0.93-0.671-1.706-1.567-1.733C379.758,120.519,379.007,121.252,378.977,122.182z"/>
					<polygon id="XMLID_678_" style="fill:#F28F8F;" points="387.002,121.013 386.515,131.024 380.633,129.546 					"/>
				</g>
			</g>
		</g>
		<g>
			<path id="XMLID_415_" style="fill:#27DEBF;" d="M413.209,149.441c0,0-8.681,8.796-9.319,24.761
				c-1.613,40.388,24.093,50.377,24.093,50.377c0.025-5.653-0.36-8.094-0.778-13.313c0,0-14.586-13.307-13.808-33.937
				c0.555-14.711,7.213-23.695,10.883-24.846C424.281,152.483,418.239,149.187,413.209,149.441z"/>
			<path id="XMLID_427_" style="opacity:0.4;" d="M413.209,149.441c0,0-8.681,8.796-9.319,24.761
				c-1.613,40.388,24.093,50.377,24.093,50.377c0.025-5.653-0.36-8.094-0.778-13.313c0,0-14.586-13.307-13.808-33.937
				c0.555-14.711,7.213-23.695,10.883-24.846C424.281,152.483,418.239,149.187,413.209,149.441z"/>
			<g>
				<path id="XMLID_404_" style="fill:#FFA8A7;" d="M437.295,224.234c-3.494-0.776-7.428-3.433-12.287-7.957
					c-6.967-6.488-8.852-8.652-14.156-14.822c-0.786-0.914-3.153-3.498-4.036-4.314c-0.875-0.808-2.706-2.862-4.245-5.149
					c-2.71-4.028-3.491-6.719-3.023-11.551c0.582-6.016,0.867-10.145,2.741-12.742c0.448-0.621,2.007-1.026,2.514-0.878
					c-0.294,1.076-0.375,2.261-0.568,3.33c0.378,2.273,0.447,2.977,2.445,5.287c2.471,2.856,4.294,4.522,4.572,3.91
					c0.299-0.659-0.605-2.486-0.333-5.546c0.26-2.923,1.096-4.168,2.027-4.412c1.485-0.39,1.488,1.222,2.133,3.656
					c0.769,2.903,2.042,4.488,2.236,8.784c0.17,3.765-0.007,5.285,1.751,7.433c0.978,1.195,6.158,4.919,6.158,4.919
					s-2.249-6.918-4.473-13.818c-4.36-13.53-2.652-25.628,2.688-27.702c7.629,0.343,12.322,3.391,15.825,14.424
					c3.726,11.733,5,16.717,8.052,39.725C449.581,223.88,443.141,225.532,437.295,224.234z"/>
				<path style="fill:#F28F8F;" d="M425.224,194.181c4.841,3.525,15.401,8.585,16.817,14.279c0,0-0.226-4.528-6.622-9.901
					c-6.396-5.373-11.415-8.135-11.415-8.135L425.224,194.181z"/>
				<path style="fill:#EBEBEB;" d="M423.439,152.66c2.625-0.611,7.052,0.298,10.897,3.724c3.845,3.427,5.818,10.163,7.696,16.208
					c1.879,6.045,4.927,22.038,4.927,22.038s-8.355,3.08-16.16,3.161c0,0-4.312-2.736-6.428-4.231c0,0-4.356-13.907-5.604-17.446
					C417.52,172.576,415.809,155.227,423.439,152.66z"/>
			</g>
		</g>
	</g>
</g>
<g id="Character_1">
	<g id="Character_4_">
		<g>
			<g>
				<path style="fill:#B16668;" d="M262.449,306.987l-11.121,42.421c0,0-4.589,2.703-8.547,0.036
					c-3.134-2.111-2.946-4.617-2.946-4.617l0.187-2.283l3.26-36.976L262.449,306.987z"/>
				<path style="fill:#37474F;" d="M252.139,224.781c6.504,22.653,17.508,61.163,14.398,73.147c-2.33,8.978-8.26,26.34-8.26,26.34
					c-3.922,0.554-14.881,2.394-18.006-4.477c-0.794-11.148-4.776-72.354-4.776-72.354L252.139,224.781z"/>
				<path style="opacity:0.25;" d="M235.495,247.437c0,0,6.063-5.597,11.475-12.551c0,0-0.83,5.364-8.233,12.768
					c0,0,12.402,47.771,12.332,55.39c-0.07,7.62-5.206,49.299-5.206,49.299L235.495,247.437z"/>
				<g id="XMLID_791_">
					<g id="XMLID_794_">
						<polygon id="XMLID_805_" points="239.217,366.08 247.566,363.73 251.355,358.909 240.764,362.051 						"/>
						<path style="fill:#263238;" d="M266.527,378.26l-11.658-8.14l-9.223-9.194l-4.304-0.413l0.91-2.419l-6.098-5.053
							c-1.085,2.424-1.223,8.128-1.223,8.128s0.661,2.6,4.285,4.911l0.704-1.789c0.261,2.454-0.089,7.965,2.331,11.876
							c2.631,4.252,7.573,5.315,11.564,6.142c4.657,0.965,10.216-0.067,11.247-0.629
							C266.096,381.117,266.736,379.482,266.527,378.26z"/>
						<path id="XMLID_795_" style="fill:#37474F;" d="M252.017,346.779l0.485-1.849c1.391,0.079,1.266,2.827,1.373,3.628
							c0.305,2.284,0.541,4.576,0.89,6.854c0.39,2.544,0.921,5.016,1.754,7.435c0.794,2.305,1.767,3.717,3.169,5.757
							c1.385,2.016,2.936,3.041,5.035,4.251c1.454,0.839,1.73,1.715,1.914,2.293c0.436,1.37,0.041,3.488-0.75,4.267
							c-1.358,1.338-3.136,1.535-5.206,1.794c-1.892,0.236-4.149-0.028-6.042-0.256c-3.294-0.396-6.648-1.523-9.359-3.462
							c-2.68-1.916-3.266-5.704-3.696-8.767c-0.35-2.492-0.131-5.404-1.162-7.746c-1.041-2.365-3.986-5.408-4.267-7.937
							c-0.154-1.389,0.157-3.949,1.32-6.193c1.067-2.06,1.845-4.678,2.546-4.304l-0.123,1.5c-0.007-0.113,0.69,2.882,4.98,3.948
							C246.908,348.497,250.735,348.479,252.017,346.779z"/>
						<path style="fill:#455A64;" d="M264.618,372.42c-1.737-1.201-3.68-2.262-4.93-3.816c-2.406-0.291-5.382-0.084-8.221,1.271
							c-5.844,2.788-7.456,6.71-6.188,7.617c2.711,1.939,6.065,3.066,9.359,3.462c1.893,0.228,4.15,0.492,6.042,0.256
							c2.07-0.259,3.848-0.456,5.206-1.794c0.79-0.778,1.185-2.897,0.75-4.267C266.452,374.57,266.178,373.498,264.618,372.42z"/>
					</g>
				</g>
			</g>
			<g>
				<g>
					<path id="XMLID_790_" style="fill:#B16668;" d="M246.478,321.406c0.115,2.801-1.015,45.727-0.949,46.993
						c0.12,2.311,0.736,3.918,1.256,6.164c0.23,0.995,0.53,1.697,0.955,2.687c0.425,0.992,1.241,2.344,0.764,3.312
						c-0.223,0.454-0.571,0.835-0.948,1.172c-1.679,1.503-3.993,2.208-6.245,2.118c-1.191-0.047-2.4-0.316-3.396-0.97
						c-2.007-1.317-2.795-3.714-3.873-5.735c-1.17-2.193-0.488-3.344-0.679-5.736c-0.214-2.672-6.343-42.909-6.912-45.529
						C230.749,320.937,241.047,320.029,246.478,321.406z"/>
				</g>
			</g>
			<g id="XMLID_789_">
				<path style="fill:#37474F;" d="M252.139,224.781c-5.301,10.991-7.387,15.391-16.645,22.656c0,0,11.323,47.08,11.824,56.215
					c0.835,15.196-0.479,26.319-1.178,36.645c-1.755,2.297-12.895,3.581-17.349,0.193c-1.101-5.511-2.581-14.092-3.324-19.867
					c-1.433-11.146,0.106-14.505,0.344-17.427c-6.004-15.307-19.478-37.651-24.41-53.653c-1.009-3.276-1.253-5.935-1.524-8.455
					c-1.093-10.146,3.055-17.902,5.495-23.322L252.139,224.781"/>
			</g>
			<polygon points="235.663,391.533 239.217,389.994 235.663,389.803 			"/>
			<path style="fill:#263238;" d="M230.775,381.679c-0.101,3.116-0.003,4.593,0.26,5.581c0.263,0.989,4.135,4.345,4.628,4.272v-1.73
				c0,0,1.186,2.319,2.39,4.58c1.334,2.506,1.93,5.508,8.456,8.397c6.613,2.928,11.115,2.172,14.333,1.416s4.769-2.754,4.769-2.754
				s0.933-3.262-1.112-4.284C262.453,396.135,230.775,381.679,230.775,381.679z"/>
			<g id="XMLID_782_">
				<g id="XMLID_784_">
					<path id="XMLID_785_" style="fill:#37474F;" d="M247.007,370.127c0.059,0.798,0.165,1.585,0.429,2.262
						c0.427,1.092,0.912,2.186,1.384,3.263c1.128,2.571,2.438,5.088,4.145,7.326c6.679,8.755,13.63,9.128,12.863,16.164
						c-0.308,1.965-4.235,4.62-12.846,4.147c-4.399-0.242-10.798-3.772-12.54-6.694c-1.743-2.922-2.379-5.397-3.806-7.546
						c-1.427-2.149-5.154-4.93-5.861-7.369c-0.562-1.938,0.043-4.009,0.23-5.957c0.184-1.908,0.188-3.181,0.128-4.54
						c-0.058-1.319-0.564-3.647-0.257-4.206c0.307-0.559,1.144-1.051,1.763-0.896l0.204,1.421c0.854,1.296,2.788,1.081,3.259,1.749
						c0.597,0.848,0.275,2.27,1.167,2.799c1.033-0.561,0.612-2.39,1.605-3.02c0.49-0.311,1.122-0.188,1.7-0.139
						c1.602,0.136,3.251-0.418,4.446-1.493c0.381-0.343,0.866-0.769,1.334-0.559c0.384,0.172,0.475,0.665,0.516,1.084
						C246.937,368.611,246.951,369.374,247.007,370.127z"/>
				</g>
			</g>
			<path style="fill:#455A64;" d="M265.828,399.142c0.479-4.39-2.048-6.187-5.639-9.044c-10.157-0.831-13.407,3.402-16.803,9.4
				c2.745,1.963,6.625,3.628,9.596,3.792C261.593,403.762,265.52,401.107,265.828,399.142z"/>
		</g>
		<g id="XMLID_751_">
			<g>
				<path style="fill:#27DEBF;" d="M237.972,156.049c6.483-0.755,9.552,1.984,16.171,10.687
					c6.619,8.702,20.168,24.841,20.168,24.841l-12.11,11.064l-25.06-26.988L237.972,156.049z"/>
				<path style="opacity:0.15;" d="M237.972,156.049c6.483-0.755,9.552,1.984,16.171,10.687
					c6.619,8.702,20.168,24.841,20.168,24.841l-12.11,11.064l-25.06-26.988L237.972,156.049z"/>
			</g>
			<g id="XMLID_780_">
				<path id="XMLID_781_" style="fill:#263238;" d="M230.135,135.041l-4.371,14.773c-12.153,0-19.663-11.835-19.663-23.988v0
					c0-12.205,7.772-22.405,19.977-22.405h3.961c12.206,0,22.1,8.104,22.1,20.31l0,0
					C252.139,131.684,242.287,135.041,230.135,135.041z"/>
				<path id="XMLID_319_" style="fill:#263238;" d="M193.653,156.6h3.913c5.414,0,9.803-4.389,9.803-9.803l0.57-29.895h-4.483
					c-5.414,0-9.803,4.389-9.803,9.803V156.6z"/>
				<path style="fill:#263238;" d="M254.419,112.43c0.891-1.534,1.433-3.311,1.288-5.079c-0.145-1.768-1.038-3.513-2.533-4.467
					c-2.277-1.453-5.42-0.771-7.538,0.904c-0.166-1.57-0.964-3.064-2.177-4.075c-1.213-1.011-2.826-1.527-4.4-1.407
					c-2.02,0.153-3.816,1.278-5.566,2.299c-1.996,1.164-6.154,2.518-9.462,2.915l3.713,1.466c-0.942,1.538-1.349,3.573-0.648,5.319
					c0.147,0.366,0.36,0.701,0.579,1.029c2.458,3.67,5.908,6.669,9.885,8.593c3.977,1.924,8.47,2.767,12.873,2.415
					c1.233-0.098,2.505-0.306,3.53-0.997c0.634-0.428,1.142-1.022,1.557-1.665c0.751-1.165,1.221-2.554,1.09-3.934
					C256.479,114.365,255.677,113.013,254.419,112.43z"/>
			</g>
			<g>
				<path id="XMLID_779_" style="fill:#F0F0F0;" d="M220.644,155.713l-10.44,0.981c-5.286,1.294-5.2,3.489-5.744,8.175
					c-0.253,2.182-2.599,9.277-0.749,16.554c1.676,6.594,7.164,21.455,7.164,21.455s-5.78,14.523-8.518,21.903
					c18.795,12.257,41.99,7.414,49.782,0c-0.659-7.017-3.142-13.543-3.7-19.8c0,0,0.406-9.768,1.181-14.007
					c5.945-6.489,5.187-12.697,2.519-17.701c-4.926-9.241-12.362-17.361-14.762-17.35L220.644,155.713z"/>
				<path style="fill:#E0E0E0;" d="M231.846,232.119c-4.574-0.853-8.45-1.808-10.159-2.795c-3.834-2.213-5.729-5.951-6.932-10.035
					c-1.23-4.175,1.709-8.304,2.14-12.471c0.347-3.354-1.073-5.992-1.997-9.105c-0.964-3.246-1.846-6.517-2.648-9.807
					c-0.519-2.127-1.155-4.21-1.425-6.392c-0.13-1.053-0.203-2.124-0.122-3.184c0.054-0.705,0.681-2.063,0.562-2.677
					c-0.001-0.004-2.14-11.02-2.14-11.02l-4.973,1.895c-0.66,3.121-1.951,8.945-0.438,14.894c1.676,6.594,7.164,21.455,7.164,21.455
					s-5.779,14.523-8.518,21.903C211.918,231.016,222.614,232.821,231.846,232.119z"/>
			</g>
			<g>
				<path id="XMLID_651_" style="fill:#B16668;" d="M198.06,212.353c2.887-10.661,9.863-28.706,9.863-28.706
					c4.254-10.145,3.804-21.232,2.281-26.953c-9.023,0.519-12.514,2.035-16.971,13.995c-3.402,9.129-9.877,30.942-12.752,40.758
					c-0.888,3.031,0.234,6.269,2.801,8.109"/>
				<path id="XMLID_426_" style="fill:#B16668;" d="M231.178,228.973c0.016-0.197,0.107-0.396,0.28-0.598
					c1.385-1.612,6.391-2.57,6.707-3.396c0.314-0.827-1.942-2.564-6.169-1.903c-4.226,0.662-5.026,2.042-10.386,1.705
					c-3.494-0.22-17.671-8.605-22.845-14.077l-15.482,8.851c8.77,6.289,21.403,12.755,27.048,15.638
					c5.791,2.957,10.437,5.221,17.168,6.425"/>
				<g>
					<path style="fill:#27DEBF;" d="M212.211,156.6c-6.635-0.087-10.692,0.074-14.456,4.158c-3.764,4.084-4.558,7.473-7.865,17.046
						c-3.308,9.573-7.024,25.57-7.024,25.57s4.707,5.72,16.571,4.288l11.302-29.642C210.738,178.02,213.957,166.988,212.211,156.6z"
						/>
					<path style="opacity:0.15;" d="M212.211,156.6c-6.635-0.087-10.692,0.074-14.456,4.158c-3.764,4.084-4.558,7.473-7.865,17.046
						c-3.308,9.573-7.024,25.57-7.024,25.57s4.707,5.72,16.571,4.288l11.302-29.642C210.738,178.02,213.957,166.988,212.211,156.6z"
						/>
				</g>
			</g>
			<g id="XMLID_752_">
				<g id="XMLID_777_">
					<path id="XMLID_778_" style="fill:#B16668;" d="M239.714,114.577c5.558,0.571,10.202,6.484,9.892,19.895
						c-0.263,11.367-3.947,14.174-5.797,14.983c-1.85,0.809-5.418,0.937-8.886,0.359v6.202c0,0,3.997,8.806,2.301,11.949
						c-9.504-3.897-16.578-12.252-16.578-12.252v-14.036c0,0-2.342,2.777-6.172,0.234c-3.83-2.544-3.976-8.839-1.749-11.099
						c2.227-2.26,7.026-1.545,7.921,1.578c0,0,3.335-0.085,9.461-4.452C236.171,123.613,238.725,118.277,239.714,114.577z"/>
				</g>
				<g id="XMLID_775_">
					<path id="XMLID_776_" style="fill:#263238;" d="M234.172,130.113c0.044,0.867-0.598,1.602-1.433,1.642
						c-0.835,0.04-1.547-0.631-1.591-1.499c-0.044-0.868,0.598-1.603,1.433-1.642C233.416,128.575,234.128,129.246,234.172,130.113z
						"/>
				</g>
				<g id="XMLID_771_">
					<path id="XMLID_772_" style="fill:#9A4A4D;" d="M235.767,140.757l4.511,1.439c-0.374,1.291-1.687,2.015-2.933,1.618
						C236.099,143.417,235.393,142.048,235.767,140.757z"/>
				</g>
				<g id="XMLID_765_">
					<path id="XMLID_766_" style="fill:#263238;" d="M247.581,126.617l-3.063-2.123c0.559-0.874,1.698-1.108,2.544-0.522
						C247.908,124.559,248.14,125.743,247.581,126.617z"/>
				</g>
				<g id="XMLID_759_">
					<path id="XMLID_764_" style="fill:#263238;" d="M246.455,129.816c0.044,0.867-0.598,1.602-1.433,1.642
						c-0.835,0.04-1.547-0.631-1.591-1.499c-0.044-0.868,0.598-1.603,1.433-1.642C245.699,128.277,246.411,128.949,246.455,129.816z
						"/>
				</g>
				<g id="XMLID_756_">
					<polygon id="XMLID_757_" style="fill:#9A4A4D;" points="238.809,128.949 239.05,138.061 243.846,136.576 					"/>
				</g>
				<g id="XMLID_753_">
					<path id="XMLID_754_" style="fill:#9A4A4D;" d="M234.922,149.814c-3.656-0.48-11.176-3.259-12.348-6.232
						c0,0,0.39,1.868,2.637,3.794c2.246,1.925,9.711,4.094,9.711,4.094V149.814z"/>
				</g>
			</g>
		</g>
		<g>
			<g id="XMLID_422_">
				<polygon id="XMLID_425_" style="fill:#27DEBF;" points="237.081,183.363 260.607,188.85 275.716,175.654 295.168,180.523 
					309.656,166.736 284.187,231.507 275.716,238.882 260.247,238.213 245.623,250.124 229.003,246.453 				"/>
				<polygon id="XMLID_379_" style="opacity:0.6;fill:#FFFFFF;" points="237.081,183.363 260.607,188.85 275.716,175.654 
					295.168,180.523 309.656,166.736 284.187,231.507 275.716,238.882 260.247,238.213 245.623,250.124 229.003,246.453 				"/>
				<polygon id="XMLID_424_" style="opacity:0.1;" points="275.716,175.654 260.247,238.213 245.623,250.124 260.607,188.85 				"/>
				<polygon id="XMLID_423_" style="opacity:0.1;" points="295.168,180.523 309.656,166.736 284.187,231.507 275.716,238.882 				
					"/>
				<polygon style="fill:none;stroke:#FAFAFA;stroke-linecap:round;stroke-linejoin:round;stroke-miterlimit:10;" points="
					240.179,187.701 259.725,192.459 274.642,179.996 293.948,184.184 304.547,175.306 282.947,230.667 276.622,236.163 
					260.979,235.254 246.457,246.661 232.561,243.759 				"/>
			</g>
			<path id="XMLID_364_" style="fill:#B16668;" d="M248.79,233.053c-0.663-2.234-3.822-0.056-9.339-0.818
				c-4.827-0.667-8.387-1.887-8.273-3.261l-3.679,12.645c1.543,0.276,3.194,0.441,4.989,0.454
				C242.113,242.142,249.454,235.287,248.79,233.053z"/>
			<path style="fill:#B16668;" d="M293.369,208.156c-2.414,1.932-4.9,1.044-6.145,4.072c-1.246,3.028-0.911,7.798,1.663,7.328
				c3.337-0.609,4.629-2.031,5.572-3.687c3.586-6.298,0.2-10.994,0.2-10.994L293.369,208.156z"/>
		</g>
	</g>
</g>
</svg>
